<svg xmlns="http://www.w3.org/2000/svg" xmlns:xlink="http://www.w3.org/1999/xlink" viewBox="0 0 42.52 42.52"><defs><style>.cls-1{fill:#2b8daf;}.cls-2{fill:url(#radial-gradient);}.cls-3{fill:#384149;}.cls-4{fill:#fff;}.cls-5{fill:#94cce7;}.cls-6{fill:#53b4df;}</style><radialGradient id="radial-gradient" cx="39.14" cy="41.8" r="18.1" gradientUnits="userSpaceOnUse"><stop offset="0" stop-color="#53b4df"/><stop offset="1" stop-color="#1c9cd6"/></radialGradient></defs><title>Research</title><g id="Calque_2" data-name="Calque 2"><g id="Calque_1-2" data-name="Calque 1"><path class="cls-1" d="M36.54,41.5l-11-11,5-5,11,11a3.51,3.51,0,0,1-2.48,6A3.48,3.48,0,0,1,36.54,41.5Z"/><path class="cls-2" d="M39,42.52a3.41,3.41,0,0,0,1.65-.43,3.42,3.42,0,0,0,.44-1.66,3.5,3.5,0,0,0-1-2.48l-11-11-3.55,3.55,11,11A3.48,3.48,0,0,0,39,42.52Z"/><path class="cls-3" d="M24.81,26.93l2.12,2.13,2.13-2.13-2.13-2.12"/><path class="cls-4" d="M41.82,2.83A2.13,2.13,0,1,1,39.69.71,2.13,2.13,0,0,1,41.82,2.83Z"/><path class="cls-4" d="M30.48,5.67a2.13,2.13,0,1,1-2.13-2.13A2.14,2.14,0,0,1,30.48,5.67Z"/><path class="cls-4" d="M14.17,2.83A2.13,2.13,0,1,1,12.05.71,2.12,2.12,0,0,1,14.17,2.83Z"/><path class="cls-4" d="M5,15.59a2.13,2.13,0,1,1-2.13-2.12A2.13,2.13,0,0,1,5,15.59Z"/><path class="cls-4" d="M5,2.83A2.13,2.13,0,1,1,2.83.71,2.13,2.13,0,0,1,5,2.83Z"/><path class="cls-3" d="M39.69,5.67a2.84,2.84,0,1,1,2.83-2.84A2.84,2.84,0,0,1,39.69,5.67Zm0-4.25a1.42,1.42,0,1,0,1.42,1.41A1.42,1.42,0,0,0,39.69,1.42Z"/><path class="cls-3" d="M28.35,8.5a2.84,2.84,0,1,1,2.83-2.83A2.84,2.84,0,0,1,28.35,8.5Zm0-4.25a1.42,1.42,0,1,0,1.42,1.42A1.43,1.43,0,0,0,28.35,4.25Z"/><path class="cls-3" d="M2.83,18.43a2.84,2.84,0,1,1,2.84-2.84A2.84,2.84,0,0,1,2.83,18.43Zm0-4.26a1.42,1.42,0,1,0,1.42,1.42A1.42,1.42,0,0,0,2.83,14.17Z"/><path class="cls-3" d="M2.83,5.67A2.84,2.84,0,1,1,5.67,2.83,2.84,2.84,0,0,1,2.83,5.67Zm0-4.25A1.42,1.42,0,1,0,4.25,2.83,1.41,1.41,0,0,0,2.83,1.42Z"/><path class="cls-3" d="M12.05,5.67a2.84,2.84,0,1,1,2.83-2.84A2.84,2.84,0,0,1,12.05,5.67Zm0-4.25a1.42,1.42,0,1,0,1.42,1.41A1.42,1.42,0,0,0,12.05,1.42Z"/><path class="cls-3" d="M2.13,5H3.54v8.51H2.13Z"/><path class="cls-3" d="M3,13.74l7.09-9.21,1.12.86L4.11,14.61Z"/><path class="cls-3" d="M35.49,11.79,38.32,4.7l1.32.52-2.83,7.09Z"/><path class="cls-3" d="M29.23,7.55l1.07-.93,5,5.67-1.06.93Z"/><path class="cls-3" d="M14.09,4.25l.17-1.41,12,1.42-.17,1.4Z"/><path class="cls-3" d="M29.06,18.43A10.63,10.63,0,1,1,18.43,7.8,10.63,10.63,0,0,1,29.06,18.43Z"/><path class="cls-5" d="M26.22,18.43a7.8,7.8,0,1,1-7.79-7.8A7.79,7.79,0,0,1,26.22,18.43Z"/><path class="cls-4" d="M26.22,18.43a7.8,7.8,0,1,1-7.79-7.8A7.79,7.79,0,0,1,26.22,18.43Z"/><path class="cls-6" d="M20.55,21.26a2.13,2.13,0,1,1-2.12-2.12A2.12,2.12,0,0,1,20.55,21.26Z"/><path class="cls-3" d="M18.43,24.1a2.84,2.84,0,1,1,2.83-2.84A2.84,2.84,0,0,1,18.43,24.1Zm0-4.26a1.42,1.42,0,1,0,1.41,1.42A1.43,1.43,0,0,0,18.43,19.84Z"/><path class="cls-3" d="M20.26,20.61l14.18-6.37L35,15.53,20.84,21.91Z"/><path class="cls-3" d="M4.68,17l.57-1.3,11.34,5L16,21.91Z"/><path class="cls-4" d="M37.56,14.17a2.13,2.13,0,1,1-2.12-2.12A2.12,2.12,0,0,1,37.56,14.17Z"/><path class="cls-3" d="M35.44,17a2.84,2.84,0,1,1,2.83-2.84A2.84,2.84,0,0,1,35.44,17Zm0-4.25a1.42,1.42,0,1,0,1.41,1.41A1.42,1.42,0,0,0,35.44,12.76Z"/></g></g></svg>