<svg xmlns="http://www.w3.org/2000/svg" viewBox="0 0 449.77 1086.48">
    <defs>
        <style>.cls-1{fill:#104354;}.cls-2{fill:#fff;}.cls-3{fill:none;stroke:#fff;stroke-linecap:round;stroke-miterlimit:10;stroke-width:6px;}</style>
    </defs>
    <title>summay_anim_left</title>
    <g id="Calque_2" data-name="Calque 2">
        <g id="Calque_2-2" data-name="Calque 2">
            <g id="plain_brain">
                <path class="cls-1" d="M152,214.85a1.86,1.86,0,0,1-1.36-.54l0,0a1.93,1.93,0,0,1-.71-1.47v0a21.84,21.84,0,0,1,2.76-11.63.4.4,0,0,0,.1-.15,26.25,26.25,0,0,1,8-9c5.74-4.2,13.2-6.43,22.16-6.65h.93a80.32,80.32,0,0,1,10.45.75c2.64.35,6.36,1,11.06,1.93a2.1,2.1,0,0,1,1.7,2.54,2.41,2.41,0,0,1-.9,1.44,2.15,2.15,0,0,1-1.17.34,2.56,2.56,0,0,1-.47,0c-4.54-.88-8.17-1.51-10.8-1.87a70.28,70.28,0,0,0-9.38-.69l-1.34,0c-7.89.17-14.52,2.12-19.69,5.79a22.5,22.5,0,0,0-6.73,7.55,18.36,18.36,0,0,0-2.3,9.45v0a1.9,1.9,0,0,1-.57,1.53h0a2,2,0,0,1-1.49.69H152Z"/>
                <path class="cls-1" d="M159,219.33a2.61,2.61,0,0,1-.48-.05,2.07,2.07,0,0,1-1.38-.91v0a2.07,2.07,0,0,1-.36-1.65,16.93,16.93,0,0,1,3.14-6.73.77.77,0,0,0,.1-.18,21.94,21.94,0,0,1,5.21-4.85,33.27,33.27,0,0,1,13.06-4.77,55.32,55.32,0,0,1,8.85-.73,53.25,53.25,0,0,1,16,2.48,2.08,2.08,0,0,1,1.31,1.06,2.17,2.17,0,0,1-1,3,2.07,2.07,0,0,1-1,.28,1.9,1.9,0,0,1-.61-.1,48.58,48.58,0,0,0-14.64-2.28,50.75,50.75,0,0,0-8.19.68,28.52,28.52,0,0,0-11.35,4.07,16.79,16.79,0,0,0-4.07,3.8,1.07,1.07,0,0,0-.18.19,13.58,13.58,0,0,0-2.31,5,2.28,2.28,0,0,1-1,1.4A2.14,2.14,0,0,1,159,219.33Z"/>
                <path class="cls-1" d="M274.05,211a2.14,2.14,0,0,1-1.38-.47,2.05,2.05,0,0,1-.81-1.47v0a1.91,1.91,0,0,1,.45-1.55l0,0c2.64-3.41,4.17-8.28,4.54-14.48s-.54-11.25-2.68-15.06v0a2,2,0,0,1-.24-1.63,2.16,2.16,0,0,1,1-1.38h0a1.79,1.79,0,0,1,1-.28,2.39,2.39,0,0,1,.63.09l.05,0a2,2,0,0,1,1.35,1c2.62,4.38,3.72,10.27,3.3,17.51s-2.32,13-5.53,16.94l0,0a1.89,1.89,0,0,1-1.41.79Z"/>
                <path class="cls-1" d="M299.69,204.1a2.46,2.46,0,0,1-.53-.06,2,2,0,0,1-1.35-1v0a2.08,2.08,0,0,1-.3-1.65,28.53,28.53,0,0,0-3.72-21.62,2,2,0,0,1-.29-1.6v0a2,2,0,0,1,.91-1.38,2.17,2.17,0,0,1,1.14-.35,2.2,2.2,0,0,1,.5.06h0a2.1,2.1,0,0,1,1.38,1,32.44,32.44,0,0,1,4.33,25,2.1,2.1,0,0,1-1,1.36,2.15,2.15,0,0,1-1.12.32Z"/>
                <path class="cls-1" d="M124.24,167.08a91,91,0,0,1-10.08-.64,1,1,0,0,0-.36-.07h0c-5.84-.84-10.12-1.44-12.72-1.77a2,2,0,0,1-1.44-.83,2.16,2.16,0,0,1,.37-3.08,2.12,2.12,0,0,1,1.3-.45l.32,0c2.63.33,6.93.93,12.79,1.78h0a90.76,90.76,0,0,0,10,.64c1.13,0,2.23,0,3.25-.1,9.43-.62,16.39-4.44,20.7-11.34a1,1,0,0,0,.13-.41,6.5,6.5,0,0,0-1-4l-.11-.15a12.24,12.24,0,0,0-3.64-3.82l-.14-.08c-.23-.11-2.05-1.1-9.27-5.05-5.13-2.85-8.67-5.18-10.52-6.94a.65.65,0,0,0-.15-.18c-5.3-5.17-9.21-10.17-11.63-14.88a.91.91,0,0,0-.11-.16A36.3,36.3,0,0,1,108,97.41a2.14,2.14,0,0,1,.73-1.51h0a2,2,0,0,1,1.46-.57h.09a2,2,0,0,1,1.49.69h0a2,2,0,0,1,.61,1.56A31.7,31.7,0,0,0,116,113.7a56.63,56.63,0,0,0,10.79,13.79h0c1.75,1.64,4.93,3.73,9.73,6.38,7.51,4.14,9.28,5.1,9.75,5.34a16.55,16.55,0,0,1,5.13,5.5,10.17,10.17,0,0,1,1.35,7.63s0,0,0,.06l-.05.32-.17.27a26.46,26.46,0,0,1-9.81,9.89A34,34,0,0,1,128,167c-1.18.09-2.44.13-3.76.13Z"/>
                <path class="cls-1" d="M165.69,157.12a29.58,29.58,0,0,1-15.57-4.32,2.15,2.15,0,0,1-1-1.36v0a2,2,0,0,1,.26-1.62l0,0a2.1,2.1,0,0,1,1.32-1,2.05,2.05,0,0,1,.49-.06,2.17,2.17,0,0,1,1.14.35l0,0a26.23,26.23,0,0,0,13.47,3.64,34,34,0,0,0,8.17-1.06,2.46,2.46,0,0,1,.53-.06,2.17,2.17,0,0,1,1.13.33,1.93,1.93,0,0,1,1,1.31v0a2.07,2.07,0,0,1-.22,1.67,2.1,2.1,0,0,1-1.36,1h0a39.25,39.25,0,0,1-9.37,1.21Z"/>
                <path class="cls-1" d="M328.12,175.71a52.53,52.53,0,0,1-20.95-4c-7.42-3.21-12.64-7.23-15.52-11.94a18.55,18.55,0,0,1-2.84-10,14,14,0,0,1,3.71-9.81l0,0c2.76-3.14,7.11-4.84,12.93-5.05.46,0,1,0,1.51,0,2.89,0,7,.25,12.12.73h.06c.64,0,1.29,0,1.92,0a39.58,39.58,0,0,0,18.2-4.11A27.2,27.2,0,0,0,352.49,117c2.63-6.65,3.61-15.87,2.92-27.38s-2.66-20.5-5.92-27a2.08,2.08,0,0,1-.12-1.69,2.26,2.26,0,0,1,1.12-1.28,2,2,0,0,1,.93-.23,2.08,2.08,0,0,1,.68.12,2.26,2.26,0,0,1,1.34,1.12c3.53,6.9,5.68,16.57,6.38,28.75.73,12.36-.36,22.2-3.24,29.26a31.57,31.57,0,0,1-15.26,16.67,43.55,43.55,0,0,1-20.15,4.6h0c-.72,0-1.46,0-2.19,0h-.12c-4.94-.46-8.87-.69-11.67-.69q-.85,0-1.59,0c-4.3.11-7.61,1.34-9.85,3.63l0,0a10,10,0,0,0-2.51,6.86,14.17,14.17,0,0,0,2.16,7.69v0c2.6,4,7.15,7.45,13.52,10.18A47.8,47.8,0,0,0,328,171.3c1.3,0,2.64,0,4-.12a111.94,111.94,0,0,0,24.12-4.54h0a1.83,1.83,0,0,1,1.58.16l0,0a2.25,2.25,0,0,1,1.09,1.32,2,2,0,0,1-.21,1.65,2.12,2.12,0,0,1-1.31,1.05,112.28,112.28,0,0,1-25.11,4.76C330.85,175.67,329.46,175.71,328.12,175.71Z"/>
                <path class="cls-1" d="M312.25,97.14a2.39,2.39,0,0,1-2-1.14C302.68,82.09,293,73.52,281.62,70.55h0a87.08,87.08,0,0,0-14.26-1.76c-6.43-.35-11.06-.91-13.77-1.66a14.06,14.06,0,0,1-8.22-6.42,1,1,0,0,0-.13-.16A21,21,0,0,1,242,51c-.34-3.38.45-7.77,2.35-13.07,2.07-5.73,4.44-9.52,7-11.27l0,0a2.06,2.06,0,0,1,1.22-.41,2.85,2.85,0,0,1,.4,0,2.14,2.14,0,0,1,1.83,2.52A2,2,0,0,1,254,30.2l0,0c-2.06,1.62-3.86,4.64-5.51,9.23s-2.3,8.2-2.07,11.13A16.59,16.59,0,0,0,249,58.37a10.2,10.2,0,0,0,5.65,4.52.45.45,0,0,0,.16,0,72.74,72.74,0,0,0,12.78,1.49,88.23,88.23,0,0,1,15.07,1.88A40.8,40.8,0,0,1,300,75.45a66.71,66.71,0,0,1,14.16,18.43l0,0a1.86,1.86,0,0,1,.16,1.63v0a2.13,2.13,0,0,1-1.05,1.31,2,2,0,0,1-1,.27Z"/>
                <path class="cls-1" d="M189.91,80a30.28,30.28,0,0,1-4.81-.39,29,29,0,0,1-12.8-5.52,28,28,0,0,1-8.51-11,27.33,27.33,0,0,1-2.49-13.68,2.24,2.24,0,0,1,.76-1.52,2,2,0,0,1,1.34-.52h.22a2.31,2.31,0,0,1,1.54.75,2.2,2.2,0,0,1,.51,1.59,23.1,23.1,0,0,0,2.05,11.45.52.52,0,0,0,.06.16,23.75,23.75,0,0,0,7.06,9.12.81.81,0,0,0,.16.16,23.41,23.41,0,0,0,10.79,4.65,26.14,26.14,0,0,0,4.1.33,23.9,23.9,0,0,0,7.72-1.28c5.12-1.78,12.78-6,22.76-12.45,11.17-7.28,18.68-12.72,21.56-17.33a6.82,6.82,0,0,0,.91-1.71c.12-.28.28-.67.44-1a2.86,2.86,0,0,0,1.06,1.43,2.12,2.12,0,0,1,1,1.34,2.23,2.23,0,0,1-.2,1.7c-2.77,4.91-10.32,11.37-22.42,19.21-10.43,6.79-18.41,11.15-23.71,13A28.41,28.41,0,0,1,189.91,80Z"/>
                <path class="cls-1" d="M251.17,153.1a2.55,2.55,0,0,1-.61-.08,2.17,2.17,0,0,1-1.34-1,2.13,2.13,0,0,1-.23-1.68,2.1,2.1,0,0,1,1-1.33,42.43,42.43,0,0,1,20.42-5.78c.51,0,1,0,1.54,0a42.08,42.08,0,0,1,19.16,4.51,2.1,2.1,0,0,1,1.1,1.27,2.28,2.28,0,0,1-.12,1.66,2.06,2.06,0,0,1-1.25,1.09h0a2.37,2.37,0,0,1-.77.14,2.07,2.07,0,0,1-.92-.22,38.24,38.24,0,0,0-17.35-4.07c-.42,0-.85,0-1.27,0a38,38,0,0,0-18.28,5.2,2.26,2.26,0,0,1-1.08.28Z"/>
                <path class="cls-1" d="M119.33,149.52a2.37,2.37,0,0,1-.73-.12c-3.26-1.06-7.13-3.47-11.51-7.14a74,74,0,0,1-9.42-9.51,2,2,0,0,1-.46-1.6v0a2.08,2.08,0,0,1,.78-1.48,1.93,1.93,0,0,1,1.25-.47l.3,0h0a2.22,2.22,0,0,1,1.53.78,66.23,66.23,0,0,0,8.83,8.92A35.51,35.51,0,0,0,120,145.26h0a2.12,2.12,0,0,1,1.24,1.11,2,2,0,0,1,.12,1.63,2.05,2.05,0,0,1-1.11,1.28A2.09,2.09,0,0,1,119.33,149.52Z"/>
                <path class="cls-1" d="M265.43,212.32A77.68,77.68,0,0,1,249.6,211a49.44,49.44,0,0,1-28.29-17.49,2,2,0,0,1,.3-2.92l0,0a1.78,1.78,0,0,1,1.25-.46h.24a2,2,0,0,1,1.39.79,45.31,45.31,0,0,0,26,16,76.2,76.2,0,0,0,15.19,1.25c4.14,0,8.87-.19,14-.57a52,52,0,0,0,14-3.16l.17-.09a56,56,0,0,0,12.47-6.78,32.1,32.1,0,0,0,9.19-10.39,1.08,1.08,0,0,0,.08-.19,25.26,25.26,0,0,0,3.08-11.75l4.19-.19a29,29,0,0,1-3.74,14.14,35.74,35.74,0,0,1-10.36,11.71,59.29,59.29,0,0,1-13.64,7.43A54.76,54.76,0,0,1,280,211.73C274.64,212.12,269.74,212.32,265.43,212.32Z"/>
                <path class="cls-1" d="M268.59,49a3.42,3.42,0,0,1-.45,0h0a1.85,1.85,0,0,1-1.35-.87,2.1,2.1,0,0,1-.36-1.66h0c1.09-5.92,2.68-10.09,4.72-12.41a.76.76,0,0,0,.21-.19c2.36-2.92,6.47-4.68,12.21-5.23h.24a2.14,2.14,0,0,1,1.4.51,2.09,2.09,0,0,1,.81,1.42,2.33,2.33,0,0,1-.54,1.64,2.27,2.27,0,0,1-1.48.81c-4.26.41-7.4,1.66-9.34,3.72l0,0c-1.69,2.07-3,5.51-3.87,10.5a2.19,2.19,0,0,1-.94,1.39A2.06,2.06,0,0,1,268.59,49Z"/>
                <path class="cls-1" d="M185.65,60.57a2.31,2.31,0,0,1-.72-.12,1.94,1.94,0,0,1-1.23-1.11l0,0a2.09,2.09,0,0,1-.11-1.68,2,2,0,0,1,1.12-1.23c.57-.25,4.94-2.34,13.35-6.36,5.3-2.56,9.75-4.73,13.23-6.45,5.1-2.61,8.33-4.95,9.9-7.16,0,0,.05-.09.08-.14a3.33,3.33,0,0,0-1.06-4.16,1.93,1.93,0,0,1-.71-1.48v0A2.18,2.18,0,0,1,220,29a1.94,1.94,0,0,1,1.46-.71h.29a2,2,0,0,1,1.34.53,8.61,8.61,0,0,1,3.12,4.78,6.79,6.79,0,0,1-1.3,5l0,0c-1.58,2.74-5.5,5.7-11.63,8.8-3.48,1.74-7.9,3.89-13.16,6.42a.49.49,0,0,0-.17.06l-13.35,6.4A2.2,2.2,0,0,1,185.65,60.57Z"/>
                <path class="cls-1" d="M185.32,139.55A47.77,47.77,0,0,1,168.51,136a55.25,55.25,0,0,1-13.45-7.39,37.42,37.42,0,0,1-9.8-10.19c-4.4-7-7.35-16.15-8.75-27.23-1.41-10.76-1-20.39,1.13-28.63a2.24,2.24,0,0,1,1.06-1.35h0a2,2,0,0,1,1-.3A2.24,2.24,0,0,1,141.67,62v0a2.06,2.06,0,0,1,.22,1.68c-2,7.78-2.36,16.85-1.05,26.95,1.3,10.31,4,18.86,8.1,25.41a34.8,34.8,0,0,0,8.71,9,53,53,0,0,0,12.41,6.82,42.72,42.72,0,0,0,15.06,3.17,24.26,24.26,0,0,0,10-2h0c3.53-1.72,7.41-4.74,11.54-9,1.17-1.22,2.92-3.1,5.21-5.61a.65.65,0,0,0,.18-.15c2.2-2.36,4.12-4.27,5.72-5.68,10.53-9.28,21.73-15.62,33.3-18.84a63.64,63.64,0,0,1,17.25-2.48c1.58,0,3.18.06,4.74.19A62.15,62.15,0,0,1,285,93.21l.15,0a22.72,22.72,0,0,1,10,6.45,1.33,1.33,0,0,0,.14.19c1.95,2.14,4.27,4.71,6.9,7.64l0,0a26.64,26.64,0,0,0,8.05,5,14.86,14.86,0,0,0,5.85,1.24,15.35,15.35,0,0,0,6.39-1.46,13.83,13.83,0,0,0,7.86-9.2,24,24,0,0,0,.34-11.7v0a41.23,41.23,0,0,0-5.49-11.3,75.44,75.44,0,0,0-34.39-28.74,2.05,2.05,0,0,1-1.19-1.19,2.14,2.14,0,0,1,0-1.72v0a1.94,1.94,0,0,1,1.17-1.12l.05,0a1.7,1.7,0,0,1,.77-.18,2,2,0,0,1,.81.18h0A80.41,80.41,0,0,1,329,77.78c3.15,4.91,5.18,9.14,6,12.57a27.6,27.6,0,0,1-.37,14,17.75,17.75,0,0,1-10.24,12,19.53,19.53,0,0,1-8.29,1.94,19,19,0,0,1-7.55-1.62,32.29,32.29,0,0,1-9.31-5.85l-.12-.15a.08.08,0,0,0,0,0l-7-7.81a18.2,18.2,0,0,0-8.32-5.4,58.35,58.35,0,0,0-11-1.56h-.07c-1.43-.11-2.88-.18-4.33-.18A58.22,58.22,0,0,0,252.29,98c-11,3-21.59,9.07-31.6,17.88-1.53,1.36-3.36,3.16-5.43,5.35a1,1,0,0,0-.15.2c-2.29,2.5-4.05,4.39-5.25,5.61-4.59,4.75-8.9,8.09-12.83,9.93A26.67,26.67,0,0,1,185.32,139.55Z"/>
                <path class="cls-1" d="M188.51,103.48a20.6,20.6,0,0,1-8.15-1.53h0a112.5,112.5,0,0,1-12.74-5.78.91.91,0,0,0-.16-.11c-5.2-3-8.6-6.18-10.1-9.53l0,0a2,2,0,0,1-.08-1.66v0a1.92,1.92,0,0,1,1.09-1.21,2,2,0,0,1,.91-.24,2,2,0,0,1,.75.15h0a2.1,2.1,0,0,1,1.25,1.11h0c1.38,2.64,4.12,5.16,8.14,7.49a.64.64,0,0,0,.2.16A98.49,98.49,0,0,0,182,97.86h0a19.38,19.38,0,0,0,6.68,1.1c5.82,0,13.07-2.12,21.54-6.31a104.46,104.46,0,0,0,14.09-8.42,57.07,57.07,0,0,0,9-7.7,1.91,1.91,0,0,1,1.48-.72h.28a2,2,0,0,1,1.34.53,2.15,2.15,0,0,1,.76,1.48,2.33,2.33,0,0,1-.53,1.64,61,61,0,0,1-9.78,8.39A106.57,106.57,0,0,1,212.1,96.6l-.16.1C202.76,101.2,194.88,103.48,188.51,103.48Z"/>
                <path class="cls-1" d="M182.54,122.33a2.16,2.16,0,0,1-.87-.2,2.25,2.25,0,0,1-1.17-1.29,2.12,2.12,0,0,1,.09-1.64c1.48-3.28,1.49-7.1,0-11.36s-3.78-7-6.9-8.25h0a2.14,2.14,0,0,1-1.24-2.82s0,0,0-.05a1.93,1.93,0,0,1,1.11-1.18,2.23,2.23,0,0,1,1-.22,2.29,2.29,0,0,1,.76.13c4.27,1.49,7.45,5.19,9.46,11,1.89,5.54,1.82,10.46-.21,14.62a2.24,2.24,0,0,1-1.26,1.14,2.1,2.1,0,0,1-.76.15Z"/>
                <path class="cls-1" d="M205.6,183.92a2,2,0,0,1,.66-1.51l0,0a2,2,0,0,1,1.51-.67,2.17,2.17,0,0,1,1.57.68,2,2,0,0,1,.63,1.53v70.4a.94.94,0,0,0,.33.71.93.93,0,0,0,.61.23h.13a23.87,23.87,0,0,0,9.49-3.54.71.71,0,0,0,.15-.08,23.62,23.62,0,0,0,8.69-10.32.75.75,0,0,0,0-.16c.48-1.07,1-2.27,1.49-3.55a.75.75,0,0,0,.05-.16c.74-1.87,2-4.7,3.77-8.41,1.55-3.24,2.63-5.72,3.22-7.36a19.11,19.11,0,0,0-.32-14.24h0a2.05,2.05,0,0,1-.06-1.68,1.89,1.89,0,0,1,1.13-1.21h0a1.93,1.93,0,0,1,.83-.19,2.08,2.08,0,0,1,.82.17h0a2.09,2.09,0,0,1,1.21,1.16,22.91,22.91,0,0,1,.47,17.45c-.61,1.71-1.73,4.28-3.34,7.64a1.19,1.19,0,0,0-.09.15c-1.74,3.62-3,6.4-3.67,8.26-.49,1.34-1,2.58-1.5,3.71a.7.7,0,0,0-.09.17,27.73,27.73,0,0,1-25.63,16.79l-2.2.06Z"/>
                <path class="cls-1" d="M177.78,229.69A33.34,33.34,0,0,1,167,228a29.41,29.41,0,0,1-13.1-8.94s0,0,0-.05l0,0A29.56,29.56,0,0,1,147,204.74h0a29.45,29.45,0,0,1,1.36-15.82,30.16,30.16,0,0,1,9.06-13,2,2,0,0,1,1.35-.5H159a2.11,2.11,0,0,1,2,2.32,2.09,2.09,0,0,1-.78,1.52,25.83,25.83,0,0,0-7.65,11l-.07.15a26,26,0,0,0,15.91,33.39,29.77,29.77,0,0,0,9.52,1.49,42.63,42.63,0,0,0,9.59-1.18c4.88-1.13,11.45-3.5,19.54-7a2,2,0,0,1,1.69-.07,2.06,2.06,0,0,1,1.2,1.15,2.28,2.28,0,0,1,0,1.72,2.3,2.3,0,0,1-1.17,1.19c-8.44,3.7-15.28,6.17-20.32,7.33A48.59,48.59,0,0,1,177.78,229.69Z"/>
                <path class="cls-1" d="M240.76,193.68a10.5,10.5,0,0,1-8.45-3.88l0,0c-2.93-3.24-3.62-7.12-2.11-11.86a1,1,0,0,0,.12-.23c1.62-4.8,4.5-7.55,8.8-8.41l.13,0a11.8,11.8,0,0,1,2.46-.27c3.31,0,6.26,1.5,9,4.6a.8.8,0,0,0,.17.15c3.26,3.82,4.13,7.66,2.66,11.76v0c-1.36,4.24-4.45,6.79-9.45,7.8a17,17,0,0,1-3.3.35Zm.64-20.22a7.2,7.2,0,0,0-1.29.12h0c-2.73.62-4.63,2.48-5.64,5.53s-.63,5.62,1.16,7.76l0,0a7.09,7.09,0,0,0,5.43,2.33,10.92,10.92,0,0,0,2.14-.23c3-.6,5.07-2.16,6.05-4.65a.85.85,0,0,0,.15-.3c.79-2.63.13-5.18-2-7.57h0A8,8,0,0,0,241.4,173.46Z"/>
                <path class="cls-1" d="M195.5,169.19a2.33,2.33,0,0,1-1.13-.3,1.94,1.94,0,0,1-1-1.3v0a2.14,2.14,0,0,1,.2-1.66,1.93,1.93,0,0,1,1.29-1h0a46.78,46.78,0,0,0,15.22-7.51h0A96.83,96.83,0,0,0,222.33,146c2.52-2.77,6.24-6.91,11.06-12.31l.08-.08a59.63,59.63,0,0,1,12.32-10.25,37.42,37.42,0,0,1,13.39-4.76,38.5,38.5,0,0,1,5.93-.46,37.46,37.46,0,0,1,8.3.94,2.19,2.19,0,0,1,1.61,2.65,2.13,2.13,0,0,1-1,1.35h0a2,2,0,0,1-1.11.35,1.91,1.91,0,0,1-.52-.07,33.23,33.23,0,0,0-7.31-.82,33.82,33.82,0,0,0-17,4.61,55.91,55.91,0,0,0-11.31,9.41l0,0c-4.85,5.42-8.6,9.58-11.14,12.34a98,98,0,0,1-12.8,12,.73.73,0,0,0-.18.17,50.5,50.5,0,0,1-16.51,8.06A2.72,2.72,0,0,1,195.5,169.19Z"/>
                <path class="cls-1" d="M131.63,191.57A46.89,46.89,0,0,1,118.05,189a25.58,25.58,0,0,1-13.43-9.66c-3.46-4.78-5.93-11.21-7.33-19.11-2.09-11.81-1.66-25.05,1.27-39.36a95.47,95.47,0,0,1,16.58-36.78,125.81,125.81,0,0,1,30.51-29.36,163.37,163.37,0,0,1,40.51-20.17,178.07,178.07,0,0,1,46.45-9.09c4.53-.27,9.08-.4,13.51-.4a193.23,193.23,0,0,1,56.52,8.13,159,159,0,0,1,28.43,11.66A131.5,131.5,0,0,1,354.9,61.09l.18.12a108,108,0,0,1,17.73,19.37A87.23,87.23,0,0,1,384,102.46a73.87,73.87,0,0,1,.29,47.87v0c-1.9,6.46-8.68,12.54-20.17,18.1a106.25,106.25,0,0,1-31.54,9.5,191,191,0,0,1-26.54,1.86,198.84,198.84,0,0,1-22-1.24c-4.73-.55-11.66-1.54-20.59-2.95l-.1,0c-9.08-1.46-16.08-2.48-20.81-3a.85.85,0,0,0-.35-.08c-8.9-1.15-15.41-2-19.36-2.4a.72.72,0,0,0-.25-.07c-6.56-.83-12.08-1.31-16.42-1.42l-1.89,0a95.15,95.15,0,0,0-31.67,5.74l-.15,0a119.63,119.63,0,0,0-17.58,7.74c-3,1.63-6.75,3.74-11.18,6.3l-.05,0-.07,0a26.47,26.47,0,0,1-10.76,3.06h0C132.45,191.56,132,191.57,131.63,191.57ZM246.22,29.5c-4.38,0-8.87.13-13.36.4a172.54,172.54,0,0,0-45.32,8.85,157.89,157.89,0,0,0-39.36,19.58,122.59,122.59,0,0,0-29.51,28.36,90.15,90.15,0,0,0-15.78,35.07c-2.85,13.68-3.28,26.38-1.29,37.74,2.4,13.6,8.37,22.12,17.77,25.31h0A43.19,43.19,0,0,0,132,187.18h.71a23.89,23.89,0,0,0,8.87-2.53l.05,0c4.44-2.57,8.21-4.71,11.22-6.35a120.62,120.62,0,0,1,18.25-8.07,99.43,99.43,0,0,1,33-6c.75,0,1.51,0,2.26,0,4.44.11,10.12.59,16.89,1.44,3.95.47,10.56,1.3,19.66,2.47,4.77.58,11.9,1.62,21.21,3.1,8.92,1.43,15.83,2.42,20.54,2.94h.09a192.19,192.19,0,0,0,21.49,1.22,187.31,187.31,0,0,0,25.84-1.8,102,102,0,0,0,30.23-9.14c9.9-4.77,15.93-10,17.91-15.48v0a69.43,69.43,0,0,0-.3-45.06c-5-14.63-14.36-27.92-27.79-39.49-13.89-11.9-30.93-21-50.66-27A189.4,189.4,0,0,0,246.22,29.5Z"/>
            </g>
            <g id="neurones">
                <path class="cls-2 neurone" d="M250,157.53a6.5,6.5,0,1,1,6.5-6.5A6.51,6.51,0,0,1,250,157.53Z"/>
                <path class="cls-2 neurone" d="M312.63,103.64a6.5,6.5,0,1,1,6.5-6.5A6.51,6.51,0,0,1,312.63,103.64Z"/>
                <path class="cls-2 neurone" d="M243.61,52.63a6.5,6.5,0,1,1,6.5-6.5A6.51,6.51,0,0,1,243.61,52.63Z"/>
                <path class="cls-2 neurone" d="M207.78,186.21a6.5,6.5,0,1,1,6.5-6.5A6.5,6.5,0,0,1,207.78,186.21Z"/>
                <circle class="cls-2 neurone" cx="176.1" cy="153.74" r="6.5"/>
            </g>
            <g id="synapses">
                <path class="cls-3 synapse1" d="M151.57,151.1a38.36,38.36,0,0,0,8.59,2.9,39.22,39.22,0,0,0,16.17,0"/>
                <path class="cls-3 synapse1" d="M290.72,149.88a43.24,43.24,0,0,0-41.5,2.16"/>
                <path class="cls-3 synapse" d="M168,3c-2.57,22.58-4,39.61-4.34,46.88a26.18,26.18,0,0,0,1,9,27.18,27.18,0,0,0,5.15,9.25,26.34,26.34,0,0,0,10.1,7.57c9.18,3.78,18,.68,21.65-.63,1-.34,2.8-1,8.41-4.2,2.48-1.41,4.69-2.71,6.8-4,4.43-2.73,7.79-4.8,12-8,3.47-2.6,6.06-4.84,7.35-6,2.55-2.26,4.72-4.38,6.52-6.24"/>
                <path class="cls-3 synapse" d="M258.8,3c-1,15.35-4.76,23.19-8.14,27.52a29.71,29.71,0,0,0-4.43,7.4,25.34,25.34,0,0,0-1.81,13.81A16.85,16.85,0,0,0,248,60.6a15.72,15.72,0,0,0,5.26,3.95c4.26,2,8.18,1.6,10.85,1.48a65.28,65.28,0,0,1,20.22,2.79,42.29,42.29,0,0,1,15.78,9.54,49.93,49.93,0,0,1,12.49,17.42"/>
                <path class="cls-3 synapse" d="M446.77,3c-9.14,74.44-34.15,128-54.84,145.3a123,123,0,0,1-34.89,20A84.19,84.19,0,0,1,329.49,173c-10.88,0-17.83-2.31-21.41-3.72-4.53-1.79-9.54-3.84-13.24-9a22.51,22.51,0,0,1-3.88-9.85"/>
                <path class="cls-3 synapse" d="M322.58,3a228.46,228.46,0,0,1,29.34,58.07c4.46,13.4,6.64,24.41,5.82,36.9-.66,10.15-1.44,22.13-10.37,30.49-5.87,5.5-16.54,10.61-27.26,9.57-5.57-.53-11.83-2.79-19.5-.43a13.18,13.18,0,0,0-6.39,3.89,12.68,12.68,0,0,0-3,8.45"/>
                <path class="cls-3 synapse" d="M112.48,3a517,517,0,0,0-5.33,55.7,163.81,163.81,0,0,0,2.39,38.44c3.4,18.12,8,24.26,10.9,27.45,7.84,8.5,14.87,11.73,14.87,11.73,4.94,2.26,9.58,3.08,12.78,7.54a15.77,15.77,0,0,1,2.73,7.33"/>
                <path class="cls-3 synapse" d="M3.9,3c-1,8.91-1.35,16.75-.06,32.49,1.44,17.68,3.9,47.68,24.08,77a126,126,0,0,0,36.65,35.34,118.24,118.24,0,0,0,34.59,14.33c4.23,1.08,21.1,5.17,34.72,1.58,3-.79,8.74-2.37,13.48-7.41a23.73,23.73,0,0,0,3.47-4.74"/>
            </g>
            <path id="main-synapse" class="cls-3" d="M207.78,179.71V307.48A22.55,22.55,0,0,1,185.23,330H25.54A22.54,22.54,0,0,1,3,307.48v-4.85a22.54,22.54,0,0,1,22.54-22.54H37.15a22.54,22.54,0,0,1,22.54,22.54v65.26a22.54,22.54,0,0,1-22.54,22.54H25.54A22.54,22.54,0,0,0,3,413V926.66a22.55,22.55,0,0,0,22.54,22.55H73.45A22.54,22.54,0,0,1,96,971.75v45.87a22.54,22.54,0,0,1-22.54,22.54H25.54A22.54,22.54,0,0,1,3,1017.62H3a22.55,22.55,0,0,1,22.54-22.55H232.46a22.54,22.54,0,0,1,15.94,6.61l81.8,81.8"/>
        </g>
    </g>
</svg>