<svg xmlns="http://www.w3.org/2000/svg" viewBox="0 10 449.58 514.12">
    <defs>
        <style>.cls-1{fill:#fff;}.cls-2{fill:#104354;}.cls-3{fill:none;stroke:#fff;stroke-linecap:round;stroke-miterlimit:10;stroke-width:6px;}</style>
    </defs>
    <title>summary_animation_2_1</title>
    <g id="brain_heart">
        <path id="Heart" class="cls-1" d="M256.83,460.55c-1.62,5.2-6.82,9.91-11.36,13.31.65-5.35,6-26.13-13.47-57.79,0,0-.65,15.42-5.52,24.84C224.37,420.13,207,365.75,207,365.75s-18.51,63.63-19,75.16c-4.71-11.36-3.73-24.35-3.73-24.35-21.27,34.58-15.1,56.66-15.1,57.14v.49c-4.38-3.57-9.42-8.93-10.71-14.45,0,0-15.91,36,26.13,46.92l23.54,7.46,22.4-7.14C272.42,499.84,256.83,460.55,256.83,460.55Zm-26.3,29.87c-4.87,5.69-19.31,16.4-20.29,16.89l-2.6,1.94-2.76-1.78c-.81-.65-15.25-11.2-20.29-16.88-4.71-5.52-7.14-11.69-7.14-18a16.3,16.3,0,0,1,5-12.18,16.54,16.54,0,0,1,14.45-4.71,19.63,19.63,0,0,1,10.55,5.52A19.66,19.66,0,0,1,218,455.68a16.38,16.38,0,0,1,14.45,4.71,16.55,16.55,0,0,1,5,12.18C237.84,478.9,235.24,485.07,230.53,490.42Z"/>
        <g id="plain_brain">
            <path class="cls-2" d="M151.85,220.12a1.82,1.82,0,0,1-1.35-.54l0,0a1.94,1.94,0,0,1-.72-1.48v0a21.73,21.73,0,0,1,2.77-11.62l.1-.15a26.06,26.06,0,0,1,8-9c5.74-4.2,13.2-6.43,22.16-6.65h.93a82,82,0,0,1,10.45.74c2.64.35,6.36,1,11.06,1.93a2.1,2.1,0,0,1,1.7,2.54,2.34,2.34,0,0,1-.9,1.44,2.15,2.15,0,0,1-1.16.35,2.61,2.61,0,0,1-.48,0c-4.54-.88-8.17-1.51-10.79-1.87a72,72,0,0,0-9.39-.68h-1.34c-7.89.17-14.52,2.12-19.69,5.79a22.7,22.7,0,0,0-6.73,7.55,18.38,18.38,0,0,0-2.3,9.45v0a1.9,1.9,0,0,1-.57,1.53h0a2,2,0,0,1-1.49.69h-.2Z"/>
            <path class="cls-2" d="M158.78,224.6a2.7,2.7,0,0,1-.48,0,2.07,2.07,0,0,1-1.38-.91h0a2.14,2.14,0,0,1-.36-1.66,16.9,16.9,0,0,1,3.14-6.72.69.69,0,0,0,.1-.19,22.15,22.15,0,0,1,5.21-4.85,33.43,33.43,0,0,1,13.06-4.77,55.32,55.32,0,0,1,8.85-.73,53.52,53.52,0,0,1,16,2.48,2.09,2.09,0,0,1,1.31,1.07,2.16,2.16,0,0,1-1,3,2.07,2.07,0,0,1-1,.28,1.9,1.9,0,0,1-.61-.1A48.58,48.58,0,0,0,187,209.11a50.75,50.75,0,0,0-8.19.68,28.83,28.83,0,0,0-11.35,4.07,16.79,16.79,0,0,0-4.07,3.8,1.07,1.07,0,0,0-.18.19,13.46,13.46,0,0,0-2.3,5,2.29,2.29,0,0,1-1,1.4A2.14,2.14,0,0,1,158.78,224.6Z"/>
            <path class="cls-2" d="M273.86,216.29a2.17,2.17,0,0,1-1.38-.48,2,2,0,0,1-.81-1.46v0a1.93,1.93,0,0,1,.45-1.56l0,0c2.64-3.42,4.17-8.29,4.54-14.49S276.14,187,274,183.19h0a2,2,0,0,1-.24-1.64,2.19,2.19,0,0,1,1-1.38h0a1.72,1.72,0,0,1,1-.29,2.06,2.06,0,0,1,.63.1h.05a2.08,2.08,0,0,1,1.35,1c2.62,4.38,3.73,10.28,3.3,17.52s-2.32,13-5.53,16.93l0,0a1.86,1.86,0,0,1-1.41.79Z"/>
            <path class="cls-2" d="M299.5,209.37a2.46,2.46,0,0,1-.53-.06,2,2,0,0,1-1.35-1v0a2.08,2.08,0,0,1-.3-1.65,28.53,28.53,0,0,0-3.72-21.62,2,2,0,0,1-.29-1.6v0a2,2,0,0,1,.91-1.37,2.08,2.08,0,0,1,1.14-.35,2.2,2.2,0,0,1,.5.06h0a2.08,2.08,0,0,1,1.38,1,32.48,32.48,0,0,1,4.33,25,2.08,2.08,0,0,1-1,1.35,2.12,2.12,0,0,1-1.12.32Z"/>
            <path class="cls-2" d="M124.05,172.35a90.78,90.78,0,0,1-10.08-.63.86.86,0,0,0-.36-.07h0c-5.84-.85-10.12-1.45-12.72-1.77a2.06,2.06,0,0,1-1.44-.84,2.2,2.2,0,0,1-.47-1.6,2.16,2.16,0,0,1,.84-1.47,2.07,2.07,0,0,1,1.3-.46l.32,0c2.63.32,6.93.92,12.79,1.77h0a88.39,88.39,0,0,0,10,.64c1.13,0,2.23,0,3.25-.09,9.43-.63,16.39-4.45,20.7-11.35a.94.94,0,0,0,.13-.41,6.47,6.47,0,0,0-1-4,.58.58,0,0,0-.11-.15,12.27,12.27,0,0,0-3.64-3.83l-.14-.08c-.23-.11-2.05-1.09-9.27-5.05-5.13-2.85-8.67-5.18-10.52-6.94a1.19,1.19,0,0,0-.15-.18A59.64,59.64,0,0,1,111.93,121a.91.91,0,0,0-.11-.16,36.3,36.3,0,0,1-4-18.16,2.16,2.16,0,0,1,.73-1.51h0a2,2,0,0,1,1.46-.57h.09a2,2,0,0,1,1.49.69v0a2,2,0,0,1,.61,1.55A31.67,31.67,0,0,0,115.8,119a56.87,56.87,0,0,0,10.79,13.79h0c1.75,1.64,4.93,3.73,9.73,6.38,7.51,4.14,9.28,5.1,9.75,5.35a16.43,16.43,0,0,1,5.13,5.49,10.18,10.18,0,0,1,1.35,7.63s0,0,0,.06l-.05.32s-.16.27-.17.27a26.32,26.32,0,0,1-9.81,9.89,34.13,34.13,0,0,1-14.72,4.07c-1.18.08-2.44.12-3.76.12Z"/>
            <path class="cls-2" d="M165.5,162.39a29.49,29.49,0,0,1-15.57-4.32,2.15,2.15,0,0,1-1-1.36v0a1.89,1.89,0,0,1,.25-1.61l0,0A2.08,2.08,0,0,1,151,154a2.1,2.1,0,0,1,1.14.36h0A26.13,26.13,0,0,0,165.65,158a34,34,0,0,0,8.17-1.06,2.46,2.46,0,0,1,.53-.06,2.17,2.17,0,0,1,1.13.33,1.93,1.93,0,0,1,1,1.31v0a2.07,2.07,0,0,1-.22,1.67,2.15,2.15,0,0,1-1.36,1h0a39.25,39.25,0,0,1-9.37,1.21Z"/>
            <path class="cls-2" d="M327.93,181A52.53,52.53,0,0,1,307,177c-7.42-3.21-12.64-7.23-15.52-11.94a18.54,18.54,0,0,1-2.84-10,14,14,0,0,1,3.71-9.82l0,0c2.76-3.14,7.11-4.84,12.93-5,.46,0,1,0,1.51,0,2.89,0,7,.24,12.12.72H319c.64,0,1.29,0,1.92,0a39.7,39.7,0,0,0,18.2-4.1,27.27,27.27,0,0,0,13.21-14.41c2.63-6.66,3.61-15.87,2.92-27.39s-2.66-20.49-5.92-27.05a2.09,2.09,0,0,1-.12-1.68,2.28,2.28,0,0,1,1.12-1.29,2.13,2.13,0,0,1,.93-.23,2.18,2.18,0,0,1,.69.12,2.27,2.27,0,0,1,1.33,1.12c3.53,6.9,5.68,16.58,6.38,28.75.73,12.36-.36,22.21-3.24,29.26a31.57,31.57,0,0,1-15.26,16.67A43.55,43.55,0,0,1,321,145.2h0c-.72,0-1.46,0-2.19,0h-.12c-4.94-.46-8.87-.69-11.67-.69q-.86,0-1.59,0c-4.3.12-7.61,1.34-9.84,3.63l0,0A9.93,9.93,0,0,0,293,155a14.17,14.17,0,0,0,2.16,7.69v0c2.6,4,7.15,7.45,13.52,10.18a47.8,47.8,0,0,0,19.12,3.67c1.3,0,2.64,0,4-.12A111.22,111.22,0,0,0,356,171.91h0a2.1,2.1,0,0,1,.64-.11,1.85,1.85,0,0,1,.94.27l0,0a2.28,2.28,0,0,1,1.09,1.32,2,2,0,0,1-.21,1.65,2.13,2.13,0,0,1-1.31,1.06,112.78,112.78,0,0,1-25.11,4.75C330.66,180.94,329.27,181,327.93,181Z"/>
            <path class="cls-2" d="M312.06,102.41a2.39,2.39,0,0,1-2-1.14c-7.58-13.91-17.22-22.48-28.64-25.45h0a86,86,0,0,0-14.26-1.76c-6.43-.36-11.06-.92-13.77-1.67A14.06,14.06,0,0,1,245.17,66a1,1,0,0,0-.13-.16,21,21,0,0,1-3.2-9.54c-.34-3.38.45-7.77,2.35-13.07,2.07-5.73,4.44-9.52,7-11.27l0,0a2,2,0,0,1,1.22-.4l.4,0a2.15,2.15,0,0,1,1.83,2.53,2.08,2.08,0,0,1-.87,1.41l0,0c-2.06,1.61-3.86,4.63-5.51,9.22s-2.3,8.2-2.07,11.13a16.45,16.45,0,0,0,2.63,7.79,10.15,10.15,0,0,0,5.64,4.52l.16,0a73.73,73.73,0,0,0,12.78,1.49,89.45,89.45,0,0,1,15.07,1.87,40.8,40.8,0,0,1,17.26,9.16,67,67,0,0,1,14.16,18.43l0,0a1.89,1.89,0,0,1,.16,1.64h0a2.13,2.13,0,0,1-1.05,1.31,1.9,1.9,0,0,1-1,.27Z"/>
            <path class="cls-2" d="M189.72,85.24a30.38,30.38,0,0,1-4.81-.39,29,29,0,0,1-12.8-5.52,28,28,0,0,1-8.51-11,27.33,27.33,0,0,1-2.49-13.68,2.19,2.19,0,0,1,.76-1.51,1.93,1.93,0,0,1,1.34-.53h.22a2.33,2.33,0,0,1,1.54.76,2.2,2.2,0,0,1,.51,1.59,23.08,23.08,0,0,0,2.05,11.44.52.52,0,0,0,.06.16,24,24,0,0,0,7.06,9.13,1.14,1.14,0,0,0,.16.15A23.41,23.41,0,0,0,185.6,80.5a26.14,26.14,0,0,0,4.1.33,23.86,23.86,0,0,0,7.72-1.28c5.12-1.78,12.78-6,22.76-12.45,11.17-7.28,18.68-12.72,21.56-17.33a6.21,6.21,0,0,0,.91-1.71c.12-.28.28-.67.44-1a2.94,2.94,0,0,0,1.06,1.44,2.1,2.1,0,0,1,1,1.33,2.23,2.23,0,0,1-.2,1.7c-2.77,4.91-10.32,11.38-22.42,19.22-10.43,6.78-18.41,11.14-23.71,13a28.41,28.41,0,0,1-9.12,1.51Z"/>
            <path class="cls-2" d="M251,158.37a2.13,2.13,0,0,1-.61-.08,2.17,2.17,0,0,1-1.34-1,2.19,2.19,0,0,1,.79-3,42.54,42.54,0,0,1,20.42-5.78c.51,0,1,0,1.54,0A41.93,41.93,0,0,1,290.94,153a2.07,2.07,0,0,1,1.1,1.27,2.25,2.25,0,0,1-.12,1.65,2,2,0,0,1-1.25,1.09h0a2.65,2.65,0,0,1-.77.13A2.2,2.2,0,0,1,289,157a38.12,38.12,0,0,0-17.35-4.08l-1.27,0a38,38,0,0,0-18.28,5.2,2.26,2.26,0,0,1-1.08.28Z"/>
            <path class="cls-2" d="M119.14,154.8a2.39,2.39,0,0,1-.73-.13c-3.26-1.06-7.13-3.46-11.51-7.14a74.59,74.59,0,0,1-9.42-9.5,2,2,0,0,1-.46-1.6v0a2,2,0,0,1,.78-1.48,1.87,1.87,0,0,1,1.25-.47,1.51,1.51,0,0,1,.3,0h0a2.27,2.27,0,0,1,1.53.79,66.77,66.77,0,0,0,8.83,8.91,35.51,35.51,0,0,0,10.07,6.36h0a2.07,2.07,0,0,1,1.24,1.1,2,2,0,0,1,.12,1.63,2.23,2.23,0,0,1-2.06,1.53Z"/>
            <path class="cls-2" d="M265.24,217.59a78.5,78.5,0,0,1-15.83-1.31,49.54,49.54,0,0,1-28.29-17.5,2,2,0,0,1,.3-2.92l0,0a1.82,1.82,0,0,1,1.25-.46h.24a2.06,2.06,0,0,1,1.4.79,45.26,45.26,0,0,0,25.95,16,76.2,76.2,0,0,0,15.19,1.25c4.14,0,8.87-.19,14-.57a51.58,51.58,0,0,0,14-3.16l.17-.08a56.07,56.07,0,0,0,12.47-6.79,32.17,32.17,0,0,0,9.19-10.38c0-.07.06-.13.08-.19a25.32,25.32,0,0,0,3.08-11.75l4.19-.2a29,29,0,0,1-3.74,14.14,35.78,35.78,0,0,1-10.36,11.72,59.84,59.84,0,0,1-13.64,7.43,54.66,54.66,0,0,1-15.11,3.4C274.45,217.39,269.55,217.59,265.24,217.59Z"/>
            <path class="cls-2" d="M268.4,54.24a2.28,2.28,0,0,1-.45,0h0a1.83,1.83,0,0,1-1.35-.87,2.1,2.1,0,0,1-.36-1.66h0c1.09-5.91,2.68-10.09,4.72-12.41a.76.76,0,0,0,.21-.19c2.36-2.92,6.47-4.68,12.21-5.23h.24a2.2,2.2,0,0,1,1.4.51,2.11,2.11,0,0,1,.81,1.43,2.32,2.32,0,0,1-.54,1.63,2.24,2.24,0,0,1-1.48.82c-4.26.4-7.4,1.66-9.34,3.71l0,.06c-1.69,2.07-2.95,5.5-3.87,10.49a2.16,2.16,0,0,1-.94,1.39A2.06,2.06,0,0,1,268.4,54.24Z"/>
            <path class="cls-2" d="M185.47,65.85a2.34,2.34,0,0,1-.73-.13,1.94,1.94,0,0,1-1.23-1.11l0,0a2.09,2.09,0,0,1-.11-1.68,2,2,0,0,1,1.12-1.22c.57-.26,4.94-2.34,13.35-6.37,5.3-2.55,9.75-4.72,13.23-6.45,5.1-2.61,8.33-5,9.9-7.16,0,0,.05-.09.08-.14A3.34,3.34,0,0,0,220,37.39a1.93,1.93,0,0,1-.71-1.47v0a2.19,2.19,0,0,1,.52-1.61,1.93,1.93,0,0,1,1.47-.7h.28a1.93,1.93,0,0,1,1.34.53A8.66,8.66,0,0,1,226,38.87a6.84,6.84,0,0,1-1.31,5l0,.05c-1.58,2.74-5.49,5.71-11.63,8.8-3.48,1.74-7.9,3.9-13.16,6.42a.49.49,0,0,0-.17.06c-8.29,4-12.78,6.12-13.35,6.41A2.19,2.19,0,0,1,185.47,65.85Z"/>
            <path class="cls-2" d="M185.13,144.82a48,48,0,0,1-16.81-3.52,55.62,55.62,0,0,1-13.45-7.4,37.14,37.14,0,0,1-9.8-10.19c-4.4-7-7.35-16.15-8.75-27.23-1.41-10.76-1-20.39,1.13-28.63a2.27,2.27,0,0,1,1.06-1.35h0a2,2,0,0,1,1-.3,2.46,2.46,0,0,1,.59.08,2.1,2.1,0,0,1,1.33,1h0a2.06,2.06,0,0,1,.22,1.68c-2,7.79-2.36,16.86-1.05,27,1.3,10.31,4,18.86,8.1,25.42a34.93,34.93,0,0,0,8.71,9,52.64,52.64,0,0,0,12.41,6.82A42.5,42.5,0,0,0,185,140.35a24.24,24.24,0,0,0,10-2l0,0c3.53-1.72,7.41-4.74,11.54-9,1.17-1.22,2.92-3.1,5.21-5.61a.86.86,0,0,0,.18-.14c2.2-2.37,4.12-4.28,5.72-5.68,10.53-9.28,21.73-15.63,33.3-18.85a63.64,63.64,0,0,1,17.25-2.48c1.58,0,3.18.07,4.74.2a61.22,61.22,0,0,1,11.94,1.74l.15,0A22.93,22.93,0,0,1,295,105a.8.8,0,0,0,.13.19c1.95,2.14,4.27,4.71,6.9,7.64l.05.06a26.75,26.75,0,0,0,8.05,5,14.7,14.7,0,0,0,5.85,1.25,15.33,15.33,0,0,0,6.39-1.47,13.82,13.82,0,0,0,7.86-9.19,24,24,0,0,0,.34-11.71v0a41.23,41.23,0,0,0-5.49-11.3,75.6,75.6,0,0,0-34.39-28.74,2.05,2.05,0,0,1-1.19-1.19,2.14,2.14,0,0,1,0-1.72h0a1.94,1.94,0,0,1,1.18-1.13l0,0a1.84,1.84,0,0,1,.77-.18,2,2,0,0,1,.81.18l0,0a80.24,80.24,0,0,1,36.46,30.42c3.15,4.9,5.18,9.13,6,12.57a27.56,27.56,0,0,1-.37,14,17.77,17.77,0,0,1-10.24,12,19.68,19.68,0,0,1-8.29,1.94,19,19,0,0,1-7.55-1.63,32.29,32.29,0,0,1-9.31-5.85l-.12-.15,0,0-7-7.81a18.18,18.18,0,0,0-8.32-5.39,58,58,0,0,0-11-1.57h-.07c-1.43-.12-2.88-.18-4.32-.18a58.22,58.22,0,0,0-16.1,2.36c-11,3-21.59,9.07-31.6,17.88-1.53,1.37-3.35,3.16-5.43,5.35a.8.8,0,0,0-.15.21c-2.29,2.49-4,4.38-5.25,5.61-4.59,4.74-8.9,8.08-12.83,9.93A26.8,26.8,0,0,1,185.13,144.82Z"/>
            <path class="cls-2" d="M188.32,108.76a20.6,20.6,0,0,1-8.15-1.54h0a114.32,114.32,0,0,1-12.74-5.78,1,1,0,0,0-.16-.12c-5.19-3-8.59-6.17-10.1-9.53l0,0a2,2,0,0,1-.08-1.66v0a2.21,2.21,0,0,1,2-1.44,2.25,2.25,0,0,1,.75.14h0a2.06,2.06,0,0,1,1.25,1.1h0c1.38,2.64,4.12,5.16,8.14,7.5a.75.75,0,0,0,.2.15,97,97,0,0,0,12.36,5.6h0a19.38,19.38,0,0,0,6.68,1.1c5.82,0,13.07-2.12,21.54-6.31a103.44,103.44,0,0,0,14.09-8.42,56,56,0,0,0,9-7.7,1.94,1.94,0,0,1,1.48-.72h.28a2,2,0,0,1,1.35.52,2.2,2.2,0,0,1,.75,1.48,2.27,2.27,0,0,1-.53,1.64,61,61,0,0,1-9.78,8.39,106.57,106.57,0,0,1-14.74,8.76l-.16.1C202.57,106.47,194.69,108.76,188.32,108.76Z"/>
            <path class="cls-2" d="M182.35,127.6a1.93,1.93,0,0,1-.86-.2,2.22,2.22,0,0,1-1.18-1.28,2.15,2.15,0,0,1,.09-1.65c1.48-3.28,1.49-7.09,0-11.36s-3.78-7-6.9-8.25h0a2.13,2.13,0,0,1-1.21-1.13,2.06,2.06,0,0,1,0-1.7s0,0,0,0a1.92,1.92,0,0,1,1.11-1.19,2.23,2.23,0,0,1,1-.22,2.29,2.29,0,0,1,.76.13c4.27,1.49,7.45,5.19,9.46,11,1.89,5.54,1.82,10.45-.21,14.61a2.26,2.26,0,0,1-1.26,1.15,2.08,2.08,0,0,1-.76.14Z"/>
            <path class="cls-2" d="M205.41,189.19a2,2,0,0,1,.66-1.51l0,0a2,2,0,0,1,1.51-.66,2.16,2.16,0,0,1,1.57.67,2.06,2.06,0,0,1,.63,1.53V259.6a1,1,0,0,0,.94.93h.13a23.8,23.8,0,0,0,9.5-3.53l.14-.08a23.55,23.55,0,0,0,8.69-10.32,1.09,1.09,0,0,0,0-.17c.48-1.07,1-2.26,1.49-3.54a1.09,1.09,0,0,0,.05-.17c.74-1.87,2-4.7,3.77-8.41,1.55-3.24,2.63-5.71,3.22-7.36a19.16,19.16,0,0,0-.31-14.24h0a2.05,2.05,0,0,1-.06-1.68,1.9,1.9,0,0,1,1.13-1.2l0,0a1.93,1.93,0,0,1,.83-.19,2.27,2.27,0,0,1,.82.17h0a2.08,2.08,0,0,1,1.21,1.17,22.88,22.88,0,0,1,.47,17.44c-.61,1.72-1.73,4.29-3.34,7.64l-.09.16c-1.74,3.61-3,6.39-3.67,8.26-.49,1.33-1,2.57-1.5,3.71a.56.56,0,0,0-.09.17,27.77,27.77,0,0,1-25.63,16.79l-2.2.05Z"/>
            <path class="cls-2" d="M177.59,235a33.34,33.34,0,0,1-10.79-1.7,29.33,29.33,0,0,1-13.1-8.94l0,0,0,0A29.57,29.57,0,0,1,146.76,210v0a29.37,29.37,0,0,1,1.37-15.82,30.18,30.18,0,0,1,9.05-13,2,2,0,0,1,1.35-.5h.27a2,2,0,0,1,1.49.73,2.1,2.1,0,0,1,.49,1.59,2.15,2.15,0,0,1-.79,1.52,25.8,25.8,0,0,0-7.65,11l-.07.15a26,26,0,0,0,15.91,33.39,29.77,29.77,0,0,0,9.52,1.49,42.6,42.6,0,0,0,9.59-1.17,121.76,121.76,0,0,0,19.54-7,2.12,2.12,0,0,1,.92-.21,2.16,2.16,0,0,1,2,1.29,2.32,2.32,0,0,1,0,1.72,2.27,2.27,0,0,1-1.17,1.19c-8.44,3.7-15.28,6.17-20.32,7.34A49.16,49.16,0,0,1,177.59,235Z"/>
            <path class="cls-2" d="M240.57,199a10.5,10.5,0,0,1-8.45-3.88l0,0c-2.93-3.23-3.62-7.11-2.11-11.85a.9.9,0,0,0,.12-.24c1.62-4.79,4.5-7.55,8.8-8.41l.13,0a11.8,11.8,0,0,1,2.46-.27c3.32,0,6.26,1.51,9,4.6a1.29,1.29,0,0,0,.17.16c3.26,3.81,4.13,7.66,2.66,11.76v0c-1.36,4.23-4.45,6.78-9.45,7.79a16.93,16.93,0,0,1-3.3.35Zm.64-20.22a7.2,7.2,0,0,0-1.29.12h0c-2.73.63-4.63,2.49-5.64,5.53s-.62,5.63,1.16,7.76l0,0a7.09,7.09,0,0,0,5.43,2.33,10.84,10.84,0,0,0,2.14-.23,7.53,7.53,0,0,0,6.05-4.65,1,1,0,0,0,.16-.3c.78-2.63.12-5.17-2-7.57h0A8,8,0,0,0,241.21,178.73Z"/>
            <path class="cls-2" d="M195.31,174.46a2.33,2.33,0,0,1-1.13-.3,1.94,1.94,0,0,1-1-1.3v0a2.14,2.14,0,0,1,.2-1.66,1.91,1.91,0,0,1,1.29-1h0a47,47,0,0,0,15.22-7.5h0a96.83,96.83,0,0,0,12.19-11.39c2.52-2.77,6.24-6.91,11.07-12.31l.07-.08a60.28,60.28,0,0,1,12.32-10.25A37.42,37.42,0,0,1,259,123.88a39.79,39.79,0,0,1,5.93-.46,36.89,36.89,0,0,1,8.3,1,2.06,2.06,0,0,1,1.36,1,2.2,2.2,0,0,1-.74,3h0a2,2,0,0,1-1.12.35,2.44,2.44,0,0,1-.52-.06,32.65,32.65,0,0,0-7.31-.83,35.31,35.31,0,0,0-5.19.4,33.82,33.82,0,0,0-11.86,4.21,56.24,56.24,0,0,0-11.31,9.41l0,0c-4.86,5.43-8.61,9.58-11.15,12.34a96,96,0,0,1-12.8,11.95,1,1,0,0,0-.18.17,50.11,50.11,0,0,1-16.51,8.06A2.72,2.72,0,0,1,195.31,174.46Z"/>
            <path class="cls-2" d="M131.44,196.84a46.89,46.89,0,0,1-13.58-2.55,25.52,25.52,0,0,1-13.43-9.66c-3.46-4.77-5.93-11.21-7.33-19.11-2.09-11.81-1.66-25.05,1.28-39.36A95.52,95.52,0,0,1,115,89.38,125.67,125.67,0,0,1,145.47,60,163.13,163.13,0,0,1,186,39.85a178.05,178.05,0,0,1,46.45-9.08c4.53-.27,9.08-.41,13.51-.41a193.52,193.52,0,0,1,56.52,8.13,158.72,158.72,0,0,1,28.43,11.66,132,132,0,0,1,23.83,16.21l.18.13a108,108,0,0,1,17.73,19.36,87.57,87.57,0,0,1,11.23,21.88,73.87,73.87,0,0,1,.29,47.87v0c-1.9,6.45-8.68,12.54-20.17,18.09a106,106,0,0,1-31.54,9.5,191,191,0,0,1-26.53,1.86,198.89,198.89,0,0,1-22-1.24c-4.73-.54-11.65-1.53-20.59-3l-.1,0c-9.08-1.45-16.08-2.47-20.81-3a.82.82,0,0,0-.35-.08c-8.9-1.15-15.41-2-19.36-2.4a.72.72,0,0,0-.25-.07c-6.56-.83-12.08-1.3-16.42-1.41-.63,0-1.26,0-1.89,0a95.43,95.43,0,0,0-31.67,5.73l-.15,0a119.66,119.66,0,0,0-17.58,7.75c-3,1.62-6.75,3.73-11.18,6.29l-.05,0-.07.05a26.31,26.31,0,0,1-10.76,3.06h0C132.26,196.83,131.85,196.84,131.44,196.84ZM246,34.77c-4.38,0-8.87.14-13.36.41A172.14,172.14,0,0,0,187.35,44,157.52,157.52,0,0,0,148,63.6,122.59,122.59,0,0,0,118.48,92,90.28,90.28,0,0,0,102.7,127c-2.85,13.68-3.28,26.38-1.29,37.74,2.4,13.6,8.37,22.12,17.77,25.31h0a43.19,43.19,0,0,0,12.56,2.37h.71a23.52,23.52,0,0,0,8.87-2.53l0,0c4.44-2.58,8.21-4.71,11.22-6.35a120.66,120.66,0,0,1,18.25-8.08,99.43,99.43,0,0,1,33-6c.75,0,1.51,0,2.26,0,4.44.11,10.12.59,16.89,1.44,3.95.47,10.56,1.3,19.66,2.48,4.77.57,11.9,1.61,21.21,3.09,8.92,1.43,15.83,2.42,20.54,2.94h.09A194.58,194.58,0,0,0,306,180.68a187.31,187.31,0,0,0,25.84-1.8,102,102,0,0,0,30.23-9.13C372,165,378,159.77,380,154.26v0a69.33,69.33,0,0,0-.3-45.05c-5-14.64-14.36-27.92-27.79-39.49-13.89-11.91-30.93-21-50.66-27A189.74,189.74,0,0,0,246,34.77Z"/>
        </g>
        <g id="neurones">
            <path class="cls-1" d="M249.8,162.8a6.5,6.5,0,1,1,6.5-6.5A6.51,6.51,0,0,1,249.8,162.8Z"/>
            <path class="cls-1" d="M312.45,108.91a6.5,6.5,0,1,1,6.5-6.5A6.5,6.5,0,0,1,312.45,108.91Z"/>
            <path class="cls-1" d="M243.42,57.91a6.5,6.5,0,1,1,6.5-6.5A6.51,6.51,0,0,1,243.42,57.91Z"/>
            <path class="cls-1" d="M207.59,191.49a6.5,6.5,0,1,1,6.5-6.5A6.51,6.51,0,0,1,207.59,191.49Z"/>
            <circle class="cls-1" cx="175.92" cy="159.02" r="6.5"/>
        </g>
        <g id="synapses">
            <path class="cls-3" d="M151.38,156.37a38.84,38.84,0,0,0,8.59,2.91,39.57,39.57,0,0,0,16.17,0"/>
            <path class="cls-3" d="M249,157.31a43.24,43.24,0,0,1,41.5-2.16"/>
            <path class="cls-3" d="M167.76,8.27c-2.57,22.58-4,39.61-4.34,46.88a26.16,26.16,0,0,0,1.05,9,27,27,0,0,0,5.16,9.25A26.18,26.18,0,0,0,179.72,81c9.18,3.78,17.95.68,21.65-.63,1-.34,2.8-1,8.41-4.2,2.48-1.41,4.69-2.71,6.8-4,4.43-2.74,7.79-4.81,12-8,3.48-2.6,6.06-4.84,7.35-6,2.55-2.25,4.72-4.38,6.52-6.24"/>
            <path class="cls-3" d="M258.61,8.27c-1,15.35-4.76,23.19-8.13,27.53A29,29,0,0,0,246,43.19,25.34,25.34,0,0,0,244.23,57a16.85,16.85,0,0,0,3.62,8.88,15.64,15.64,0,0,0,5.26,3.94c4.25,2,8.17,1.6,10.84,1.48a65.12,65.12,0,0,1,20.22,2.8A42.16,42.16,0,0,1,300,83.63a50.12,50.12,0,0,1,12.5,17.42"/>
            <path class="cls-3" d="M290.77,155.69a22.59,22.59,0,0,0,3.88,9.86c3.7,5.2,8.71,7.25,13.25,9,3.57,1.41,10.52,3.69,21.4,3.71a84.38,84.38,0,0,0,27.55-4.76,122.87,122.87,0,0,0,34.89-20c20.69-17.28,45.7-70.86,54.84-145.3"/>
            <path class="cls-3" d="M291,155.21a12.69,12.69,0,0,1,3-8.45,13.21,13.21,0,0,1,6.39-3.88c7.67-2.37,13.93-.11,19.5.43,10.72,1,21.39-4.08,27.26-9.58,8.93-8.35,9.71-20.33,10.37-30.49.82-12.49-1.36-23.5-5.82-36.9A228.62,228.62,0,0,0,322.39,8.27"/>
            <path class="cls-3" d="M150.63,156.47a15.69,15.69,0,0,0-2.73-7.34c-3.2-4.46-7.84-5.27-12.78-7.54,0,0-7-3.22-14.87-11.73-2.94-3.19-7.5-9.33-10.9-27.45A163.81,163.81,0,0,1,107,64a517.44,517.44,0,0,1,5.33-55.7"/>
            <path class="cls-3" d="M150.64,156.87a23.45,23.45,0,0,1-3.47,4.74c-4.73,5-10.48,6.62-13.48,7.41-13.62,3.6-30.49-.5-34.72-1.58a118.14,118.14,0,0,1-34.59-14.32,126.33,126.33,0,0,1-36.65-35.35C7.55,88.44,5.1,58.44,3.65,40.76A194.45,194.45,0,0,1,4.24,3"/>
            <line class="cls-3" x1="207.59" y1="189.34" x2="207.59" y2="419.94"/>
        </g>
    </g>
</svg>