<svg xmlns="http://www.w3.org/2000/svg" viewBox="0 0 1644.81 1024.39">
    <defs>
        <style>.cls-1{fill:#fff;}.cls-2{fill:#104354;}.cls-3,.cls-4,.cls-5,.cls-6{fill:none;stroke:#fff;stroke-miterlimit:10;}.cls-3,.cls-4,.cls-5{stroke-width:9px;}.cls-4{stroke-linecap:round;}.cls-5{stroke-linecap:square;}</style>
    </defs>
    <title>summary_animation</title>
    <g id="Calque_2" data-name="Calque 2">
        <g id="Calque_2-2" data-name="Calque 2">
            <path class="cls-1" d="M968.58,324.66a1.5,1.5,0,0,0,0-3,1.5,1.5,0,0,0,0,3Z"/>
            <path class="cls-1" d="M1301,522.87c-1.62,5.19-6.82,9.9-11.36,13.31.65-5.36,6-26.14-13.48-57.79,0,0-.65,15.42-5.52,24.84-2.11-20.78-19.48-75.17-19.48-75.17s-18.5,63.64-19,75.17c-4.71-11.37-3.73-24.35-3.73-24.35-21.27,34.57-15.1,56.65-15.1,57.14v.48c-4.38-3.57-9.42-8.92-10.72-14.44,0,0-15.91,36,26.14,46.91l23.54,7.47,22.4-7.14C1316.57,562.15,1301,522.87,1301,522.87Zm-26.3,29.87c-4.87,5.68-19.32,16.39-20.29,16.88l-2.6,2-2.76-1.79c-.81-.65-15.26-11.2-20.29-16.88-4.71-5.52-7.14-11.69-7.14-18a16.28,16.28,0,0,1,5-12.17,16.54,16.54,0,0,1,14.45-4.71,19.66,19.66,0,0,1,10.55,5.52,19.66,19.66,0,0,1,10.55-5.52,17,17,0,0,1,19.48,16.88C1282,541.21,1279.4,547.38,1274.69,552.74Z"/>
            <path class="cls-2" d="M77.79,15.26A10.82,10.82,0,0,1,67,4.46a10.16,10.16,0,0,1,.13-1.64c1.21,0,2.42,0,3.61,0,6,0,12,.18,17.81.53A10.79,10.79,0,0,1,77.79,15.26Z"/>
            <path class="cls-2" d="M19.86,227.07a3.25,3.25,0,0,1-1.24,2,2.65,2.65,0,0,1-.81.36,2.54,2.54,0,0,1-.78.11,3.66,3.66,0,0,1-.65-.06c-3-.57-5.68-1.08-8.07-1.49v-6.1c2.67.46,5.75,1,9.22,1.72l.28.07a2.87,2.87,0,0,1,2.05,3.42Z"/>
            <path class="cls-2" d="M16.38,246.36a3.06,3.06,0,0,1-1.53,1.75,2.9,2.9,0,0,1-1.4.38,2.83,2.83,0,0,1-.85-.13q-2.13-.68-4.29-1.2V241c2,.45,4.06,1,6.08,1.62a2.85,2.85,0,0,1,1.79,1.46A3,3,0,0,1,16.38,246.36Z"/>
            <path class="cls-2" d="M111.73,255.07a2.91,2.91,0,0,1-1.89-.65,2.77,2.77,0,0,1-1.11-2v0a2.58,2.58,0,0,1,.62-2.13l0,0c3.62-4.68,5.71-11.37,6.21-19.87s-.73-15.44-3.67-20.66l0,0a2.79,2.79,0,0,1-.32-2.25,3,3,0,0,1,1.4-1.89h0a2.5,2.5,0,0,1,1.33-.39,3.09,3.09,0,0,1,.87.14h.07a2.81,2.81,0,0,1,1.85,1.4c3.59,6,5.11,14.1,4.53,24s-3.18,17.88-7.59,23.24l0,0a2.62,2.62,0,0,1-1.94,1.08Z"/>
            <path class="cls-2" d="M146.9,245.59a3,3,0,0,1-.72-.09,2.73,2.73,0,0,1-1.86-1.33v0a2.8,2.8,0,0,1-.41-2.25,39.07,39.07,0,0,0-5.1-29.67,2.64,2.64,0,0,1-.39-2.19V210a2.72,2.72,0,0,1,1.24-1.88,2.84,2.84,0,0,1,1.56-.48,3.4,3.4,0,0,1,.69.08h0a2.91,2.91,0,0,1,1.9,1.32,44.66,44.66,0,0,1,5.94,34.26,2.89,2.89,0,0,1-1.34,1.86,3.09,3.09,0,0,1-1.55.44Z"/>
            <path class="cls-2" d="M185.91,206.64a72.08,72.08,0,0,1-28.75-5.51c-10.17-4.4-17.33-9.92-21.29-16.38A25.44,25.44,0,0,1,132,171a19.2,19.2,0,0,1,5.09-13.46l0,0c3.78-4.31,9.75-6.64,17.73-6.93.64,0,1.34,0,2.08,0,4,0,9.56.34,16.63,1h.07c.89,0,1.78.05,2.64.05a54.39,54.39,0,0,0,25-5.63,37.45,37.45,0,0,0,18.13-19.77c3.61-9.13,5-21.77,4-37.57-.91-15.63-3.65-28.11-8.13-37.11a2.82,2.82,0,0,1-.15-2.31,3.05,3.05,0,0,1,1.52-1.76,3,3,0,0,1,1.28-.32,2.88,2.88,0,0,1,.94.17,3.11,3.11,0,0,1,1.84,1.53c4.84,9.47,7.78,22.74,8.75,39.44,1,17-.49,30.47-4.44,40.14A43.27,43.27,0,0,1,204,151.23a59.58,59.58,0,0,1-27.65,6.32h0c-1,0-2,0-3-.05h-.16c-6.78-.62-12.17-.94-16-.94-.78,0-1.51,0-2.17,0-5.9.16-10.45,1.83-13.51,5l0,0A13.73,13.73,0,0,0,138,171a19.43,19.43,0,0,0,3,10.55l0,0c3.56,5.52,9.8,10.23,18.54,14a65.68,65.68,0,0,0,26.23,5c1.79,0,3.63-.06,5.47-.17,9.5-.53,20.63-2.63,33.1-6.23h.05a2.81,2.81,0,0,1,.88-.15,2.51,2.51,0,0,1,1.29.37l0,0a3.16,3.16,0,0,1,1.5,1.82,2.75,2.75,0,0,1-.29,2.26A2.93,2.93,0,0,1,226,200c-13,3.8-24.58,6-34.45,6.52C189.65,206.58,187.75,206.64,185.91,206.64Z"/>
            <path class="cls-2" d="M164.14,98.85a3.1,3.1,0,0,1-.88-.14,3,3,0,0,1-1.86-1.43C151,78.19,137.78,66.44,122.12,62.36h0a118.61,118.61,0,0,0-19.56-2.42c-8.83-.48-15.18-1.25-18.89-2.28-4.51-1.19-8.3-4.16-11.28-8.8a1,1,0,0,0-.18-.23,28.62,28.62,0,0,1-4.38-13.08c-.47-4.64.61-10.67,3.21-17.93,2.84-7.86,6.09-13.07,9.66-15.47l0,0a2.76,2.76,0,0,1,1.68-.56,5.29,5.29,0,0,1,.54,0,3.07,3.07,0,0,1,2,1.2,3,3,0,0,1,.5,2.27A2.81,2.81,0,0,1,84.26,7l-.05,0c-2.82,2.22-5.3,6.36-7.56,12.66C74.45,25.81,73.49,31,73.81,35a22.74,22.74,0,0,0,3.6,10.69,14,14,0,0,0,7.74,6.2l.23,0c3.57.92,9.3,1.59,17.52,2.05,8.91.52,15.87,1.39,20.68,2.57a56,56,0,0,1,23.68,12.57c7.18,6.29,13.71,14.79,19.43,25.29l0,0a2.61,2.61,0,0,1,.22,2.24v0a2.91,2.91,0,0,1-1.43,1.8,2.73,2.73,0,0,1-1.36.37Z"/>
            <path class="cls-2" d="M72.09,29.09c-.35.62-.75,1.25-1.21,1.91a39.83,39.83,0,0,1-3.13,3.82C62.43,40.6,53.59,47.51,41.34,55.44,27,64.75,16.07,70.73,8.8,73.22c-.16,0-.32.11-.49.15V67c7-2.69,17-8.25,29.78-16.55C53.41,40.42,63.71,33,67.66,26.63a8.9,8.9,0,0,0,1.25-2.35l.16-.38c.14-.31.29-.66.44-.95a4,4,0,0,0,1.46,2,3.74,3.74,0,0,1,.54.39,2.87,2.87,0,0,1,.86,1.44A3,3,0,0,1,72.09,29.09Z"/>
            <path class="cls-2" d="M80.34,175.62a3.46,3.46,0,0,1-.84-.11,2.94,2.94,0,0,1-2.15-3.65A2.91,2.91,0,0,1,78.74,170a58.38,58.38,0,0,1,28-7.93l2.12,0a57.57,57.57,0,0,1,26.28,6.19,2.84,2.84,0,0,1,1.51,1.74,3,3,0,0,1-.16,2.27,2.8,2.8,0,0,1-1.72,1.49h0a3.27,3.27,0,0,1-1,.18,2.94,2.94,0,0,1-1.27-.29,52.38,52.38,0,0,0-23.8-5.59l-1.74,0a52.25,52.25,0,0,0-25.07,7.14,3.19,3.19,0,0,1-1.49.39Z"/>
            <path class="cls-2" d="M78.72,183.59a10.81,10.81,0,1,1,10.81-10.81A10.82,10.82,0,0,1,78.72,183.59Z"/>
            <path class="cls-1" d="M77.79,15.47A11.18,11.18,0,0,1,66.63,4.3a9.8,9.8,0,0,1,.14-1.69c1.24,0,2.49,0,3.72,0,6.23,0,12.41.18,18.41.55A11.41,11.41,0,0,1,89,4.3,11.18,11.18,0,0,1,77.79,15.47Z"/>
            <path class="cls-2" d="M99.9,256.86a108,108,0,0,1-21.72-1.8c-15.24-3.24-28.3-11.32-38.81-24a2.81,2.81,0,0,1,.42-4s0,0,0,0a2.48,2.48,0,0,1,1.71-.63h.33a2.81,2.81,0,0,1,1.92,1.08c9.6,11.61,21.59,19,35.61,22a104.28,104.28,0,0,0,20.83,1.72c5.69,0,12.17-.27,19.25-.79A70.66,70.66,0,0,0,138.64,246a1.33,1.33,0,0,0,.24-.11A76.65,76.65,0,0,0,156,236.61a44,44,0,0,0,12.6-14.24,2,2,0,0,0,.12-.26A34.92,34.92,0,0,0,172.93,206l5.75-.26a39.64,39.64,0,0,1-5.14,19.39,48.9,48.9,0,0,1-14.21,16.08,82.06,82.06,0,0,1-18.71,10.19,74.85,74.85,0,0,1-20.73,4.67C112.54,256.59,105.81,256.86,99.9,256.86Z"/>
            <path class="cls-2" d="M174,205.81l-1.07-.17h0c-5.71.39-11.44.58-17.16.58a266.44,266.44,0,0,1-29.48-1.66h-.13c-6.45-.72-15.93-2.07-28.17-4-12.77-2-22.56-3.46-29.1-4.25-12.48-1.61-21.55-2.75-27-3.4-8.37-1.05-15.54-1.69-21.33-1.91l-1.84-.06c-1,0-2.06,0-3.09,0l-2.12,0h0c-1.74,0-3.48.1-5.23.22v5.42c-.87.29-1.74.57-2.62.81.87-.08,1.75-.15,2.62-.2,2.6-.18,5.19-.27,7.75-.27.86,0,1.74,0,2.6,0,5.95.15,13.52.8,22.52,1.94a1.39,1.39,0,0,1,.35.09c3.65.41,8.9,1.05,15.67,1.91l10.88,1.39a1.14,1.14,0,0,1,.49.11c3.05.36,6.81.86,11.22,1.5,4.95.71,10.74,1.6,17.32,2.66a.4.4,0,0,1,.15,0c5.27.83,10,1.56,14.27,2.17,2.58.38,5,.71,7.16,1,2.55.35,4.83.63,6.82.86,4.33.49,8.68.87,13,1.14q3.57.24,7.11.36c3.36.14,6.7.2,10,.2,5.57,0,11.15-.18,16.71-.54.09-.48.17-.95.24-1.43s.11-.83.15-1.25c0-.16,0-.32,0-.48s.06-.59.07-.88,0-.27,0-.41l0-.54c0-.25,0-.5,0-.75l1.76-.08Zm88.6-99.67c-.77-2.26-1.62-4.44-2.55-6.66,0,0,0,0,0,0s0,0,0,0,0,0,0,0c-.46-1.12-.94-2.23-1.45-3.34q-.44-1-.93-2a122.59,122.59,0,0,0-10.48-17.95A148.14,148.14,0,0,0,222.9,49.56a1.1,1.1,0,0,1-.25-.17A180.89,180.89,0,0,0,190,27.14a218.45,218.45,0,0,0-39-16A246.58,246.58,0,0,0,126.37,5h0l-1.47-.28h-.08A274.3,274.3,0,0,0,73.41,0C67.33,0,61.09.18,54.87.55A244.38,244.38,0,0,0,8.31,7.9v6.23A236.27,236.27,0,0,1,37,8.39q3.56-.5,7.13-.87,5.54-.58,11.1-.92Q61,6.26,66.78,6.13h.34c2.16-.06,4.3-.08,6.43-.08l3.22,0q4.13,0,8.21.21c1.15,0,2.29.1,3.44.15l.33,0q11.63.63,22.92,2.22c4.37.61,8.67,1.33,13,2.16h0a241.63,241.63,0,0,1,24.61,6.09C174.55,24.63,196.63,36,215,50.79q1.92,1.56,3.8,3.17c2.1,1.81,4.11,3.64,6.06,5.5h0C237.41,71.51,247,84.72,253.33,99v.06c1.2,2.71,2.3,5.46,3.27,8.24.1.27.2.55.29.82.74,2.14,1.39,4.29,2,6.44A94.83,94.83,0,0,1,257.3,170l0,0c-2.71,7.55-11,14.7-24.57,21.24q-3.26,1.58-6.59,3a140.28,140.28,0,0,1-34.88,9.56Q182.17,205,173,205.64h0c-5.71.39-11.44.58-17.16.58a266.44,266.44,0,0,1-29.48-1.66h-.13c-6.45-.72-15.93-2.07-28.17-4-12.77-2-22.56-3.46-29.1-4.25-12.48-1.61-21.55-2.75-27-3.4-8.37-1.05-15.54-1.69-21.33-1.91l-1.84-.06c-1,0-2.06,0-3.09,0l-2.12,0h0c-1.74,0-3.48.1-5.23.22v5.42c-.87.29-1.74.57-2.62.81.87-.08,1.75-.15,2.62-.2,2.6-.18,5.19-.27,7.75-.27.86,0,1.74,0,2.6,0,5.95.15,13.52.8,22.52,1.94a1.39,1.39,0,0,1,.35.09c3.65.41,8.9,1.05,15.67,1.91l10.88,1.39a1.14,1.14,0,0,1,.49.11c3.05.36,6.81.86,11.22,1.5,4.95.71,10.74,1.6,17.32,2.66a.4.4,0,0,1,.15,0c5.27.83,10,1.56,14.27,2.17,2.58.38,5,.71,7.16,1,2.55.35,4.83.63,6.82.86,4.33.49,8.68.87,13,1.14q3.57.24,7.11.36c3.36.14,6.7.2,10,.2,5.57,0,11.15-.18,16.71-.54q3-.18,5.91-.44,6.93-.61,13.79-1.57a145.43,145.43,0,0,0,43.27-13c15.76-7.62,25.06-16,27.67-24.83a.08.08,0,0,1,0,0,101.2,101.2,0,0,0-.39-65.67Z"/>
            <path class="cls-2" d="M104.23,32.76a3.23,3.23,0,0,1-.61-.06h0a2.54,2.54,0,0,1-1.85-1.19,2.88,2.88,0,0,1-.5-2.28h0c1.5-8.12,3.68-13.84,6.48-17a1,1,0,0,0,.29-.26c3.23-4,8.87-6.42,16.75-7.18h.33a3,3,0,0,1,1.92.7,2.89,2.89,0,0,1,1.11,2,3.19,3.19,0,0,1-.74,2.23,3.05,3.05,0,0,1-2,1.13c-5.83.56-10.14,2.27-12.8,5.1,0,0,0,0-.06.07-2.32,2.84-4,7.55-5.32,14.4a2.93,2.93,0,0,1-1.28,1.9A2.75,2.75,0,0,1,104.23,32.76Z"/>
            <path class="cls-2" d="M44.31,18.57l0,.07c-2.17,3.77-7.54,7.83-16,12.08-4.76,2.38-10.84,5.34-18,8.8L10,39.6l-1.71.82V33.8C15.2,30.47,21,27.64,25.6,25.36c7-3.57,11.43-6.78,13.58-9.82a1.18,1.18,0,0,0,.11-.19c1-2,.45-4.06-1.45-5.71A2.77,2.77,0,0,1,37,8.39a2.7,2.7,0,0,1-.13-.77v0a3,3,0,0,1,.71-2.2,2.61,2.61,0,0,1,2-1H40a2.69,2.69,0,0,1,1.84.72,17.08,17.08,0,0,1,2.3,2.41,9.53,9.53,0,0,1,2,4.15A9.31,9.31,0,0,1,44.31,18.57Z"/>
            <path class="cls-2" d="M194.86,108.68c-2,7.62-6.62,13-14,16.51a26.82,26.82,0,0,1-11.38,2.66,26,26,0,0,1-10.35-2.22,44.31,44.31,0,0,1-12.77-8l-.17-.21-.05-.06-9.64-10.71a25,25,0,0,0-11.41-7.4c-3.07-.9-8-1.61-15.06-2.15h-.1c-2-.16-4-.25-5.93-.25a79.74,79.74,0,0,0-22.09,3.25c-15,4.18-29.62,12.44-43.35,24.53-2.1,1.87-4.6,4.34-7.45,7.33a1.37,1.37,0,0,0-.2.29c-3.14,3.42-5.56,6-7.21,7.69-5.42,5.61-10.57,9.8-15.35,12.46v-7.12a73.2,73.2,0,0,0,11-9.5c1.6-1.67,4-4.26,7.15-7.69a1.57,1.57,0,0,0,.24-.21c3-3.24,5.66-5.86,7.84-7.79C49,107.33,64.37,98.63,80.25,94.21a87.36,87.36,0,0,1,23.66-3.41c2.17,0,4.35.1,6.49.27,7.7.6,13.22,1.4,16.4,2.39l.2,0a31.37,31.37,0,0,1,13.72,8.86,1.15,1.15,0,0,0,.19.26c2.67,2.93,5.85,6.46,9.46,10.48a.46.46,0,0,0,.07.07,37,37,0,0,0,11,6.89,20.4,20.4,0,0,0,8,1.7,21,21,0,0,0,8.76-2,19,19,0,0,0,10.8-12.62,33.09,33.09,0,0,0,.46-16.06s0,0,0,0c-1.12-4.31-3.66-9.53-7.53-15.51a103.57,103.57,0,0,0-47.18-39.43,2.84,2.84,0,0,1-1.63-1.63,3,3,0,0,1,0-2.36,0,0,0,0,1,0,0,2.69,2.69,0,0,1,1.61-1.55l.06,0a2.59,2.59,0,0,1,1.06-.24,2.66,2.66,0,0,1,1.1.25l0,0a110,110,0,0,1,50,41.73c4.32,6.73,7.11,12.53,8.28,17.25A37.67,37.67,0,0,1,194.86,108.68Z"/>
            <path class="cls-2" d="M61.11,72.33a3.16,3.16,0,0,1-.73,2.24A82.75,82.75,0,0,1,47,86.09a146.43,146.43,0,0,1-20.21,12,1.16,1.16,0,0,0-.22.13A106.74,106.74,0,0,1,8.31,105.4V99.08A101.27,101.27,0,0,0,24.13,92.7,143.24,143.24,0,0,0,43.46,81.15,78,78,0,0,0,55.81,70.58a2.67,2.67,0,0,1,2-1h.08l.31,0a2.71,2.71,0,0,1,1.84.73A3,3,0,0,1,61.11,72.33Z"/>
            <path class="cls-2" d="M260.09,98.55a109.22,109.22,0,0,1-3.54,27.29c-3.18,12.09-8.19,22.57-14.87,31.13a65.26,65.26,0,0,1-25.1,20c-9.84,4.42-21.37,6.66-34.27,6.66a147.44,147.44,0,0,1-29-3.17,3.32,3.32,0,0,1-2.1-1.37s0,0,0,0a2.56,2.56,0,0,1-.44-2.27,2.76,2.76,0,0,1,1.5-1.86l.06,0a3.34,3.34,0,0,1,1.72-.48,3.86,3.86,0,0,1,.81.09,135.48,135.48,0,0,0,26.7,2.92c23.53,0,41.88-8.05,54.53-23.92a80,80,0,0,0,13.85-29,1.16,1.16,0,0,0,0-.18,101,101,0,0,0,3.39-25.75,2.68,2.68,0,0,1,1-2.11l0,0a3.22,3.22,0,0,1,2.34-.92,3.52,3.52,0,0,1,2.43.94A2.68,2.68,0,0,1,260.09,98.55Z"/>
            <path class="cls-2" d="M17.82,217.9a2.73,2.73,0,0,1,.9-2.08.08.08,0,0,0,0,0,2.73,2.73,0,0,1,2.08-.9,2.93,2.93,0,0,1,2.15.92,2.79,2.79,0,0,1,.87,2.1v96.59a1.29,1.29,0,0,0,1.29,1.28h.18a32.63,32.63,0,0,0,13-4.85l.2-.11a32.3,32.3,0,0,0,11.92-14.16.94.94,0,0,0,.07-.22c.67-1.48,1.35-3.11,2.05-4.87a.9.9,0,0,0,.06-.22c1-2.57,2.76-6.46,5.17-11.55,2.13-4.43,3.61-7.83,4.42-10.09a26.21,26.21,0,0,0-.43-19.53v0a2.86,2.86,0,0,1-.08-2.31,2.66,2.66,0,0,1,1.56-1.65l0,0a2.6,2.6,0,0,1,1.14-.26,3,3,0,0,1,1.13.23h0a2.8,2.8,0,0,1,1.66,1.59c3.36,7.51,3.58,15.57.64,23.93-.83,2.36-2.37,5.88-4.57,10.49a.74.74,0,0,0-.13.21c-2.39,5-4.08,8.77-5,11.33-.67,1.83-1.36,3.54-2,5.09A1,1,0,0,0,56,299a38,38,0,0,1-35.16,23l-3,.08Z"/>
            <path class="cls-2" d="M23.86,267a2.58,2.58,0,0,1-.08.26,3.11,3.11,0,0,1-1.6,1.63q-2.23,1-4.37,1.87-5.07,2.14-9.5,3.79v-6.41q4.44-1.71,9.5-3.89l2-.84a3.23,3.23,0,0,1,1.27-.29,3,3,0,0,1,1,.2,2.84,2.84,0,0,1,1.66,1.58,2.42,2.42,0,0,1,.12.35A3.07,3.07,0,0,1,23.86,267Z"/>
            <path class="cls-2" d="M79.92,203.94a.45.45,0,0,1-.13-.11.35.35,0,0,1-.11-.1c-3.76-4.25-7.8-6.31-12.34-6.31a15.9,15.9,0,0,0-3.38.37l-.19,0a15,15,0,0,0-6.57,3,18.15,18.15,0,0,0-5.5,8.53,1.14,1.14,0,0,1-.16.31c-2.07,6.51-1.12,11.83,2.9,16.27l0,0a14.4,14.4,0,0,0,11.59,5.32,22.89,22.89,0,0,0,4.52-.48c6.86-1.39,11.11-4.88,13-10.7,0,0,0,0,0,0C85.58,214.45,84.39,209.17,79.92,203.94Zm-2,14.16a1.2,1.2,0,0,1-.2.41c-1.35,3.41-4.15,5.56-8.31,6.37a14.67,14.67,0,0,1-2.94.32A9.73,9.73,0,0,1,59,222l0,0c-2.46-2.93-3-6.51-1.6-10.64s4-6.74,7.73-7.6h.07a10.78,10.78,0,0,1,1.77-.16c3,0,5.79,1.4,8.25,4.14h0C78.07,211,79,214.49,77.9,218.1Z"/>
            <path class="cls-2" d="M113.06,132.59a2.92,2.92,0,0,1-1.36,1.86h0a2.73,2.73,0,0,1-1.53.48,3.08,3.08,0,0,1-.72-.09,44.68,44.68,0,0,0-8.55-1.1q-.73,0-1.47,0A46.48,46.48,0,0,0,76,140,76.75,76.75,0,0,0,60.5,153l0,0c-6.66,7.45-11.81,13.15-15.3,16.94a132.16,132.16,0,0,1-17.56,16.39,1,1,0,0,0-.24.23A78.24,78.24,0,0,1,20.6,191a67.37,67.37,0,0,1-12.29,5.56V191.1c-1.19.06-2.38.15-3.58.26,1.2-.37,2.39-.78,3.58-1.22A66.16,66.16,0,0,0,24,181.52h0a133.05,133.05,0,0,0,16.72-15.62c3.46-3.8,8.57-9.48,15.18-16.89l.11-.1c6-6.31,11.73-11,16.9-14.07a51.42,51.42,0,0,1,18.36-6.53,53.63,53.63,0,0,1,8.14-.63l1.26,0A50.25,50.25,0,0,1,110.85,129a2.87,2.87,0,0,1,1.86,1.36A2.9,2.9,0,0,1,113.06,132.59Z"/>
            <path id="Path9" class="cls-3" d="M1640.31,647v377.37"/>
            <path id="Path8" class="cls-3" d="M1569.85,576.56A70.46,70.46,0,0,1,1640.31,647"/>
            <path id="Path7" class="cls-3" d="M366.77,576.56H1569.85"/>
            <path id="Path6" class="cls-3" d="M296.31,506.1a70.47,70.47,0,0,0,70.46,70.46"/>
            <path id="Path5" class="cls-3" d="M296.31,67.91V506.1"/>
            <path id="Path2" class="cls-3" d="M77.35,171.86a67.67,67.67,0,0,1,31.42-7.07c11.57.36,18.82,3.9,26.77,6.82,7.68,2.81,44.73,17.41,75.87,4.63,19.3-7.92,34.41-25.52,40.41-43.05,3.19-9.33,4.2-19.8,5.21-30.26a216.75,216.75,0,0,0,.82-29.52v-5.5a19.23,19.23,0,0,1,19.23-19.23h0a19.23,19.23,0,0,1,19.23,19.23"/>
            <path id="Circle2" class="cls-1" d="M78.72,183.59a10.81,10.81,0,1,1,10.81-10.81A10.82,10.82,0,0,1,78.72,183.59Z"/>
            <path id="Circle1" class="cls-1" d="M111.17,141.26a10.81,10.81,0,1,1,10.8-10.8A10.81,10.81,0,0,1,111.17,141.26Z"/>
            <path id="Path4" class="cls-4" d="M76.67,11.06c-3.39,6-4.07,8.47-4.75,12-.85,4.46-2.1,11,.43,18.48.94,2.8,2.58,7.67,7,11s9.34,3.31,16.14,3.61,18.68.84,27.83,3.4c12.47,3.49,20.61,11,24.85,14.87a71.86,71.86,0,0,1,16.36,22.31"/>
            <path id="Path3" class="cls-3" d="M8.31,69.08A272.71,272.71,0,0,0,33.57,56.35a189.73,189.73,0,0,0,30.9-21.06l6.52-6"/>
            <path id="Path1" class="cls-5" d="M87.23,131.8C74.86,134.69,66.77,142,60.58,147.55c-7.54,6.79-6.57,8.27-19,21.09-6.06,6.25-9.59,9.9-14.83,13.9A88.15,88.15,0,0,1,8.31,193.36"/>
            <path class="cls-6" d="M8.31,190.14v1c-1.19.06-2.38.15-3.58.26C5.93,191,7.12,190.58,8.31,190.14Z"/>
            <path class="cls-6" d="M5.69,197.33c.88-.24,1.75-.52,2.62-.81v.61C7.44,197.18,6.56,197.25,5.69,197.33Z"/>
        </g>
    </g>
</svg>