<svg xmlns="http://www.w3.org/2000/svg" viewBox="0 0 309.52 232.56"><defs><style>.cls-1{fill:#fff;}</style></defs><title>tickets</title><g id="Layer_2" data-name="Layer 2"><g id="Calque_2" data-name="Calque 2"><g id="tickets"><g id="t30"><path class="cls-1" d="M157.12,228.58a1,1,0,0,1-1-1v-9.81a1,1,0,0,1,2,0v9.81A1,1,0,0,1,157.12,228.58Z"/><path class="cls-1" d="M183.13,232.56H147.61a1,1,0,0,1-1-1v-5.15a1,1,0,0,1,1-1,2.75,2.75,0,0,0,0-5.49,1,1,0,0,1-1-1v-5.15a1,1,0,0,1,1-1h35.57a1,1,0,0,1,1,1v17.76A1,1,0,0,1,183.13,232.56Zm-34.54-2H182.2V214.8H148.59v3.29a4.68,4.68,0,0,1,3.73,4.61,4.74,4.74,0,0,1-3.73,4.61Z"/></g><g id="t29"><path class="cls-1" d="M206.65,62.21a1,1,0,0,1-1-1V51.42a1,1,0,1,1,2,0v9.81A1,1,0,0,1,206.65,62.21Z"/><path class="cls-1" d="M232.66,66.19H197.13a1,1,0,0,1-1-1V60.05a1,1,0,0,1,1-1,2.75,2.75,0,1,0,0-5.49,1,1,0,0,1-1-1V47.44a1,1,0,0,1,1-1H232.7a1,1,0,0,1,1,1V65.21A1,1,0,0,1,232.66,66.19Zm-34.54-2h33.6V48.43h-33.6v3.28a4.72,4.72,0,0,1,0,9.23Z"/></g><g id="t28"><path class="cls-1" d="M66.8,106.85a1,1,0,0,1-1-1V96.05a1,1,0,0,1,2,0v9.81A1,1,0,0,1,66.8,106.85Z"/><path class="cls-1" d="M92.8,110.82H57.28a1,1,0,0,1-1-1v-5.15a1,1,0,0,1,1-1,2.75,2.75,0,1,0,0-5.5,1,1,0,0,1-1-1V92.08a1,1,0,0,1,1-1H92.85a1,1,0,0,1,1,1v17.76A1,1,0,0,1,92.8,110.82Zm-34.54-2H91.87V93.06H58.26v3.29A4.68,4.68,0,0,1,62,101a4.73,4.73,0,0,1-3.73,4.61Z"/></g><g id="t27"><path class="cls-1" d="M26.59,173.24a1,1,0,0,1-1-1v-9.82a1,1,0,0,1,2,0v9.82A1,1,0,0,1,26.59,173.24Z"/><path class="cls-1" d="M52.59,177.21H17.07a1,1,0,0,1-1-1v-5.15a1,1,0,0,1,1-1,2.75,2.75,0,0,0,0-5.5,1,1,0,0,1-1-1v-5.15a1,1,0,0,1,1-1H52.64a1,1,0,0,1,1,1v17.76A1,1,0,0,1,52.59,177.21Zm-34.54-2H51.66v-15.8H18.05v3.29a4.68,4.68,0,0,1,3.73,4.61A4.73,4.73,0,0,1,18.05,172Z"/></g><g id="t26"><path class="cls-1" d="M10.5,106.85a1,1,0,0,1-1-1V96.05a1,1,0,0,1,2,0v9.81A1,1,0,0,1,10.5,106.85Z"/><path class="cls-1" d="M36.5,110.82H1a1,1,0,0,1-1-1v-5.15a1,1,0,0,1,1-1,2.75,2.75,0,1,0,0-5.5,1,1,0,0,1-1-1V92.08a1,1,0,0,1,1-1H36.55a1,1,0,0,1,1,1v17.76A1,1,0,0,1,36.5,110.82ZM2,108.86H35.57V93.06H2v3.29A4.68,4.68,0,0,1,5.69,101,4.73,4.73,0,0,1,2,105.57Z"/></g><g id="t25"><path class="cls-1" d="M29.27,72.07a1,1,0,0,1-1-1V61.28a1,1,0,0,1,2,0v9.81A1,1,0,0,1,29.27,72.07Z"/><path class="cls-1" d="M55.27,76.05H19.75a1,1,0,0,1-1-1V69.92a1,1,0,0,1,1-1,2.75,2.75,0,1,0,0-5.49,1,1,0,0,1-1-1V57.31a1,1,0,0,1,1-1H55.32a1,1,0,0,1,1,1V75.07A1,1,0,0,1,55.27,76.05Zm-34.54-2H54.34V58.29H20.73v3.28a4.72,4.72,0,0,1,0,9.23Z"/></g><g id="t24"><path class="cls-1" d="M42.74,138.17a1,1,0,0,1-1-1v-9.81a1,1,0,0,1,2,0v9.81A1,1,0,0,1,42.74,138.17Z"/><path class="cls-1" d="M68.75,142.15H33.22a1,1,0,0,1-1-1V136a1,1,0,0,1,1-1,2.75,2.75,0,1,0,0-5.49,1,1,0,0,1-1-1v-5.15a1,1,0,0,1,1-1H68.79a1,1,0,0,1,1,1v17.76A1,1,0,0,1,68.75,142.15Zm-34.54-2h33.6V124.39H34.21v3.28a4.72,4.72,0,0,1,0,9.23Z"/></g><g id="t23"><path class="cls-1" d="M226,97a1,1,0,0,1-1-1V86.19a1,1,0,1,1,2,0V96A1,1,0,0,1,226,97Z"/><path class="cls-1" d="M252,101H216.47a1,1,0,0,1-1-1V94.83a1,1,0,0,1,1-1,2.75,2.75,0,1,0,0-5.49,1,1,0,0,1-1-1V82.22a1,1,0,0,1,1-1H252a1,1,0,0,1,1,1V100A1,1,0,0,1,252,101Zm-34.54-2h33.6V83.2h-33.6v3.28a4.72,4.72,0,0,1,0,9.23Z"/></g><g id="t22"><path class="cls-1" d="M228,137.45a1,1,0,0,1-1-1v-9.82a1,1,0,0,1,2,0v9.82A1,1,0,0,1,228,137.45Z"/><path class="cls-1" d="M254,141.42H218.44a1,1,0,0,1-1-1v-5.15a1,1,0,0,1,1-1,2.75,2.75,0,0,0,0-5.5,1,1,0,0,1-1-1v-5.15a1,1,0,0,1,1-1H254a1,1,0,0,1,1,1v17.76A1,1,0,0,1,254,141.42Zm-34.54-2H253v-15.8H219.42V127a4.68,4.68,0,0,1,3.73,4.61,4.73,4.73,0,0,1-3.73,4.61Z"/></g><g id="t21"><path class="cls-1" d="M130.65,177.21a1,1,0,0,1-1-1v-9.81a1,1,0,0,1,2,0v9.81A1,1,0,0,1,130.65,177.21Z"/><path class="cls-1" d="M156.66,181.19H121.13a1,1,0,0,1-1-1v-5.16a1,1,0,0,1,1-1,2.75,2.75,0,1,0,0-5.49,1,1,0,0,1-1-1v-5.16a1,1,0,0,1,1-1H156.7a1,1,0,0,1,1,1v17.77A1,1,0,0,1,156.66,181.19Zm-34.54-2h33.6V163.43h-33.6v3.28a4.72,4.72,0,0,1,0,9.23Z"/></g><g id="t20"><path class="cls-1" d="M268.29,167.35a1,1,0,0,1-1-1v-9.81a1,1,0,0,1,2,0v9.81A1,1,0,0,1,268.29,167.35Z"/><path class="cls-1" d="M294.29,171.32H258.77a1,1,0,0,1-1-1v-5.15a1,1,0,0,1,1-1,2.75,2.75,0,1,0,0-5.49,1,1,0,0,1-1-1v-5.15a1,1,0,0,1,1-1h35.57a1,1,0,0,1,1,1v17.76A1,1,0,0,1,294.29,171.32Zm-34.54-2h33.61v-15.8H259.75v3.29a4.69,4.69,0,0,1,3.73,4.61,4.75,4.75,0,0,1-3.73,4.62Z"/></g><g id="t19"><path class="cls-1" d="M251.49,202.5a1,1,0,0,1-1-1v-9.81a1,1,0,0,1,2,0v9.81A1,1,0,0,1,251.49,202.5Z"/><path class="cls-1" d="M277.49,206.48H242a1,1,0,0,1-1-1v-5.15a1,1,0,0,1,1-1,2.75,2.75,0,1,0,0-5.49,1,1,0,0,1-1-1v-5.15a1,1,0,0,1,1-1h35.57a1,1,0,0,1,1,1V205.5A1,1,0,0,1,277.49,206.48Zm-34.54-2h33.61v-15.8H243V192a4.68,4.68,0,0,1,3.73,4.61,4.74,4.74,0,0,1-3.73,4.61Z"/></g><g id="t18"><path class="cls-1" d="M249.52,33.51a1,1,0,0,0,1-1V22.72a1,1,0,1,0-2,0v9.81A1,1,0,0,0,249.52,33.51Z"/><path class="cls-1" d="M275.58,17.76H240a1,1,0,0,0-1,1v5.15a1,1,0,0,0,1,1,2.75,2.75,0,0,1,0,5.5,1,1,0,0,0-1,1V36.5a1,1,0,0,0,1,1h35.52a1,1,0,0,0,1-1V18.74A1,1,0,0,0,275.58,17.76Zm-1,17.76H241V32.23A4.71,4.71,0,0,0,241,23V19.72H274.6Z"/></g><g id="t17"><path class="cls-1" d="M282.49,117.73a1,1,0,0,1-1-1v-9.81a1,1,0,0,1,2,0v9.81A1,1,0,0,1,282.49,117.73Z"/><path class="cls-1" d="M308.49,121.7H273a1,1,0,0,1-1-1v-5.15a1,1,0,0,1,1-1,2.75,2.75,0,0,0,0-5.5,1,1,0,0,1-1-1V103a1,1,0,0,1,1-1h35.57a1,1,0,0,1,1,1v17.76A1,1,0,0,1,308.49,121.7Zm-34.54-2h33.61v-15.8H274v3.29a4.68,4.68,0,0,1,3.73,4.61,4.74,4.74,0,0,1-3.73,4.61Z"/></g><g id="t16"><path class="cls-1" d="M273,68.1a1,1,0,0,1-1-1V57.31a1,1,0,0,1,2,0v9.81A1,1,0,0,1,273,68.1Z"/><path class="cls-1" d="M299,72.07H263.45a1,1,0,0,1-1-1V65.94a1,1,0,0,1,1-1,2.75,2.75,0,1,0,0-5.49,1,1,0,0,1-1-1V53.33a1,1,0,0,1,1-1H299a1,1,0,0,1,1,1V71.09A1,1,0,0,1,299,72.07Zm-34.54-2H298V54.31H264.43V57.6a4.71,4.71,0,0,1,0,9.22Z"/></g><g id="t15"><path class="cls-1" d="M173.31,87.72a1,1,0,0,1-1-1V76.93a1,1,0,0,1,2,0v9.81A1,1,0,0,1,173.31,87.72Z"/><path class="cls-1" d="M199.32,91.69H163.8a1,1,0,0,1-1-1V85.56a1,1,0,0,1,1-1,2.75,2.75,0,0,0,0-5.49,1,1,0,0,1-1-1V73a1,1,0,0,1,1-1h35.57a1,1,0,0,1,1,1V90.71A1,1,0,0,1,199.32,91.69Zm-34.54-2h33.61V73.93H164.78v3.29a4.71,4.71,0,0,1,0,9.22Z"/></g><g id="t14"><path class="cls-1" d="M139.9,147.31a1,1,0,0,1-1-1v-9.81a1,1,0,1,1,2,0v9.81A1,1,0,0,1,139.9,147.31Z"/><path class="cls-1" d="M165.9,151.28H130.38a1,1,0,0,1-1-1v-5.15a1,1,0,0,1,1-1,2.75,2.75,0,0,0,0-5.5,1,1,0,0,1-1-1v-5.15a1,1,0,0,1,1-1H166a1,1,0,0,1,1,1V150.3A1,1,0,0,1,165.9,151.28Zm-34.54-2H165v-15.8H131.36v3.29a4.71,4.71,0,0,1,0,9.22Z"/></g><g id="t13"><path class="cls-1" d="M180.6,15.75a1,1,0,0,1-1-1V5a1,1,0,1,1,2,0v9.81A1,1,0,0,1,180.6,15.75Z"/><path class="cls-1" d="M206.6,19.72H171.08a1,1,0,0,1-1-1V13.59a1,1,0,0,1,1-1,2.75,2.75,0,1,0,0-5.5,1,1,0,0,1-1-1V1a1,1,0,0,1,1-1h35.57a1,1,0,0,1,1,1V18.74A1,1,0,0,1,206.6,19.72Zm-34.54-2h33.61V2H172.06V5.25a4.68,4.68,0,0,1,3.73,4.61,4.73,4.73,0,0,1-3.73,4.61Z"/></g><g id="t12"><path class="cls-1" d="M85.56,81.83a1,1,0,0,1-1-1V71a1,1,0,0,1,2,0v9.81A1,1,0,0,1,85.56,81.83Z"/><path class="cls-1" d="M111.57,85.81H76.05a1,1,0,0,1-1-1V79.67a1,1,0,0,1,1-1,2.75,2.75,0,0,0,0-5.49,1,1,0,0,1-1-1V67.07a1,1,0,0,1,1-1h35.57a1,1,0,0,1,1,1V84.83A1,1,0,0,1,111.57,85.81ZM77,83.84h33.61V68.05H77v3.28a4.72,4.72,0,0,1,0,9.23Z"/></g><g id="t11"><path class="cls-1" d="M123.1,27.62a1,1,0,0,1-1-1V16.83a1,1,0,0,1,2,0v9.81A1,1,0,0,1,123.1,27.62Z"/><path class="cls-1" d="M149.1,31.6H113.58a1,1,0,0,1-1-1V25.46a1,1,0,0,1,1-1,2.75,2.75,0,1,0,0-5.49,1,1,0,0,1-1-1V12.85a1,1,0,0,1,1-1h35.57a1,1,0,0,1,1,1V30.61A1,1,0,0,1,149.1,31.6Zm-34.54-2h33.61V13.84H114.56v3.28a4.69,4.69,0,0,1,3.73,4.61,4.75,4.75,0,0,1-3.73,4.62Z"/></g><g id="t10"><path class="cls-1" d="M115.81,213.25a1,1,0,0,1-1-1v-9.81a1,1,0,1,1,2,0v9.81A1,1,0,0,1,115.81,213.25Z"/><path class="cls-1" d="M141.81,217.23H106.29a1,1,0,0,1-1-1v-5.15a1,1,0,0,1,1-1,2.75,2.75,0,1,0,0-5.49,1,1,0,0,1-1-1v-5.16a1,1,0,0,1,1-1h35.57a1,1,0,0,1,1,1v17.76A1,1,0,0,1,141.81,217.23Zm-34.54-2h33.61V199.47H107.27v3.28a4.69,4.69,0,0,1,3.73,4.61,4.75,4.75,0,0,1-3.73,4.62Z"/></g><g id="t9"><path class="cls-1" d="M192.08,196.62a1,1,0,0,1-1-1v-9.82a1,1,0,0,1,2,0v9.82A1,1,0,0,1,192.08,196.62Z"/><path class="cls-1" d="M218.08,200.59H182.56a1,1,0,0,1-1-1v-5.15a1,1,0,0,1,1-1,2.75,2.75,0,0,0,0-5.5,1,1,0,0,1-1-1v-5.15a1,1,0,0,1,1-1h35.57a1,1,0,0,1,1,1v17.76A1,1,0,0,1,218.08,200.59Zm-34.54-2h33.61v-15.8H183.54v3.29a4.68,4.68,0,0,1,3.73,4.61,4.73,4.73,0,0,1-3.73,4.61Z"/></g><g id="t8"><path class="cls-1" d="M199.37,226.62a1,1,0,0,1-1-1v-9.81a1,1,0,0,1,2,0v9.81A1,1,0,0,1,199.37,226.62Z"/><path class="cls-1" d="M225.37,230.6H189.85a1,1,0,0,1-1-1v-5.16a1,1,0,0,1,1-1,2.75,2.75,0,1,0,0-5.49,1,1,0,0,1-1-1v-5.16a1,1,0,0,1,1-1h35.57a1,1,0,0,1,1,1v17.77A1,1,0,0,1,225.37,230.6Zm-34.54-2h33.61V212.84H190.83v3.28a4.69,4.69,0,0,1,3.73,4.61,4.74,4.74,0,0,1-3.73,4.62Z"/></g><g id="t7"><path class="cls-1" d="M76.32,43.37a1,1,0,0,1-1-1V32.58a1,1,0,1,1,2,0v9.81A1,1,0,0,1,76.32,43.37Z"/><path class="cls-1" d="M102.32,47.35H66.8a1,1,0,0,1-1-1V41.21a1,1,0,0,1,1-1,2.75,2.75,0,1,0,0-5.49,1,1,0,0,1-1-1V28.6a1,1,0,0,1,1-1h35.57a1,1,0,0,1,1,1V46.36A1,1,0,0,1,102.32,47.35Zm-34.54-2h33.61V29.58H67.78v3.29a4.69,4.69,0,0,1,3.73,4.61,4.75,4.75,0,0,1-3.73,4.62Z"/></g><g id="t6"><path class="cls-1" d="M132.35,107.86a1,1,0,0,1-1-1V97.07a1,1,0,0,1,2,0v9.81A1,1,0,0,1,132.35,107.86Z"/><path class="cls-1" d="M158.35,111.84H122.83a1,1,0,0,1-1-1v-5.15a1,1,0,0,1,1-1,2.75,2.75,0,0,0,0-5.49,1,1,0,0,1-1-1V93.1a1,1,0,0,1,1-1H158.4a1,1,0,0,1,1,1v17.76A1,1,0,0,1,158.35,111.84Zm-34.54-2h33.61V94.08H123.81v3.28a4.72,4.72,0,0,1,0,9.23Z"/></g><g id="t5"><path class="cls-1" d="M189.85,157.17a1,1,0,0,1-1-1v-9.81a1,1,0,1,1,2,0v9.81A1,1,0,0,1,189.85,157.17Z"/><path class="cls-1" d="M215.85,161.15H180.33a1,1,0,0,1-1-1V155a1,1,0,0,1,1-1,2.75,2.75,0,1,0,0-5.49,1,1,0,0,1-1-1V142.4a1,1,0,0,1,1-1H215.9a1,1,0,0,1,1,1v17.76A1,1,0,0,1,215.85,161.15Zm-34.54-2h33.61v-15.8H181.31v3.29a4.69,4.69,0,0,1,3.73,4.61,4.75,4.75,0,0,1-3.73,4.62Z"/></g><g id="t4"><path class="cls-1" d="M85.56,128.31a1,1,0,0,1-1-1v-9.81a1,1,0,0,1,2,0v9.81A1,1,0,0,1,85.56,128.31Z"/><path class="cls-1" d="M111.57,132.29H76.05a1,1,0,0,1-1-1v-5.15a1,1,0,0,1,1-1,2.75,2.75,0,0,0,0-5.49,1,1,0,0,1-1-1v-5.16a1,1,0,0,1,1-1h35.57a1,1,0,0,1,1,1V131.3A1,1,0,0,1,111.57,132.29Zm-34.54-2h33.61v-15.8H77v3.29a4.69,4.69,0,0,1,3.73,4.61A4.75,4.75,0,0,1,77,127Z"/></g><g id="t3"><path class="cls-1" d="M132.35,62.21a1,1,0,0,1-1-1V51.42a1,1,0,0,1,2,0v9.81A1,1,0,0,1,132.35,62.21Z"/><path class="cls-1" d="M158.35,66.19H122.83a1,1,0,0,1-1-1V60.05a1,1,0,0,1,1-1,2.75,2.75,0,0,0,0-5.49,1,1,0,0,1-1-1V47.44a1,1,0,0,1,1-1H158.4a1,1,0,0,1,1,1V65.21A1,1,0,0,1,158.35,66.19Zm-34.54-2h33.61V48.43H123.81v3.28a4.69,4.69,0,0,1,3.73,4.62,4.74,4.74,0,0,1-3.73,4.61Z"/></g><g id="t2"><path class="cls-1" d="M180.6,117.73a1,1,0,0,1-1-1v-9.81a1,1,0,0,1,2,0v9.81A1,1,0,0,1,180.6,117.73Z"/><path class="cls-1" d="M206.6,121.7H171.08a1,1,0,0,1-1-1v-5.15a1,1,0,0,1,1-1,2.75,2.75,0,0,0,0-5.5,1,1,0,0,1-1-1V103a1,1,0,0,1,1-1h35.57a1,1,0,0,1,1,1v17.76A1,1,0,0,1,206.6,121.7Zm-34.54-2h33.61v-15.8H172.06v3.29a4.68,4.68,0,0,1,3.73,4.61,4.74,4.74,0,0,1-3.73,4.61Z"/></g><g id="t1"><path class="cls-1" d="M78.28,165.07a1,1,0,0,1-1-1v-9.81a1,1,0,1,1,2,0v9.81A1,1,0,0,1,78.28,165.07Z"/><path class="cls-1" d="M104.28,169H68.76a1,1,0,0,1-1-1v-5.15a1,1,0,0,1,1-1,2.75,2.75,0,1,0,0-5.49,1,1,0,0,1-1-1V150.3a1,1,0,0,1,1-1h35.57a1,1,0,0,1,1,1v17.76A1,1,0,0,1,104.28,169Zm-34.54-2h33.61v-15.8H69.74v3.29a4.71,4.71,0,0,1,0,9.22Z"/></g></g></g></g></svg>