<?xml version="1.0" standalone="no"?>
<!DOCTYPE svg PUBLIC "-//W3C//DTD SVG 20010904//EN"
 "http://www.w3.org/TR/2001/REC-SVG-20010904/DTD/svg10.dtd">
<svg version="1.0" xmlns="http://www.w3.org/2000/svg"
 width="1629.000000pt" height="1629.000000pt" viewBox="0 0 1629.000000 1629.000000"
 preserveAspectRatio="xMidYMid meet">
<metadata>
Created by potrace 1.11, written by Peter Selinger 2001-2013
</metadata>
<g transform="translate(0.000000,1629.000000) scale(0.100000,-0.100000)"
fill="#000000" stroke="none">
<path d="M9948 15725 c-2 -2 -30 -5 -63 -9 -185 -19 -389 -120 -535 -265 -315
-312 -364 -812 -116 -1179 177 -260 466 -414 777 -414 514 1 931 418 932 932
1 450 -323 840 -765 920 -54 10 -223 21 -230 15z"/>
<path d="M695 13062 c3 -8 39 -73 82 -145 42 -73 90 -157 106 -187 16 -30 33
-59 37 -65 4 -5 17 -26 27 -45 19 -33 188 -325 231 -400 11 -19 29 -51 40 -70
11 -19 117 -204 237 -410 119 -206 226 -391 237 -410 130 -226 291 -506 293
-508 1 -1 76 71 166 161 90 89 196 189 234 222 39 33 75 64 81 70 108 97 577
424 739 516 30 17 55 35 55 39 0 5 -41 80 -91 167 -51 87 -193 334 -317 548
-124 215 -233 404 -243 420 -10 17 -26 45 -35 63 -9 18 -22 36 -28 39 -6 4
-426 8 -934 8 -765 0 -921 -2 -917 -13z"/>
<path d="M9070 13072 c0 -8 -81 -154 -129 -232 -5 -8 -50 -85 -99 -170 -49
-85 -128 -221 -175 -302 -47 -81 -82 -150 -78 -153 5 -2 44 -18 87 -34 128
-47 350 -145 474 -209 63 -32 140 -72 170 -88 175 -90 418 -247 630 -407 199
-150 247 -192 463 -409 104 -103 189 -188 191 -188 1 0 1 129 1 288 l0 287
490 -1 c269 -1 505 -4 523 -8 17 -3 45 -8 61 -11 56 -10 167 -48 233 -80 221
-109 401 -320 476 -555 39 -125 46 -174 47 -335 0 -164 -3 -197 -29 -307 -61
-254 -254 -481 -506 -596 -177 -80 -189 -81 -871 -82 l-596 0 -33 82 c-233
587 -714 1117 -1379 1517 -234 142 -597 306 -896 406 -226 75 -615 172 -800
200 -22 3 -47 7 -55 10 -8 2 -37 6 -65 10 -27 3 -79 10 -115 15 -36 5 -96 12
-135 16 -38 3 -83 8 -100 10 -239 25 -974 26 -1135 0 -14 -3 -52 -7 -85 -10
-63 -7 -79 -9 -203 -26 -355 -49 -809 -168 -1154 -304 -626 -246 -1122 -562
-1550 -986 -490 -486 -777 -1017 -888 -1640 -52 -294 -68 -596 -47 -855 20
-243 81 -484 164 -649 116 -233 269 -367 502 -440 166 -52 259 -69 391 -70
172 0 280 34 483 154 38 22 70 40 72 40 3 0 -6 -21 -19 -47 -28 -56 -62 -164
-73 -231 -15 -91 -7 -281 15 -369 82 -321 335 -577 657 -664 92 -25 333 -35
445 -18 149 22 411 101 578 175 30 13 58 24 62 24 4 0 7 -242 8 -537 0 -296 1
-548 1 -561 1 -23 2 -23 104 -18 200 10 370 80 532 217 47 40 142 165 175 231
18 34 49 105 70 158 39 97 64 153 143 320 106 225 135 365 112 534 -7 48 -7
49 16 42 201 -58 368 -75 709 -70 162 1 315 5 340 8 25 3 72 8 105 11 194 19
485 119 650 223 138 87 189 127 270 207 151 149 246 317 283 500 l8 39 179 22
c193 24 210 27 325 50 464 94 966 323 1183 541 l69 68 606 -1 c553 -1 650 -3
784 -19 70 -8 222 -35 256 -44 18 -6 35 -10 37 -10 3 -1 6 -1 8 -2 1 0 13 -3
27 -5 33 -6 252 -80 298 -100 123 -55 238 -112 312 -157 234 -140 472 -341
660 -557 36 -41 70 -80 77 -88 33 -35 170 -231 226 -323 185 -304 316 -668
363 -1014 3 -22 7 -51 10 -65 26 -152 25 -647 -1 -800 -2 -14 -6 -47 -9 -73
-3 -27 -8 -52 -10 -55 -2 -4 -7 -29 -10 -57 -9 -69 -68 -291 -106 -400 -98
-276 -234 -533 -409 -770 -162 -219 -498 -565 -717 -737 -213 -168 -444 -287
-590 -304 -31 -4 -62 -13 -69 -20 -11 -12 -144 -14 -752 -14 l-738 0 0 2326
c0 1279 -2 2327 -5 2329 -3 1 -45 -22 -95 -52 -107 -65 -349 -184 -493 -242
-200 -81 -507 -174 -704 -212 l-67 -13 -47 -70 c-26 -39 -63 -91 -83 -116
l-36 -44 -1 -2763 c-2 -2556 -1 -2763 15 -2767 28 -7 3006 -3 3011 4 3 4 56
10 119 14 63 4 117 9 120 10 3 2 29 7 56 10 207 28 479 116 710 231 287 142
537 312 818 555 140 121 501 492 603 620 7 8 37 44 66 80 140 169 326 445 446
661 52 95 160 312 182 369 12 30 32 77 44 105 13 27 31 73 41 100 9 28 21 59
25 70 22 56 107 326 115 363 1 9 10 44 18 77 9 33 18 71 20 85 3 14 10 43 15
65 6 22 14 63 18 90 3 28 8 53 10 56 1 3 6 28 10 55 3 27 8 56 9 66 2 9 6 38
10 65 4 26 8 59 11 72 2 14 6 52 9 85 3 34 8 77 10 96 22 180 22 772 0 954 -2
16 -7 64 -10 105 -4 42 -8 87 -10 101 -2 14 -7 45 -10 70 -37 270 -73 444
-136 669 -39 140 -103 326 -138 406 -10 22 -37 83 -60 135 -66 149 -245 470
-263 470 -4 0 -8 4 -8 10 0 15 -101 153 -198 270 -113 137 -462 486 -626 625
-275 235 -495 386 -741 508 -155 77 -372 149 -470 157 -11 1 31 19 93 40 63
21 124 42 135 48 12 6 54 25 92 43 363 168 602 484 679 894 22 119 30 215 30
365 1 464 -93 865 -292 1250 -36 69 -69 127 -73 128 -5 2 -9 8 -9 14 0 6 -30
54 -66 107 -197 285 -453 545 -714 723 -305 209 -661 343 -1012 383 -29 3 -71
8 -93 11 -82 11 -2615 16 -2615 6z"/>
<path d="M6601 4600 c-49 -89 -247 -308 -341 -380 -25 -19 -47 -37 -50 -41
-18 -21 -175 -118 -266 -163 -160 -79 -350 -141 -494 -160 -25 -3 -65 -8 -90
-11 -36 -5 -191 -12 -336 -15 l-21 0 0 -1620 c0 -891 3 -1621 6 -1621 3 -1
365 -2 805 -3 527 -1 800 2 802 9 2 5 3 915 2 2020 -3 1725 -5 2006 -17 1985z"/>
</g>
</svg>
