<svg xmlns="http://www.w3.org/2000/svg" viewBox="0 -50 923.35 380">
    <defs>
        <style>.cls-1,.cls-3{fill:#fff;}.cls-2{fill:#1d7ca7;}.cls-2,.cls-3{fill-rule:evenodd;}.cls-4{fill:none;stroke:#fff;stroke-linecap:round;stroke-linejoin:round;stroke-width:4px;}.cls-5{fill:#3fa9f5;}.cls-6{fill:#ff7bac;}.cls-7{fill:#ccffd9;}</style>
    </defs>
    <title>allianz_header</title>
    <g id="tickets">
        <g id="t30">
            <path class="cls-1" d="M157.12,228.58a1,1,0,0,1-1-1v-9.81a1,1,0,0,1,2,0v9.81A1,1,0,0,1,157.12,228.58Z"/>
            <path class="cls-1" d="M183.13,232.56H147.61a1,1,0,0,1-1-1v-5.15a1,1,0,0,1,1-1,2.75,2.75,0,0,0,0-5.49,1,1,0,0,1-1-1v-5.15a1,1,0,0,1,1-1h35.57a1,1,0,0,1,1,1v17.76A1,1,0,0,1,183.13,232.56Zm-34.54-2H182.2V214.8H148.59v3.29a4.68,4.68,0,0,1,3.73,4.61,4.74,4.74,0,0,1-3.73,4.61Z"/>
        </g>
        <g id="t29">
            <path class="cls-1" d="M206.65,62.21a1,1,0,0,1-1-1V51.42a1,1,0,1,1,2,0v9.81A1,1,0,0,1,206.65,62.21Z"/>
            <path class="cls-1" d="M232.66,66.19H197.13a1,1,0,0,1-1-1V60.05a1,1,0,0,1,1-1,2.75,2.75,0,1,0,0-5.49,1,1,0,0,1-1-1V47.44a1,1,0,0,1,1-1H232.7a1,1,0,0,1,1,1V65.21A1,1,0,0,1,232.66,66.19Zm-34.54-2h33.6V48.43h-33.6v3.28a4.72,4.72,0,0,1,0,9.23Z"/>
        </g>
        <g id="t28">
            <path class="cls-1" d="M66.8,106.85a1,1,0,0,1-1-1V96.05a1,1,0,0,1,2,0v9.81A1,1,0,0,1,66.8,106.85Z"/>
            <path class="cls-1" d="M92.8,110.82H57.28a1,1,0,0,1-1-1v-5.15a1,1,0,0,1,1-1,2.75,2.75,0,1,0,0-5.5,1,1,0,0,1-1-1V92.08a1,1,0,0,1,1-1H92.85a1,1,0,0,1,1,1v17.76A1,1,0,0,1,92.8,110.82Zm-34.54-2H91.87V93.06H58.26v3.29A4.68,4.68,0,0,1,62,101a4.73,4.73,0,0,1-3.73,4.61Z"/>
        </g>
        <g id="t27">
            <path class="cls-1" d="M26.59,173.24a1,1,0,0,1-1-1v-9.82a1,1,0,0,1,2,0v9.82A1,1,0,0,1,26.59,173.24Z"/>
            <path class="cls-1" d="M52.59,177.21H17.07a1,1,0,0,1-1-1v-5.15a1,1,0,0,1,1-1,2.75,2.75,0,0,0,0-5.5,1,1,0,0,1-1-1v-5.15a1,1,0,0,1,1-1H52.64a1,1,0,0,1,1,1v17.76A1,1,0,0,1,52.59,177.21Zm-34.54-2H51.66v-15.8H18.05v3.29a4.68,4.68,0,0,1,3.73,4.61A4.73,4.73,0,0,1,18.05,172Z"/>
        </g>
        <g id="t26">
            <path class="cls-1" d="M10.5,106.85a1,1,0,0,1-1-1V96.05a1,1,0,0,1,2,0v9.81A1,1,0,0,1,10.5,106.85Z"/>
            <path class="cls-1" d="M36.5,110.82H1a1,1,0,0,1-1-1v-5.15a1,1,0,0,1,1-1,2.75,2.75,0,1,0,0-5.5,1,1,0,0,1-1-1V92.08a1,1,0,0,1,1-1H36.55a1,1,0,0,1,1,1v17.76A1,1,0,0,1,36.5,110.82ZM2,108.86H35.57V93.06H2v3.29A4.68,4.68,0,0,1,5.69,101,4.73,4.73,0,0,1,2,105.57Z"/>
        </g>
        <g id="t25">
            <path class="cls-1" d="M29.27,72.07a1,1,0,0,1-1-1V61.28a1,1,0,0,1,2,0v9.81A1,1,0,0,1,29.27,72.07Z"/>
            <path class="cls-1" d="M55.27,76.05H19.75a1,1,0,0,1-1-1V69.92a1,1,0,0,1,1-1,2.75,2.75,0,1,0,0-5.49,1,1,0,0,1-1-1V57.31a1,1,0,0,1,1-1H55.32a1,1,0,0,1,1,1V75.07A1,1,0,0,1,55.27,76.05Zm-34.54-2H54.34V58.29H20.73v3.28a4.72,4.72,0,0,1,0,9.23Z"/>
        </g>
        <g id="t24">
            <path class="cls-1" d="M42.74,138.17a1,1,0,0,1-1-1v-9.81a1,1,0,0,1,2,0v9.81A1,1,0,0,1,42.74,138.17Z"/>
            <path class="cls-1" d="M68.75,142.15H33.22a1,1,0,0,1-1-1V136a1,1,0,0,1,1-1,2.75,2.75,0,1,0,0-5.49,1,1,0,0,1-1-1v-5.15a1,1,0,0,1,1-1H68.79a1,1,0,0,1,1,1v17.76A1,1,0,0,1,68.75,142.15Zm-34.54-2h33.6V124.39H34.21v3.28a4.72,4.72,0,0,1,0,9.23Z"/>
        </g>
        <g id="t23">
            <path class="cls-1" d="M226,97a1,1,0,0,1-1-1V86.19a1,1,0,1,1,2,0V96A1,1,0,0,1,226,97Z"/>
            <path class="cls-1" d="M252,101H216.47a1,1,0,0,1-1-1V94.83a1,1,0,0,1,1-1,2.75,2.75,0,1,0,0-5.49,1,1,0,0,1-1-1V82.22a1,1,0,0,1,1-1H252a1,1,0,0,1,1,1V100A1,1,0,0,1,252,101Zm-34.54-2h33.6V83.2h-33.6v3.28a4.72,4.72,0,0,1,0,9.23Z"/>
        </g>
        <g id="t22">
            <path class="cls-1" d="M228,137.45a1,1,0,0,1-1-1v-9.82a1,1,0,0,1,2,0v9.82A1,1,0,0,1,228,137.45Z"/>
            <path class="cls-1" d="M254,141.42H218.44a1,1,0,0,1-1-1v-5.15a1,1,0,0,1,1-1,2.75,2.75,0,0,0,0-5.5,1,1,0,0,1-1-1v-5.15a1,1,0,0,1,1-1H254a1,1,0,0,1,1,1v17.76A1,1,0,0,1,254,141.42Zm-34.54-2H253v-15.8H219.42V127a4.68,4.68,0,0,1,3.73,4.61,4.73,4.73,0,0,1-3.73,4.61Z"/>
        </g>
        <g id="t21">
            <path class="cls-1" d="M130.65,177.21a1,1,0,0,1-1-1v-9.81a1,1,0,0,1,2,0v9.81A1,1,0,0,1,130.65,177.21Z"/>
            <path class="cls-1" d="M156.66,181.19H121.13a1,1,0,0,1-1-1v-5.16a1,1,0,0,1,1-1,2.75,2.75,0,1,0,0-5.49,1,1,0,0,1-1-1v-5.16a1,1,0,0,1,1-1H156.7a1,1,0,0,1,1,1v17.77A1,1,0,0,1,156.66,181.19Zm-34.54-2h33.6V163.43h-33.6v3.28a4.72,4.72,0,0,1,0,9.23Z"/>
        </g>
        <g id="t20">
            <path class="cls-1" d="M268.29,167.35a1,1,0,0,1-1-1v-9.81a1,1,0,0,1,2,0v9.81A1,1,0,0,1,268.29,167.35Z"/>
            <path class="cls-1" d="M294.29,171.32H258.77a1,1,0,0,1-1-1v-5.15a1,1,0,0,1,1-1,2.75,2.75,0,1,0,0-5.49,1,1,0,0,1-1-1v-5.15a1,1,0,0,1,1-1h35.57a1,1,0,0,1,1,1v17.76A1,1,0,0,1,294.29,171.32Zm-34.54-2h33.61v-15.8H259.75v3.29a4.69,4.69,0,0,1,3.73,4.61,4.75,4.75,0,0,1-3.73,4.62Z"/>
        </g>
        <g id="t19">
            <path class="cls-1" d="M251.49,202.5a1,1,0,0,1-1-1v-9.81a1,1,0,0,1,2,0v9.81A1,1,0,0,1,251.49,202.5Z"/>
            <path class="cls-1" d="M277.49,206.48H242a1,1,0,0,1-1-1v-5.15a1,1,0,0,1,1-1,2.75,2.75,0,1,0,0-5.49,1,1,0,0,1-1-1v-5.15a1,1,0,0,1,1-1h35.57a1,1,0,0,1,1,1V205.5A1,1,0,0,1,277.49,206.48Zm-34.54-2h33.61v-15.8H243V192a4.68,4.68,0,0,1,3.73,4.61,4.74,4.74,0,0,1-3.73,4.61Z"/>
        </g>
        <g id="t18">
            <path class="cls-1" d="M249.52,33.51a1,1,0,0,0,1-1V22.72a1,1,0,1,0-2,0v9.81A1,1,0,0,0,249.52,33.51Z"/>
            <path class="cls-1" d="M275.58,17.76H240a1,1,0,0,0-1,1v5.15a1,1,0,0,0,1,1,2.75,2.75,0,0,1,0,5.5,1,1,0,0,0-1,1V36.5a1,1,0,0,0,1,1h35.52a1,1,0,0,0,1-1V18.74A1,1,0,0,0,275.58,17.76Zm-1,17.76H241V32.23A4.71,4.71,0,0,0,241,23V19.72H274.6Z"/>
        </g>
        <g id="t17">
            <path class="cls-1" d="M282.49,117.73a1,1,0,0,1-1-1v-9.81a1,1,0,0,1,2,0v9.81A1,1,0,0,1,282.49,117.73Z"/>
            <path class="cls-1" d="M308.49,121.7H273a1,1,0,0,1-1-1v-5.15a1,1,0,0,1,1-1,2.75,2.75,0,0,0,0-5.5,1,1,0,0,1-1-1V103a1,1,0,0,1,1-1h35.57a1,1,0,0,1,1,1v17.76A1,1,0,0,1,308.49,121.7Zm-34.54-2h33.61v-15.8H274v3.29a4.68,4.68,0,0,1,3.73,4.61,4.74,4.74,0,0,1-3.73,4.61Z"/>
        </g>
        <g id="t16">
            <path class="cls-1" d="M273,68.1a1,1,0,0,1-1-1V57.31a1,1,0,0,1,2,0v9.81A1,1,0,0,1,273,68.1Z"/>
            <path class="cls-1" d="M299,72.07H263.45a1,1,0,0,1-1-1V65.94a1,1,0,0,1,1-1,2.75,2.75,0,1,0,0-5.49,1,1,0,0,1-1-1V53.33a1,1,0,0,1,1-1H299a1,1,0,0,1,1,1V71.09A1,1,0,0,1,299,72.07Zm-34.54-2H298V54.31H264.43V57.6a4.71,4.71,0,0,1,0,9.22Z"/>
        </g>
        <g id="t15">
            <path class="cls-1" d="M173.31,87.72a1,1,0,0,1-1-1V76.93a1,1,0,0,1,2,0v9.81A1,1,0,0,1,173.31,87.72Z"/>
            <path class="cls-1" d="M199.32,91.69H163.8a1,1,0,0,1-1-1V85.56a1,1,0,0,1,1-1,2.75,2.75,0,0,0,0-5.49,1,1,0,0,1-1-1V73a1,1,0,0,1,1-1h35.57a1,1,0,0,1,1,1V90.71A1,1,0,0,1,199.32,91.69Zm-34.54-2h33.61V73.93H164.78v3.29a4.71,4.71,0,0,1,0,9.22Z"/>
        </g>
        <g id="t14">
            <path class="cls-1" d="M139.9,147.31a1,1,0,0,1-1-1v-9.81a1,1,0,1,1,2,0v9.81A1,1,0,0,1,139.9,147.31Z"/>
            <path class="cls-1" d="M165.9,151.28H130.38a1,1,0,0,1-1-1v-5.15a1,1,0,0,1,1-1,2.75,2.75,0,0,0,0-5.5,1,1,0,0,1-1-1v-5.15a1,1,0,0,1,1-1H166a1,1,0,0,1,1,1V150.3A1,1,0,0,1,165.9,151.28Zm-34.54-2H165v-15.8H131.36v3.29a4.71,4.71,0,0,1,0,9.22Z"/>
        </g>
        <g id="t13">
            <path class="cls-1" d="M180.6,15.75a1,1,0,0,1-1-1V5a1,1,0,1,1,2,0v9.81A1,1,0,0,1,180.6,15.75Z"/>
            <path class="cls-1" d="M206.6,19.72H171.08a1,1,0,0,1-1-1V13.59a1,1,0,0,1,1-1,2.75,2.75,0,1,0,0-5.5,1,1,0,0,1-1-1V1a1,1,0,0,1,1-1h35.57a1,1,0,0,1,1,1V18.74A1,1,0,0,1,206.6,19.72Zm-34.54-2h33.61V2H172.06V5.25a4.68,4.68,0,0,1,3.73,4.61,4.73,4.73,0,0,1-3.73,4.61Z"/>
        </g>
        <g id="t12">
            <path class="cls-1" d="M85.56,81.83a1,1,0,0,1-1-1V71a1,1,0,0,1,2,0v9.81A1,1,0,0,1,85.56,81.83Z"/>
            <path class="cls-1" d="M111.57,85.81H76.05a1,1,0,0,1-1-1V79.67a1,1,0,0,1,1-1,2.75,2.75,0,0,0,0-5.49,1,1,0,0,1-1-1V67.07a1,1,0,0,1,1-1h35.57a1,1,0,0,1,1,1V84.83A1,1,0,0,1,111.57,85.81ZM77,83.84h33.61V68.05H77v3.28a4.72,4.72,0,0,1,0,9.23Z"/>
        </g>
        <g id="t11">
            <path class="cls-1" d="M123.1,27.62a1,1,0,0,1-1-1V16.83a1,1,0,0,1,2,0v9.81A1,1,0,0,1,123.1,27.62Z"/>
            <path class="cls-1" d="M149.1,31.6H113.58a1,1,0,0,1-1-1V25.46a1,1,0,0,1,1-1,2.75,2.75,0,1,0,0-5.49,1,1,0,0,1-1-1V12.85a1,1,0,0,1,1-1h35.57a1,1,0,0,1,1,1V30.61A1,1,0,0,1,149.1,31.6Zm-34.54-2h33.61V13.84H114.56v3.28a4.69,4.69,0,0,1,3.73,4.61,4.75,4.75,0,0,1-3.73,4.62Z"/>
        </g>
        <g id="t10">
            <path class="cls-1" d="M115.81,213.25a1,1,0,0,1-1-1v-9.81a1,1,0,1,1,2,0v9.81A1,1,0,0,1,115.81,213.25Z"/>
            <path class="cls-1" d="M141.81,217.23H106.29a1,1,0,0,1-1-1v-5.15a1,1,0,0,1,1-1,2.75,2.75,0,1,0,0-5.49,1,1,0,0,1-1-1v-5.16a1,1,0,0,1,1-1h35.57a1,1,0,0,1,1,1v17.76A1,1,0,0,1,141.81,217.23Zm-34.54-2h33.61V199.47H107.27v3.28a4.69,4.69,0,0,1,3.73,4.61,4.75,4.75,0,0,1-3.73,4.62Z"/>
        </g>
        <g id="t9">
            <path class="cls-1" d="M192.08,196.62a1,1,0,0,1-1-1v-9.82a1,1,0,0,1,2,0v9.82A1,1,0,0,1,192.08,196.62Z"/>
            <path class="cls-1" d="M218.08,200.59H182.56a1,1,0,0,1-1-1v-5.15a1,1,0,0,1,1-1,2.75,2.75,0,0,0,0-5.5,1,1,0,0,1-1-1v-5.15a1,1,0,0,1,1-1h35.57a1,1,0,0,1,1,1v17.76A1,1,0,0,1,218.08,200.59Zm-34.54-2h33.61v-15.8H183.54v3.29a4.68,4.68,0,0,1,3.73,4.61,4.73,4.73,0,0,1-3.73,4.61Z"/>
        </g>
        <g id="t8">
            <path class="cls-1" d="M199.37,226.62a1,1,0,0,1-1-1v-9.81a1,1,0,0,1,2,0v9.81A1,1,0,0,1,199.37,226.62Z"/>
            <path class="cls-1" d="M225.37,230.6H189.85a1,1,0,0,1-1-1v-5.16a1,1,0,0,1,1-1,2.75,2.75,0,1,0,0-5.49,1,1,0,0,1-1-1v-5.16a1,1,0,0,1,1-1h35.57a1,1,0,0,1,1,1v17.77A1,1,0,0,1,225.37,230.6Zm-34.54-2h33.61V212.84H190.83v3.28a4.69,4.69,0,0,1,3.73,4.61,4.74,4.74,0,0,1-3.73,4.62Z"/>
        </g>
        <g id="t7">
            <path class="cls-1" d="M76.32,43.37a1,1,0,0,1-1-1V32.58a1,1,0,1,1,2,0v9.81A1,1,0,0,1,76.32,43.37Z"/>
            <path class="cls-1" d="M102.32,47.35H66.8a1,1,0,0,1-1-1V41.21a1,1,0,0,1,1-1,2.75,2.75,0,1,0,0-5.49,1,1,0,0,1-1-1V28.6a1,1,0,0,1,1-1h35.57a1,1,0,0,1,1,1V46.36A1,1,0,0,1,102.32,47.35Zm-34.54-2h33.61V29.58H67.78v3.29a4.69,4.69,0,0,1,3.73,4.61,4.75,4.75,0,0,1-3.73,4.62Z"/>
        </g>
        <g id="t6">
            <path class="cls-1" d="M132.35,107.86a1,1,0,0,1-1-1V97.07a1,1,0,0,1,2,0v9.81A1,1,0,0,1,132.35,107.86Z"/>
            <path class="cls-1" d="M158.35,111.84H122.83a1,1,0,0,1-1-1v-5.15a1,1,0,0,1,1-1,2.75,2.75,0,0,0,0-5.49,1,1,0,0,1-1-1V93.1a1,1,0,0,1,1-1H158.4a1,1,0,0,1,1,1v17.76A1,1,0,0,1,158.35,111.84Zm-34.54-2h33.61V94.08H123.81v3.28a4.72,4.72,0,0,1,0,9.23Z"/>
        </g>
        <g id="t5">
            <path class="cls-1" d="M189.85,157.17a1,1,0,0,1-1-1v-9.81a1,1,0,1,1,2,0v9.81A1,1,0,0,1,189.85,157.17Z"/>
            <path class="cls-1" d="M215.85,161.15H180.33a1,1,0,0,1-1-1V155a1,1,0,0,1,1-1,2.75,2.75,0,1,0,0-5.49,1,1,0,0,1-1-1V142.4a1,1,0,0,1,1-1H215.9a1,1,0,0,1,1,1v17.76A1,1,0,0,1,215.85,161.15Zm-34.54-2h33.61v-15.8H181.31v3.29a4.69,4.69,0,0,1,3.73,4.61,4.75,4.75,0,0,1-3.73,4.62Z"/>
        </g>
        <g id="t4">
            <path class="cls-1" d="M85.56,128.31a1,1,0,0,1-1-1v-9.81a1,1,0,0,1,2,0v9.81A1,1,0,0,1,85.56,128.31Z"/>
            <path class="cls-1" d="M111.57,132.29H76.05a1,1,0,0,1-1-1v-5.15a1,1,0,0,1,1-1,2.75,2.75,0,0,0,0-5.49,1,1,0,0,1-1-1v-5.16a1,1,0,0,1,1-1h35.57a1,1,0,0,1,1,1V131.3A1,1,0,0,1,111.57,132.29Zm-34.54-2h33.61v-15.8H77v3.29a4.69,4.69,0,0,1,3.73,4.61A4.75,4.75,0,0,1,77,127Z"/>
        </g>
        <g id="t3">
            <path class="cls-1" d="M132.35,62.21a1,1,0,0,1-1-1V51.42a1,1,0,0,1,2,0v9.81A1,1,0,0,1,132.35,62.21Z"/>
            <path class="cls-1" d="M158.35,66.19H122.83a1,1,0,0,1-1-1V60.05a1,1,0,0,1,1-1,2.75,2.75,0,0,0,0-5.49,1,1,0,0,1-1-1V47.44a1,1,0,0,1,1-1H158.4a1,1,0,0,1,1,1V65.21A1,1,0,0,1,158.35,66.19Zm-34.54-2h33.61V48.43H123.81v3.28a4.69,4.69,0,0,1,3.73,4.62,4.74,4.74,0,0,1-3.73,4.61Z"/>
        </g>
        <g id="t2">
            <path class="cls-1" d="M180.6,117.73a1,1,0,0,1-1-1v-9.81a1,1,0,0,1,2,0v9.81A1,1,0,0,1,180.6,117.73Z"/>
            <path class="cls-1" d="M206.6,121.7H171.08a1,1,0,0,1-1-1v-5.15a1,1,0,0,1,1-1,2.75,2.75,0,0,0,0-5.5,1,1,0,0,1-1-1V103a1,1,0,0,1,1-1h35.57a1,1,0,0,1,1,1v17.76A1,1,0,0,1,206.6,121.7Zm-34.54-2h33.61v-15.8H172.06v3.29a4.68,4.68,0,0,1,3.73,4.61,4.74,4.74,0,0,1-3.73,4.61Z"/>
        </g>
        <g id="t1">
            <path class="cls-1" d="M78.28,165.07a1,1,0,0,1-1-1v-9.81a1,1,0,1,1,2,0v9.81A1,1,0,0,1,78.28,165.07Z"/>
            <path class="cls-1" d="M104.28,169H68.76a1,1,0,0,1-1-1v-5.15a1,1,0,0,1,1-1,2.75,2.75,0,1,0,0-5.49,1,1,0,0,1-1-1V150.3a1,1,0,0,1,1-1h35.57a1,1,0,0,1,1,1v17.76A1,1,0,0,1,104.28,169Zm-34.54-2h33.61v-15.8H69.74v3.29a4.71,4.71,0,0,1,0,9.22Z"/>
        </g>
    </g>
    <g id="blue-cluster" data-name="blue cluster">
        <circle class="cls-5" cx="797.25" cy="61.26" r="4.03"/>
        <circle class="cls-5" cx="827.03" cy="61.43" r="4.03"/>
        <circle class="cls-5" cx="801.28" cy="96.05" r="4.03"/>
        <circle class="cls-5" cx="827.03" cy="88.98" r="4.03"/>
        <circle class="cls-5" cx="790.17" cy="84.91" r="4.03"/>
        <circle class="cls-5" cx="790.17" cy="135.62" r="4.03"/>
        <circle class="cls-5" cx="817.11" cy="75.05" r="4.03"/>
        <circle class="cls-5" cx="817.11" cy="123.37" r="4.03"/>
        <circle class="cls-5" cx="790.17" cy="120.84" r="4.03"/>
        <circle class="cls-5" cx="774.57" cy="100.07" r="4.03"/>
        <circle class="cls-5" cx="817.11" cy="109.99" r="4.03"/>
        <circle class="cls-5" cx="841.21" cy="93.83" r="4.03"/>
        <circle class="cls-5" cx="856.81" cy="72.87" r="4.03"/>
        <circle class="cls-5" cx="849.26" cy="120.32" r="4.03"/>
        <circle class="cls-5" cx="845.24" cy="69.16" r="4.03"/>
        <circle class="cls-5" cx="809.33" cy="41.54" r="4.03"/>
        <circle class="cls-5" cx="782.62" cy="65.45" r="4.03"/>
    </g>
    <g id="pink-cluster">
        <circle class="cls-6" cx="654.06" cy="82.9" r="4.03"/>
        <circle class="cls-6" cx="683.84" cy="83.06" r="4.03"/>
        <circle class="cls-6" cx="658.08" cy="117.68" r="4.03"/>
        <circle class="cls-6" cx="683.84" cy="110.61" r="4.03"/>
        <circle class="cls-6" cx="646.97" cy="106.55" r="4.03"/>
        <circle class="cls-6" cx="646.97" cy="157.25" r="4.03"/>
        <circle class="cls-6" cx="673.91" cy="96.69" r="4.03"/>
        <circle class="cls-6" cx="673.91" cy="145.01" r="4.03"/>
        <circle class="cls-6" cx="646.97" cy="142.48" r="4.03"/>
        <circle class="cls-6" cx="631.37" cy="121.71" r="4.03"/>
        <circle class="cls-6" cx="673.91" cy="131.62" r="4.03"/>
        <circle class="cls-6" cx="698.02" cy="115.46" r="4.03"/>
        <circle class="cls-6" cx="713.61" cy="94.5" r="4.03"/>
        <circle class="cls-6" cx="706.07" cy="141.96" r="4.03"/>
        <circle class="cls-6" cx="702.04" cy="90.8" r="4.03"/>
        <circle class="cls-6" cx="666.14" cy="63.18" r="4.03"/>
        <circle class="cls-6" cx="639.42" cy="87.09" r="4.03"/>
    </g>
    <g id="green-cluster">
        <circle class="cls-7" cx="736.74" cy="214.04" r="4.03"/>
        <circle class="cls-7" cx="766.52" cy="219.92" r="4.03"/>
        <circle class="cls-7" cx="746.89" cy="251.94" r="4.03"/>
        <circle class="cls-7" cx="758.97" cy="194.63" r="4.03"/>
        <circle class="cls-7" cx="754.94" cy="227.98" r="4.03"/>
        <circle class="cls-7" cx="726.81" cy="238.15" r="4.03"/>
        <circle class="cls-7" cx="774.57" cy="244.04" r="4.03"/>
        <circle class="cls-7" cx="789.43" cy="223.95" r="4.03"/>
        <circle class="cls-7" cx="803.61" cy="249.93" r="4.03"/>
        <circle class="cls-7" cx="770.54" cy="270.86" r="4.03"/>
        <circle class="cls-7" cx="789.43" cy="206.14" r="4.03"/>
        <circle class="cls-7" cx="811.66" cy="222.77" r="4.03"/>
        <circle class="cls-7" cx="732.71" cy="198.66" r="4.03"/>
        <circle class="cls-7" cx="719.04" cy="223.95" r="4.03"/>
        <circle class="cls-7" cx="719.04" cy="259.99" r="4.03"/>
        <circle class="cls-7" cx="736.74" cy="268.04" r="4.03"/>
        <circle class="cls-7" cx="758.97" cy="278.91" r="4.03"/>
    </g>
    <rect class="cls-1" x="393.97" y="58.03" width="129.76" height="129.76" rx="18.15"/>
    <g id="gear1">
        <path class="cls-2" d="M442.79,69.67a21,21,0,0,0-5.82,0l-.87,3.8a18,18,0,0,0-5.28,2.09l-2.91-2.29a22.86,22.86,0,0,0-4.45,4.07L425,80.86a21,21,0,0,0-2.81,5.3l-3.58.28a25.82,25.82,0,0,0-1,6.24l3.28,1.6a22,22,0,0,0,1,6L419.3,103a25.28,25.28,0,0,0,2.91,5.49l3.45-1.07a19.51,19.51,0,0,0,4.3,3.93l-.36,3.89a21,21,0,0,0,5.46,2.17l2-3.24a17.1,17.1,0,0,0,5.62,0l2,3.24a21,21,0,0,0,5.46-2.17l-.36-3.89a19.51,19.51,0,0,0,4.3-3.93l3.45,1.07a25.28,25.28,0,0,0,2.91-5.49l-2.58-2.72a22.35,22.35,0,0,0,1-6l3.28-1.6a25.82,25.82,0,0,0-1-6.24l-3.58-.28a21.35,21.35,0,0,0-2.81-5.3l1.57-3.52a22.86,22.86,0,0,0-4.45-4.07l-2.91,2.29a18,18,0,0,0-5.28-2.09l-.87-3.8Zm-2.91,13.74c5.23,0,9.48,4.63,9.48,10.33s-4.25,10.34-9.48,10.34-9.48-4.63-9.48-10.34S434.65,83.41,439.88,83.41Z"/>
    </g>
    <g id="gear2">
        <path class="cls-2" d="M479.85,92.86a20.27,20.27,0,0,0-5.82,0l-.87,3.79a18.31,18.31,0,0,0-5.28,2.09L465,96.45a23.15,23.15,0,0,0-4.45,4.07l1.57,3.53a21.29,21.29,0,0,0-2.81,5.29l-3.58.29a26.23,26.23,0,0,0-1,6.24l3.28,1.6a22.61,22.61,0,0,0,1,6l-2.58,2.72a25.28,25.28,0,0,0,2.91,5.49l3.46-1.07a19.24,19.24,0,0,0,4.29,3.93l-.36,3.9a21,21,0,0,0,5.46,2.17l2-3.24a17.6,17.6,0,0,0,5.61,0l2,3.24a21.24,21.24,0,0,0,5.47-2.17l-.37-3.9a19.51,19.51,0,0,0,4.3-3.93l3.45,1.07a24.85,24.85,0,0,0,2.91-5.49l-2.58-2.72a22.23,22.23,0,0,0,1-6l3.27-1.6a25.74,25.74,0,0,0-1-6.24l-3.58-.29a21.26,21.26,0,0,0-2.8-5.29l1.56-3.53a22.86,22.86,0,0,0-4.45-4.07L486,98.74a18.25,18.25,0,0,0-5.27-2.09l-.88-3.79Zm-2.91,13.73c5.24,0,9.48,4.63,9.48,10.33s-4.24,10.34-9.48,10.34-9.48-4.63-9.48-10.34S471.71,106.59,476.94,106.59Z"/>
    </g>
    <g id="gear3">
        <path class="cls-2" d="M452.27,128.57a20.94,20.94,0,0,0-5.81,0l-.88,3.8a18,18,0,0,0-5.27,2.09l-2.91-2.29a22.91,22.91,0,0,0-4.46,4.07l1.57,3.52a21.35,21.35,0,0,0-2.81,5.3l-3.58.28a26.83,26.83,0,0,0-1,6.24l3.28,1.6a22.75,22.75,0,0,0,1,6l-2.57,2.72a24.82,24.82,0,0,0,2.9,5.49l3.46-1.07a19.07,19.07,0,0,0,4.3,3.93l-.37,3.9a21.15,21.15,0,0,0,5.46,2.16l2-3.24a17,17,0,0,0,5.61,0l2,3.24a21.21,21.21,0,0,0,5.47-2.16l-.37-3.9a19.51,19.51,0,0,0,4.3-3.93l3.45,1.07a24.44,24.44,0,0,0,2.91-5.49l-2.58-2.72a22.36,22.36,0,0,0,1-6l3.27-1.6a25.82,25.82,0,0,0-1-6.24l-3.58-.28a21.32,21.32,0,0,0-2.8-5.3l1.56-3.52a22.86,22.86,0,0,0-4.45-4.07l-2.91,2.29a18,18,0,0,0-5.27-2.09l-.88-3.8Zm-2.91,13.74c5.24,0,9.49,4.63,9.49,10.33S454.6,163,449.36,163s-9.48-4.63-9.48-10.34S444.13,142.31,449.36,142.31Z"/>
    </g>
    <path class="cls-3" d="M394.12,142.91l-27.5,17.23a2.78,2.78,0,0,1-4.25-2.39L363,88.34a2.78,2.78,0,0,1,4.3-2.31l27.19,17.71a2.8,2.8,0,0,1,1.26,2.36l-.3,34.48A2.77,2.77,0,0,1,394.12,142.91Z"/>
    <path class="cls-3" d="M524.8,142.91l27.5,17.23a2.79,2.79,0,0,0,4.26-2.39L556,88.34a2.78,2.78,0,0,0-4.3-2.31l-27.19,17.71a2.77,2.77,0,0,0-1.26,2.36l.3,34.48A2.78,2.78,0,0,0,524.8,142.91Z"/>
    <polyline class="cls-4" points="726.66 14.12 726.66 180.86 909.22 180.86"/>
    <polygon class="cls-1" points="726.66 0 718.53 19.9 726.66 15.18 734.79 19.9 726.66 0"/>
    <polygon class="cls-1" points="923.35 180.86 903.45 188.99 908.17 180.86 903.45 172.73 923.35 180.86"/>
    <line class="cls-4" x1="726.66" y1="180.86" x2="649.04" y2="258.48"/>
    <polygon class="cls-1" points="639.06 268.46 647.38 248.64 649.79 257.73 658.88 260.14 639.06 268.46"/>
    <circle id="input" class="cls-1" cx="385" cy="125.04" r="4.2"/>
    <circle id="output" class="cls-1" cx="538.38" cy="125.04" r="4.2"/>
    <path class="cls-1" d="M4.14,313.07a4.92,4.92,0,0,1,3.74-1.22,5.92,5.92,0,0,1,4.37,1.74,7.23,7.23,0,0,1,0,10.21,6.92,6.92,0,0,1-5.1,2.12A7,7,0,0,1,2,323.81a7.77,7.77,0,0,1-2-5.68v0a10.67,10.67,0,0,1,1.94-6.33,82.21,82.21,0,0,1,5.28-6.48h3.46A54.63,54.63,0,0,0,4.14,313.07ZM2.62,318.7a4.35,4.35,0,0,0,1.32,3.2,4.4,4.4,0,0,0,3.21,1.32,4.36,4.36,0,0,0,3.19-1.32,4.5,4.5,0,0,0,0-6.39,4.36,4.36,0,0,0-3.19-1.32,4.4,4.4,0,0,0-3.21,1.32A4.34,4.34,0,0,0,2.62,318.7Z"/>
    <path class="cls-1" d="M26.19,312.53h2.63v1.22a2.88,2.88,0,0,1,2.93-1.91A2.2,2.2,0,0,1,34.18,314c.41-1.46,1.55-2.18,3.42-2.18s2.77,1.12,2.77,3.36v10.4H37.73v-9.19c0-1.29-.52-1.93-1.56-1.93a1.56,1.56,0,0,0-1.12.45c-.31.31-.47,1.33-.47,3.08v7.59H32l0-9.19c0-1.29-.53-1.93-1.58-1.93a1.54,1.54,0,0,0-1.11.45,3.38,3.38,0,0,0-.46,2.09v8.58H26.19Z"/>
    <path class="cls-1" d="M47,307.7a1.82,1.82,0,0,1,0,2.61,1.83,1.83,0,0,1-2.6,0,1.85,1.85,0,0,1,0-2.61,1.83,1.83,0,0,1,2.6,0Zm0,4.83V325.6H44.41V312.53Z"/>
    <path class="cls-1" d="M53.7,305.27V325.6H51.06V305.27Z"/>
    <path class="cls-1" d="M60.15,305.27V325.6H57.51V305.27Z"/>
    <path class="cls-1" d="M66.79,307.7a1.82,1.82,0,0,1,0,2.61,1.79,1.79,0,0,1-1.31.54,1.76,1.76,0,0,1-1.29-.54,1.82,1.82,0,0,1,0-2.61,1.76,1.76,0,0,1,1.29-.54A1.79,1.79,0,0,1,66.79,307.7Zm0,4.83V325.6H64.17V312.53Z"/>
    <path class="cls-1" d="M77.29,311.47a7.24,7.24,0,1,1-5.1,2.12A7,7,0,0,1,77.29,311.47Zm-3.21,4a4.53,4.53,0,0,0,0,6.39,4.55,4.55,0,0,0,6.41,0,4.54,4.54,0,0,0-3.2-7.73A4.38,4.38,0,0,0,74.08,315.51Z"/>
    <path class="cls-1" d="M90.2,316v9.56H87.56V312.53H90.2v1.53a3.22,3.22,0,0,1,3.31-2.24,4.12,4.12,0,0,1,3.37,1.51,5.79,5.79,0,0,1,1.29,3.77v8.5H95.54v-8.39a2.61,2.61,0,0,0-.82-1.94,2.72,2.72,0,0,0-2-.81,2.75,2.75,0,0,0-2,.79A2.81,2.81,0,0,0,90.2,316Z"/>
    <path class="cls-1" d="M113.65,322.79a1.58,1.58,0,0,0,2.69-1.13,1.47,1.47,0,0,0-.46-1.1,8.87,8.87,0,0,0-1.36-1,9.16,9.16,0,0,1-2-1.37,3.39,3.39,0,0,1-1.05-2.5,3.44,3.44,0,0,1,1.05-2.52,3.4,3.4,0,0,1,2.51-1.05,3.3,3.3,0,0,1,2.45,1,3.18,3.18,0,0,1,.89,1.56l-2.55.74a1.22,1.22,0,0,0-.18-.42.84.84,0,0,0-.61-.23.86.86,0,0,0-.65.28.85.85,0,0,0-.28.65.89.89,0,0,0,.27.65,8.54,8.54,0,0,0,1.09.77,10.91,10.91,0,0,1,2.29,1.57,4.21,4.21,0,0,1,0,5.95,4,4,0,0,1-3,1.24,4.06,4.06,0,0,1-3-1.24,4.22,4.22,0,0,1-1.11-2.12l2.61-.56A1.61,1.61,0,0,0,113.65,322.79Z"/>
    <path class="cls-1" d="M127.74,325.78a5.43,5.43,0,0,1-4-1.51,5.28,5.28,0,0,1-1.54-3.79v-8h2.64v7.85a2.62,2.62,0,0,0,.82,1.94,2.84,2.84,0,0,0,2.06.82,2.73,2.73,0,0,0,2-.81,2.64,2.64,0,0,0,.83-1.95v-7.85h2.63v8a5.21,5.21,0,0,1-5.41,5.3Z"/>
    <path class="cls-1" d="M139.58,324v6H137V312.53h2.62v1.19a5.7,5.7,0,0,1,4.44-2.24,7.23,7.23,0,0,1,0,14.46A6,6,0,0,1,139.58,324Zm0-6.28v2a4.27,4.27,0,0,0,1.24,2.19,4.55,4.55,0,1,0,0-6.41A4.28,4.28,0,0,0,139.58,317.69Z"/>
    <path class="cls-1" d="M157,324v6h-2.63V312.53H157v1.19a5.7,5.7,0,0,1,4.43-2.24,7.23,7.23,0,0,1,0,14.46A6,6,0,0,1,157,324Zm0-6.28v2a4.18,4.18,0,0,0,1.23,2.19,4.36,4.36,0,0,0,3.2,1.32A4.52,4.52,0,0,0,166,318.7a4.52,4.52,0,0,0-7.73-3.19A4.19,4.19,0,0,0,157,317.69Z"/>
    <path class="cls-1" d="M178.33,311.47a7.24,7.24,0,1,1-5.1,2.12A7,7,0,0,1,178.33,311.47Zm-3.2,4a4.52,4.52,0,0,0,3.2,7.71,4.4,4.4,0,0,0,3.21-1.32,4.53,4.53,0,1,0-6.41-6.39Z"/>
    <path class="cls-1" d="M191.23,314.3a4.68,4.68,0,0,1,3.62-2.1v2.73a3.35,3.35,0,0,0-2.29.93,4.29,4.29,0,0,0-1.33,3v6.72H188.6V312.53h2.63Z"/>
    <path class="cls-1" d="M199.49,312.53v-4.9h2.63v4.9h2.35v2.63h-2.35V325.6h-2.63V315.16h-2.34v-2.63Z"/>
    <path class="cls-1" d="M218.11,312.53v-4.9h2.62v4.9h2.35v2.63h-2.35V325.6h-2.62V315.16h-2.35v-2.63Z"/>
    <path class="cls-1" d="M229,307.7a1.82,1.82,0,0,1,0,2.61,1.83,1.83,0,0,1-2.6,0,1.82,1.82,0,0,1,0-2.61,1.83,1.83,0,0,1,2.6,0Zm0,4.83V325.6h-2.63V312.53Z"/>
    <path class="cls-1" d="M243.36,321.12l2.62.94a17.49,17.49,0,0,1-1.39,1.76,7.24,7.24,0,1,1,0-10.23,17.73,17.73,0,0,1,1.39,1.74l-2.62,1c-.34-.41-.57-.68-.69-.8a4.52,4.52,0,1,0,0,6.41C242.79,321.79,243,321.52,243.36,321.12Z"/>
    <path class="cls-1" d="M256.9,312.53l-3.54,4.37,4.93,8.7h-3.14l-3.55-6.51-.12.14v6.37h-2.64v-18h2.64V315l2-2.49Z"/>
    <path class="cls-1" d="M264.43,322.64a3.69,3.69,0,0,0,2.4.58A4.4,4.4,0,0,0,270,321.9c.11-.11.34-.38.67-.78l2.63.94a19.12,19.12,0,0,1-1.39,1.76,7.23,7.23,0,1,1-5.12-12.35,6.9,6.9,0,0,1,4.49,1.55,8.31,8.31,0,0,1,.63.57l.72.8-1.32,1.33Zm4.39-8.12a3.66,3.66,0,0,0-2-.35,4.54,4.54,0,0,0-4.52,4.53,3.78,3.78,0,0,0,.34,2Z"/>
    <path class="cls-1" d="M278,312.53v-4.9h2.62v4.9H283v2.63H280.6V325.6H278V315.16h-2.35v-2.63Z"/>
    <path class="cls-1" d="M288.65,322.79a1.55,1.55,0,0,0,1.12.46,1.58,1.58,0,0,0,1.12-2.69,9.44,9.44,0,0,0-1.36-1,9.28,9.28,0,0,1-2-1.37,3.42,3.42,0,0,1-1-2.5,3.47,3.47,0,0,1,1-2.52,3.4,3.4,0,0,1,2.51-1.05,3.29,3.29,0,0,1,2.45,1,3.1,3.1,0,0,1,.89,1.56l-2.55.74a1.22,1.22,0,0,0-.18-.42.82.82,0,0,0-.61-.23.86.86,0,0,0-.65.28.88.88,0,0,0-.27.65.92.92,0,0,0,.26.65,8.92,8.92,0,0,0,1.1.77,10.53,10.53,0,0,1,2.28,1.57,4.22,4.22,0,0,1,0,5.95,4.19,4.19,0,0,1-5.95,0,4.16,4.16,0,0,1-1.12-2.12l2.62-.56A1.53,1.53,0,0,0,288.65,322.79Z"/>
    <path class="cls-1" d="M401.21,305.29v2.62h-8.32v6.21h8.32v2.63h-8.32V323h8.32v2.64H390.27V305.29Z"/>
    <path class="cls-1" d="M404.7,312.53h2.63v1.22a2.88,2.88,0,0,1,2.93-1.91,2.2,2.2,0,0,1,2.43,2.18c.41-1.46,1.55-2.18,3.42-2.18s2.77,1.12,2.77,3.36v10.4h-2.64v-9.19c0-1.29-.52-1.93-1.56-1.93a1.58,1.58,0,0,0-1.12.45c-.31.31-.47,1.33-.47,3.08v7.59h-2.63l0-9.19c0-1.29-.53-1.93-1.58-1.93a1.54,1.54,0,0,0-1.11.45,3.45,3.45,0,0,0-.46,2.09v8.58H404.7Z"/>
    <path class="cls-1" d="M425.33,324v1.63H422.7V305.29h2.63v8.15a6,6,0,0,1,4.43-2,7.24,7.24,0,0,1,0,14.47A6,6,0,0,1,425.33,324Zm0-6.28v2a4.22,4.22,0,0,0,1.22,2.17,4.56,4.56,0,0,0,6.42,0,4.53,4.53,0,1,0-6.42-6.39A4.24,4.24,0,0,0,425.33,317.69Z"/>
    <path class="cls-1" d="M444.54,322.64a3.69,3.69,0,0,0,2.4.58,4.4,4.4,0,0,0,3.21-1.32c.11-.11.33-.38.67-.78l2.63.94a17.15,17.15,0,0,1-1.4,1.76,7.22,7.22,0,1,1-.62-10.8,8.2,8.2,0,0,1,.62.57c.09.08.33.35.73.8l-1.32,1.33Zm4.39-8.12a3.66,3.66,0,0,0-2-.35,4.54,4.54,0,0,0-4.52,4.53,3.78,3.78,0,0,0,.34,2Z"/>
    <path class="cls-1" d="M467.83,313.44v-8.15h2.65V325.6h-2.65V324a6,6,0,0,1-4.43,2,7.24,7.24,0,0,1,0-14.47A5.93,5.93,0,0,1,467.83,313.44Zm0,6.24v-1.94a4.15,4.15,0,0,0-1.23-2.23,4.52,4.52,0,1,0,0,6.39A4.2,4.2,0,0,0,467.83,319.68Z"/>
    <path class="cls-1" d="M485.62,313.44v-8.15h2.64V325.6h-2.64V324a6,6,0,0,1-4.43,2,7.24,7.24,0,0,1,0-14.47A6,6,0,0,1,485.62,313.44Zm0,6.24v-1.94a4.15,4.15,0,0,0-1.23-2.23A4.53,4.53,0,0,0,478,321.9a4.55,4.55,0,0,0,6.41,0A4.2,4.2,0,0,0,485.62,319.68Z"/>
    <path class="cls-1" d="M494.9,307.7a1.82,1.82,0,0,1,0,2.61,1.79,1.79,0,0,1-1.31.54,1.85,1.85,0,0,1,0-3.69A1.79,1.79,0,0,1,494.9,307.7Zm0,4.83V325.6h-2.62V312.53Z"/>
    <path class="cls-1" d="M501.58,316v9.56h-2.64V312.53h2.64v1.53a3.22,3.22,0,0,1,3.31-2.24,4.12,4.12,0,0,1,3.37,1.51,5.79,5.79,0,0,1,1.29,3.77v8.5h-2.63v-8.39a2.61,2.61,0,0,0-.82-1.94,2.72,2.72,0,0,0-2-.81,2.75,2.75,0,0,0-1.95.79A2.81,2.81,0,0,0,501.58,316Z"/>
    <path class="cls-1" d="M524.74,313.44v-.91h2.64v9.72a7.93,7.93,0,0,1-2.07,5.87,7.94,7.94,0,0,1-10.24,0,17.64,17.64,0,0,1-1.38-1.75l2.62-.94c.33.41.56.67.68.79a4.4,4.4,0,0,0,3.2,1.32q3.13,0,4.34-4.11a4.36,4.36,0,0,1-4.23,2.38,7,7,0,0,1-5.1-2.05,6.79,6.79,0,0,1-2.12-5.06,7.22,7.22,0,0,1,7.22-7.22A6,6,0,0,1,524.74,313.44Zm0,4.25a4.17,4.17,0,0,0-1.22-2.18,4.53,4.53,0,1,0-6.4,6.4,4.53,4.53,0,0,0,6.4,0,4.16,4.16,0,0,0,1.22-2.16Z"/>
    <path class="cls-1" d="M716.46,320.76l2,1.77a11.2,11.2,0,0,1-7.63,3.28,10.38,10.38,0,1,1,0-20.75,11.17,11.17,0,0,1,7.63,3.29l-2,1.79a8.47,8.47,0,0,0-5.66-2.42,7.73,7.73,0,0,0,0,15.45A8.45,8.45,0,0,0,716.46,320.76Z"/>
    <path class="cls-1" d="M724.23,305.27V325.6h-2.64V305.27Z"/>
    <path class="cls-1" d="M733.58,325.78a5.43,5.43,0,0,1-4-1.51,5.28,5.28,0,0,1-1.55-3.79v-8h2.64v7.85a2.63,2.63,0,0,0,.83,1.94,2.81,2.81,0,0,0,2,.82,2.74,2.74,0,0,0,2-.81,2.64,2.64,0,0,0,.83-1.95v-7.85H739v8a5.21,5.21,0,0,1-5.41,5.3Z"/>
    <path class="cls-1" d="M745.43,322.79a1.55,1.55,0,0,0,1.12.46,1.58,1.58,0,0,0,1.12-2.69,9.44,9.44,0,0,0-1.36-1,9.28,9.28,0,0,1-2-1.37,3.42,3.42,0,0,1-1-2.5,3.47,3.47,0,0,1,1-2.52,3.42,3.42,0,0,1,2.52-1.05,3.32,3.32,0,0,1,2.45,1,3.16,3.16,0,0,1,.88,1.56l-2.55.74a1.51,1.51,0,0,0-.17-.42.85.85,0,0,0-.61-.23.94.94,0,0,0-.93.93.89.89,0,0,0,.27.65,8.54,8.54,0,0,0,1.09.77,10.53,10.53,0,0,1,2.28,1.57,4.22,4.22,0,0,1,0,5.95,4.19,4.19,0,0,1-5.95,0,4.16,4.16,0,0,1-1.12-2.12l2.62-.56A1.61,1.61,0,0,0,745.43,322.79Z"/>
    <path class="cls-1" d="M755.77,312.53v-4.9h2.63v4.9h2.35v2.63H758.4V325.6h-2.63V315.16h-2.35v-2.63Z"/>
    <path class="cls-1" d="M767.87,322.64a3.69,3.69,0,0,0,2.4.58,4.4,4.4,0,0,0,3.21-1.32c.11-.11.33-.38.67-.78l2.63.94a17.15,17.15,0,0,1-1.4,1.76,7.22,7.22,0,1,1-.62-10.8,8.2,8.2,0,0,1,.62.57c.09.08.33.35.73.8l-1.32,1.33Zm4.39-8.12a3.69,3.69,0,0,0-2-.35,4.52,4.52,0,0,0-4.52,4.53,3.78,3.78,0,0,0,.34,2Z"/>
    <path class="cls-1" d="M782.45,314.3a4.69,4.69,0,0,1,3.62-2.1v2.73a3.32,3.32,0,0,0-2.28.93,4.3,4.3,0,0,0-1.34,3v6.72h-2.62V312.53h2.62Z"/>
    <path class="cls-1" d="M791.71,307.7a1.85,1.85,0,0,1,0,2.61,1.81,1.81,0,0,1-1.31.54,1.76,1.76,0,0,1-1.29-.54,1.82,1.82,0,0,1,0-2.61,1.76,1.76,0,0,1,1.29-.54A1.81,1.81,0,0,1,791.71,307.7Zm0,4.83V325.6h-2.63V312.53Z"/>
    <path class="cls-1" d="M798.39,316v9.56h-2.64V312.53h2.64v1.53a3.22,3.22,0,0,1,3.31-2.24,4.14,4.14,0,0,1,3.37,1.51,5.9,5.9,0,0,1,1.29,3.77v8.5h-2.63v-8.39a2.61,2.61,0,0,0-.82-1.94,2.72,2.72,0,0,0-2-.81,2.76,2.76,0,0,0-2,.79A2.94,2.94,0,0,0,798.39,316Z"/>
    <path class="cls-1" d="M821.54,313.44v-.91h2.64v9.72a7.93,7.93,0,0,1-2.07,5.87,7.93,7.93,0,0,1-10.23,0,15,15,0,0,1-1.38-1.75l2.61-.94c.34.41.57.67.69.79a4.38,4.38,0,0,0,3.2,1.32q3.13,0,4.34-4.11a4.36,4.36,0,0,1-4.23,2.38,7.06,7.06,0,0,1-5.11-2.05,6.78,6.78,0,0,1-2.11-5.06,7.2,7.2,0,0,1,7.22-7.22A6,6,0,0,1,821.54,313.44Zm0,4.25a4.24,4.24,0,0,0-1.22-2.18,4.53,4.53,0,1,0,0,6.41,4.23,4.23,0,0,0,1.22-2.16Z"/>
</svg>