<?xml version="1.0" encoding="utf-8"?>
<!-- Generator: Adobe Illustrator 23.0.1, SVG Export Plug-In . SVG Version: 6.00 Build 0)  -->
<svg version="1.1" id="Layer_1" xmlns="http://www.w3.org/2000/svg" xmlns:xlink="http://www.w3.org/1999/xlink" x="0px" y="0px"
	 viewBox="0 0 48 48" style="enable-background:new 0 0 48 48;" xml:space="preserve">
<style type="text/css">
	.st0{fill:#384149;}
	.st0:hover{fill:#1D7CA7;}
</style>
<g>
	<path class="st0" d="M35,14.1c-3.1,0-5.7-2.6-5.7-5.7V0h-20C6.7,0,4.6,2.1,4.6,4.7v38.6c0,2.6,2.1,4.7,4.7,4.7h29.4
		c2.6,0,4.7-2.1,4.7-4.7V14.1H35z M31.2,23.2v2.5h-8.6v-2.5H31.2z M31.2,28.7v2.5H17.4v-2.5H31.2z M13.6,12.6L13.6,12.6l0.6-0.2l0,0
		l0.5-0.8v-0.4l-0.8-0.9c-0.3-0.4-0.2-0.8-0.2-1.1l0,0C13,9.3,12.6,7,13.4,7c-0.1-2.4,0.5-2.3,0.6-2.6c0.1-0.6,1.2-1.5,3.3-1.1
		c2.2,0.4,2,2.1,2,2.1c0.1,0.2,0.1,0.9,0,1.6h0.1c0.7,0.1,0.3,2.4-0.4,2.2l0,0c0,0.3,0.1,0.7-0.2,1.1L18,11.1v0.4l0,0l0.5,0.9
		c0.1,0,2.4,0.8,2.5,0.9c0,0,0.4,0.1,0.7,0.4c1.1,0.8,0.8,1.7,0.9,3.9c0,0.8-0.6,1.5-1.5,1.5h-9.7c-0.8,0-1.5-0.7-1.4-1.5
		C10.2,13.8,9.8,13.9,13.6,12.6z M8.9,23.2H21v2.5H8.9V23.2z M8.9,28.7h6.8v2.5H8.9V28.7z M8.9,34.2H21v2.5H8.9V34.2z M25.3,42.1
		H8.9v-2.5h16.4V42.1z M26.8,36.7h-4.1v-2.5h4.1V36.7z M39.1,42.1H26.9v-2.5h12.2V42.1z M39.1,36.7H28.3v-2.5h10.8V36.7z M39.1,31.2
		h-6.4v-2.5h6.4V31.2z M39.1,25.7h-6.4v-2.5h6.4V25.7z"/>
	<path class="st0" d="M30.3,8.4c0,2.6,2.1,4.7,4.7,4.7h8.4L30.3,0V8.4z"/>
</g>
</svg>
