<?xml version="1.0" encoding="utf-8"?>
<!-- Generator: Adobe Illustrator 23.0.1, SVG Export Plug-In . SVG Version: 6.00 Build 0)  -->
<svg version="1.1" id="Layer_1" xmlns="http://www.w3.org/2000/svg" xmlns:xlink="http://www.w3.org/1999/xlink" x="0px" y="0px"
	 viewBox="0 0 48 48" style="enable-background:new 0 0 48 48;" xml:space="preserve">
<style type="text/css">
	.st0{fill:#384149;}
</style>
<g>
	<path class="st0" d="M35,14.1c-3.1,0-5.7-2.6-5.7-5.7V0h-20C6.7,0,4.6,2.1,4.6,4.7v38.6c0,2.6,2.1,4.7,4.7,4.7h29.4
		c2.6,0,4.7-2.1,4.7-4.7V14.1H35z M14.8,33c1.1,1.1,2.4,1.7,4,1.7c1.4,0,2.8-0.6,4.2-1.8l1.4,1.3c-1.8,1.6-3.6,2.4-5.6,2.4
		c-2.1,0-3.9-0.7-5.4-2.2c-1.5-1.5-2.2-3.3-2.2-5.4c0-2.1,0.7-3.9,2.2-5.4c1.5-1.5,3.3-2.2,5.4-2.2c2,0,3.8,0.8,5.6,2.4l-1.4,1.3
		c-1.3-1.2-2.7-1.8-4.2-1.8c-1.6,0-2.9,0.6-4,1.7c-1.1,1.1-1.7,2.4-1.7,4C13.1,30.6,13.7,31.9,14.8,33z M10,17.6
		c0.2-3.8-0.2-3.7,3.6-5l0.6-0.2l0.5-0.8v-0.4l-0.8-0.9c-0.3-0.4-0.2-0.8-0.2-1.1C13,9.3,12.6,7,13.4,7c-0.1-2.4,0.5-2.3,0.6-2.6
		c0.1-0.6,1.2-1.5,3.3-1.1c2.2,0.4,2,2.1,2,2.1c0.1,0.2,0.1,0.9,0,1.6h0.1c0.7,0.1,0.3,2.4-0.4,2.2c0,0.3,0.1,0.7-0.2,1.1L18,11.1
		v0.4l0.5,0.9c0.1,0,2.4,0.8,2.5,0.9c0,0,0.4,0.1,0.7,0.4c1.1,0.8,0.8,1.7,0.9,3.9c0,0.8-0.6,1.5-1.5,1.5h-9.7
		C10.6,19.1,9.9,18.4,10,17.6z M25.3,42.1H8.9v-2.5h16.4V42.1z M27.8,21.6l3.9,10.7l3.9-10.7h2.1l-5.4,14.9h-1l-5.4-14.9H27.8z
		 M39.1,42.1H26.9v-2.5h12.2V42.1z"/>
	<path class="st0" d="M30.3,8.4c0,2.6,2.1,4.7,4.7,4.7h8.4L30.3,0V8.4z"/>
</g>
</svg>
