<svg xmlns="http://www.w3.org/2000/svg" xmlns:xlink="http://www.w3.org/1999/xlink" viewBox="0 0 801.6 130.39"><defs><style>.cls-1{fill:#384149;}.cls-2{fill:url(#radial-gradient);}.cls-3{fill:#1d7ca7;}.cls-4{fill:url(#radial-gradient-2);}.cls-5{fill:#eee;}</style><radialGradient id="radial-gradient" cx="45.21" cy="74.65" r="48.94" gradientUnits="userSpaceOnUse"><stop offset="0" stop-color="#53b4df"/><stop offset="1" stop-color="#1c9cd6"/></radialGradient><radialGradient id="radial-gradient-2" cx="64.41" cy="46.02" fx="93.16028903886918" fy="78.5300805151451" r="43.4" xlink:href="#radial-gradient"/></defs><title>Logo_1</title><g id="Calque_2" data-name="Calque 2"><g id="Calque_1-2" data-name="Calque 1"><path class="cls-1" d="M170.79,84.75V81.52h8.8v46.23h-8.8V122q-6.34,7-14.73,7a22.54,22.54,0,0,1-17-7.47,26.68,26.68,0,0,1,0-36.14,22.54,22.54,0,0,1,17-7.47Q164.45,77.84,170.79,84.75Zm0,22V100a15.25,15.25,0,0,0-4.07-7.9,14.54,14.54,0,0,0-21.35,0,16.65,16.65,0,0,0,0,22.6,14.51,14.51,0,0,0,21.35,0A15.29,15.29,0,0,0,170.79,106.79Z"/><path class="cls-1" d="M228,84.7V55.89h8.8v71.82H228V122q-6.35,7-14.77,7a22.54,22.54,0,0,1-17-7.5,26.76,26.76,0,0,1,0-36.18,22.53,22.53,0,0,1,17-7.49Q221.61,77.75,228,84.7Zm0,22.09V99.92a15.25,15.25,0,0,0-4.11-7.9,14.45,14.45,0,0,0-21.35,0,16.69,16.69,0,0,0,0,22.63,14.56,14.56,0,0,0,21.35,0A15.25,15.25,0,0,0,228,106.79Z"/><path class="cls-1" d="M258.22,87.76q4.9-7,12.06-7.41V90a10.85,10.85,0,0,0-7.62,3.28A15.58,15.58,0,0,0,258.22,104v23.75h-8.76V81.52h8.76Z"/><path class="cls-2" d="M45.58,97.46l-.07.05a14.33,14.33,0,0,1-7.65,2.28l-1.64,0v27.21H49.78V93.13A14.33,14.33,0,0,1,45.58,97.46ZM70.41,22.25l-4.15,7.18a47.32,47.32,0,0,1,6,2.63A44.26,44.26,0,0,1,76,34.36c.73.5,1.44,1,2.13,1.57l7.91-13.68ZM0,22.25,10.92,41.18a38.32,38.32,0,0,1,2.85-2.85c.28-.26.56-.5.85-.75s.24-.21,1.23-1,4.64-3.2,4.74-3.25l.44-.26.6-.34-6-10.47Z"/><path class="cls-1" d="M117.68,66.37h0l-.15-.16-.54-.62-1-1.06a45.43,45.43,0,0,0-5.81-5.09,24.52,24.52,0,0,0-3.6-2.18,14.53,14.53,0,0,0-4.19-1.37q.52-.14,1-.3l.38-.13.57-.2.47-.2.41-.19c.17-.08.34-.16.5-.25l.32-.17.51-.32.23-.15c.18-.12.35-.25.52-.38l.16-.12L108,53l.09-.09c2.12-2,3.2-4.91,3.2-8.66a21.84,21.84,0,0,0-6.12-15.57,19.56,19.56,0,0,0-14.71-6.46h-20v8.91c.62.29,1.22.59,1.81.9A44.26,44.26,0,0,1,76,34.36c1,.67,1.94,1.39,2.84,2.13l.08,0,.64.56a35.17,35.17,0,0,1,3.62,3.6V35.82h7.23a7.84,7.84,0,0,1,5.9,2.4,8.32,8.32,0,0,1,2.32,6.06,7.78,7.78,0,0,1-7.11,8.13H70.41v14H90.07a20.59,20.59,0,0,1,15.54,6.86,23.14,23.14,0,0,1,6.46,16.48,24.06,24.06,0,0,1-6.49,16.85q-5.86,6.5-9.83,6.76v.19H83.21V74.39A26.28,26.28,0,0,1,80.31,76a33.5,33.5,0,0,1-3.66,1.51,34.36,34.36,0,0,1-4.86,1.28,15.47,15.47,0,0,1-1.38,1.91v46.42H95.75V127q9.65-.13,19.23-10.69a38.2,38.2,0,0,0,10.19-26.62Q125.17,75,117.68,66.37Z"/><path class="cls-3" d="M70.41,22.25v8.91c.62.29,1.22.59,1.81.9A44.26,44.26,0,0,1,76,34.36c1,.67,1.94,1.39,2.84,2.13l.08,0,.64.56a35.17,35.17,0,0,1,3.62,3.6V22.25Zm6.24,55.29a34.36,34.36,0,0,1-4.86,1.28,15.47,15.47,0,0,1-1.38,1.91v46.32h12.8V74.39A26.28,26.28,0,0,1,80.31,76,33.5,33.5,0,0,1,76.65,77.54Z"/><path class="cls-4" d="M37.9,91.79a.58.58,0,0,1-.59-.6V82.12a.23.23,0,0,0-.11-.19.18.18,0,0,0-.13,0H37l-2.71,1c-1,.35-1.79.61-2.43.78a9.83,9.83,0,0,1-2.28.29,7.39,7.39,0,0,1-2.36-.38,6.67,6.67,0,0,1-3.63-3.22,6.87,6.87,0,0,1-.74-2,6.74,6.74,0,0,1,.29-3.52,7.48,7.48,0,0,1,.65-1.37.24.24,0,0,0-.2-.36.2.2,0,0,0-.11,0L21.26,74.4h0l0,0a6.73,6.73,0,0,1-2.71.77h-.31a11.73,11.73,0,0,1-3.43-.65,6.39,6.39,0,0,1-3.38-2.43A11.55,11.55,0,0,1,9.55,67.3a26.51,26.51,0,0,1,.32-9.93,24.08,24.08,0,0,1,4.18-9.27,31.63,31.63,0,0,1,7.69-7.41A41,41,0,0,1,32,35.61a44.77,44.77,0,0,1,11.71-2.29c1.14-.07,2.29-.11,3.41-.11a48.75,48.75,0,0,1,14.25,2A41.22,41.22,0,0,1,68.5,38.2a33.11,33.11,0,0,1,6,4.09.09.09,0,0,0,0,0A27.51,27.51,0,0,1,79,47.21a22.13,22.13,0,0,1,2.83,5.51,18.65,18.65,0,0,1,.07,12.08h0c-.48,1.63-2.19,3.17-5.09,4.57a26.63,26.63,0,0,1-8,2.39c-.94.13-1.9.24-2.87.32a.24.24,0,0,0-.21.19A7.34,7.34,0,0,1,65,74.65a7.2,7.2,0,0,1-2.27,2.41A19.83,19.83,0,0,1,58,79.32a21.25,21.25,0,0,1-5.31,1c-.55,0-1.08.06-1.6.06h0a14.68,14.68,0,0,1-5.52-.92.15.15,0,0,0-.09,0,.22.22,0,0,0-.17.07.23.23,0,0,0-.05.26,4.35,4.35,0,0,1,.09,3.48h0c-.12.31-.4.88-.82,1.67a21.33,21.33,0,0,0-1,2,18.26,18.26,0,0,1-.91,2,5.2,5.2,0,0,1-2,2A5.43,5.43,0,0,1,37.9,91.79Z"/><path class="cls-5" d="M47.88,36a2,2,0,0,1-2-2c0-.1,0-.2,0-.3h.66c1.11,0,2.21,0,3.28.1a1.41,1.41,0,0,1,0,.2A2,2,0,0,1,47.88,36Z"/><path class="cls-5" d="M26.17,41.49a2.5,2.5,0,0,1-2.46-2.07,42,42,0,0,1,4.21-2.22,2.5,2.5,0,0,1-1.75,4.29Z"/><path class="cls-5" d="M23.35,81.07a.49.49,0,0,1-.34-.14h0a.53.53,0,0,1-.18-.37h0a5.56,5.56,0,0,1,.7-2.93l0,0a6.52,6.52,0,0,1,2-2.27,9.72,9.72,0,0,1,5.59-1.67h.23a21.29,21.29,0,0,1,2.64.18c.66.09,1.6.26,2.79.49a.55.55,0,0,1,.35.23.57.57,0,0,1-.15.77.55.55,0,0,1-.29.09H36.6c-1.15-.22-2.07-.38-2.73-.47a17,17,0,0,0-2.36-.17h-.34a8.72,8.72,0,0,0-5,1.46,5.69,5.69,0,0,0-1.69,1.9,4.62,4.62,0,0,0-.58,2.39h0a.5.5,0,0,1-.15.39h0a.49.49,0,0,1-.38.17h0Z"/><path class="cls-5" d="M25.1,82.2l-.12,0a.51.51,0,0,1-.35-.23h0a.53.53,0,0,1-.09-.42,4.21,4.21,0,0,1,.79-1.69l0,0a5.45,5.45,0,0,1,1.31-1.22A8.22,8.22,0,0,1,30,77.37a13.08,13.08,0,0,1,2.23-.19,13.31,13.31,0,0,1,4,.63.54.54,0,0,1,.33.26.58.58,0,0,1,0,.43.57.57,0,0,1-.29.32.47.47,0,0,1-.25.07l-.16,0a12,12,0,0,0-3.69-.58,13.11,13.11,0,0,0-2.06.17,7.25,7.25,0,0,0-2.87,1,4.25,4.25,0,0,0-1,1,.12.12,0,0,0-.05,0,3.35,3.35,0,0,0-.58,1.26.54.54,0,0,1-.24.35A.55.55,0,0,1,25.1,82.2Z"/><path class="cls-5" d="M54.12,80.1a.57.57,0,0,1-.35-.12.55.55,0,0,1-.2-.37h0a.5.5,0,0,1,.11-.39h0a6.56,6.56,0,0,0,1.14-3.65,6.93,6.93,0,0,0-.67-3.8h0a.49.49,0,0,1,0-.41.54.54,0,0,1,.25-.35h0a.4.4,0,0,1,.24-.07.47.47,0,0,1,.16,0h0a.52.52,0,0,1,.34.26,7.68,7.68,0,0,1,.83,4.42,7.29,7.29,0,0,1-1.39,4.27h0a.49.49,0,0,1-.35.2Z"/><path class="cls-5" d="M60.59,78.36l-.14,0a.5.5,0,0,1-.34-.24h0a.47.47,0,0,1-.07-.41,7.26,7.26,0,0,0-.94-5.46.44.44,0,0,1-.07-.4h0a.48.48,0,0,1,.23-.34.49.49,0,0,1,.28-.09h.14a.54.54,0,0,1,.35.25,8.23,8.23,0,0,1,1.18,3,8.12,8.12,0,0,1-.09,3.26.55.55,0,0,1-.53.43Z"/><path class="cls-5" d="M16.34,69a22,22,0,0,1-2.54-.16l-.09,0h0c-1.48-.21-2.55-.36-3.21-.44a.52.52,0,0,1-.36-.21.53.53,0,0,1-.12-.41.56.56,0,0,1,.21-.37.51.51,0,0,1,.33-.11h.08c.66.08,1.75.24,3.22.45h0a22,22,0,0,0,2.54.16l.82,0A6.24,6.24,0,0,0,22.44,65a.25.25,0,0,0,0-.11,1.67,1.67,0,0,0-.25-1l0,0a3,3,0,0,0-.92-1l0,0c-.06,0-.52-.27-2.34-1.27a14.47,14.47,0,0,1-2.65-1.75l0,0a14.87,14.87,0,0,1-2.93-3.75l0,0a9.1,9.1,0,0,1-1-4.58.55.55,0,0,1,.18-.38h0a.5.5,0,0,1,.37-.15h0a.49.49,0,0,1,.37.18h0a.5.5,0,0,1,.15.39,8,8,0,0,0,.91,4.07A14.48,14.48,0,0,0,17,59h0a13.41,13.41,0,0,0,2.45,1.61L21.9,62a4.26,4.26,0,0,1,1.3,1.38,2.66,2.66,0,0,1,.34,1.93h0v.08l0,.07A6.66,6.66,0,0,1,21,68a8.54,8.54,0,0,1-3.71,1c-.3,0-.62,0-.95,0Z"/><path class="cls-5" d="M26.8,66.51a7.48,7.48,0,0,1-3.93-1.09.56.56,0,0,1-.25-.34h0a.49.49,0,0,1,.06-.41h0A.51.51,0,0,1,23,64.4h.12a.52.52,0,0,1,.29.09h0a6.56,6.56,0,0,0,3.39.92,8.53,8.53,0,0,0,2.07-.27l.13,0a.59.59,0,0,1,.53.42h0a.51.51,0,0,1-.06.42.48.48,0,0,1-.34.25h0a9.51,9.51,0,0,1-2.36.31Z"/><path class="cls-5" d="M67.76,71.2a13.27,13.27,0,0,1-5.29-1,8.26,8.26,0,0,1-3.91-3,4.73,4.73,0,0,1-.72-2.53,3.55,3.55,0,0,1,.94-2.47h0A4.33,4.33,0,0,1,62,60.89h.39c.73,0,1.75.06,3.05.18H66a10.1,10.1,0,0,0,4.59-1A6.84,6.84,0,0,0,73.9,56.4a16.57,16.57,0,0,0,.74-6.9,18,18,0,0,0-1.49-6.82.54.54,0,0,1,0-.43.55.55,0,0,1,.28-.32.49.49,0,0,1,.23-.06l.18,0a.54.54,0,0,1,.33.28,18.67,18.67,0,0,1,1.61,7.25,17.24,17.24,0,0,1-.82,7.38A7.91,7.91,0,0,1,71.09,61,11,11,0,0,1,66,62.17h-.58c-1.24-.11-2.23-.17-2.94-.17h-.4a3.44,3.44,0,0,0-2.48.91h0A2.49,2.49,0,0,0,59,64.65a3.54,3.54,0,0,0,.54,1.94h0a7.42,7.42,0,0,0,3.41,2.57,12.15,12.15,0,0,0,4.82.93c.33,0,.67,0,1,0a27.71,27.71,0,0,0,6.08-1.14h0l.16,0a.44.44,0,0,1,.24.07h0a.61.61,0,0,1,.27.34.5.5,0,0,1-.05.41.55.55,0,0,1-.33.27,28.65,28.65,0,0,1-6.33,1.2Z"/><path class="cls-5" d="M63.76,51.38a.5.5,0,0,1-.17,0,.57.57,0,0,1-.34-.27c-1.91-3.5-4.34-5.66-7.22-6.41h0a21.07,21.07,0,0,0-3.6-.45A18.48,18.48,0,0,1,49,43.81a3.49,3.49,0,0,1-2.07-1.62l0,0a5.35,5.35,0,0,1-.8-2.4,7.85,7.85,0,0,1,.59-3.3,5.79,5.79,0,0,1,1.77-2.84h0a.6.6,0,0,1,.31-.1h.1a.62.62,0,0,1,.37.22.6.6,0,0,1,.09.42.51.51,0,0,1-.22.35h0a5.19,5.19,0,0,0-1.39,2.32,7.1,7.1,0,0,0-.52,2.81,4.24,4.24,0,0,0,.66,2,2.62,2.62,0,0,0,1.43,1.14h0a17.76,17.76,0,0,0,3.22.38,23.67,23.67,0,0,1,3.8.47,10.39,10.39,0,0,1,4.35,2.31,16.85,16.85,0,0,1,3.57,4.65h0a.46.46,0,0,1,0,.41h0a.58.58,0,0,1-.27.33.53.53,0,0,1-.24.06Z"/><path class="cls-5" d="M32.9,47.05a7.36,7.36,0,0,1-4.44-1.49,7.05,7.05,0,0,1-2.14-2.77,7,7,0,0,1-.63-3.45.54.54,0,0,1,.19-.38.49.49,0,0,1,.34-.14h.05a.52.52,0,0,1,.39.19.54.54,0,0,1,.13.4,5.79,5.79,0,0,0,.52,2.88s0,0,0,.05a6.19,6.19,0,0,0,1.78,2.3l0,0a6,6,0,0,0,2.73,1.17,7.15,7.15,0,0,0,1,.08,6.07,6.07,0,0,0,1.94-.32,30.71,30.71,0,0,0,5.75-3.14c2.81-1.84,4.7-3.21,5.43-4.37a1.93,1.93,0,0,0,.23-.43c0-.07.07-.17.11-.25a.74.74,0,0,0,.27.36.56.56,0,0,1,.26.34.57.57,0,0,1,0,.43c-.7,1.24-2.61,2.87-5.66,4.85a30.57,30.57,0,0,1-6,3.26,6.94,6.94,0,0,1-2.3.38Z"/><path class="cls-5" d="M48.35,65.5a.4.4,0,0,1-.15,0,.53.53,0,0,1-.34-.24.55.55,0,0,1-.06-.43.57.57,0,0,1,.26-.33A10.66,10.66,0,0,1,53.21,63h.39a10.66,10.66,0,0,1,4.83,1.14.52.52,0,0,1,.28.32.61.61,0,0,1,0,.42.53.53,0,0,1-.32.27h0l-.2,0a.64.64,0,0,1-.23,0,9.54,9.54,0,0,0-4.38-1h-.32a9.67,9.67,0,0,0-4.6,1.31.63.63,0,0,1-.28.08Z"/><path class="cls-5" d="M48.05,67a2,2,0,1,1,2-2A2,2,0,0,1,48.05,67Z"/><circle class="cls-5" cx="29.42" cy="65.66" r="1.82"/><path class="cls-3" d="M15.1,64.59l-.18,0a9.32,9.32,0,0,1-2.9-1.8,18.56,18.56,0,0,1-2.38-2.4.49.49,0,0,1-.11-.4h0a.51.51,0,0,1,.2-.37.47.47,0,0,1,.31-.12h.08a.55.55,0,0,1,.39.2,16.82,16.82,0,0,0,2.23,2.24,9.08,9.08,0,0,0,2.54,1.61h0a.51.51,0,0,1,.31.28.49.49,0,0,1,0,.41.54.54,0,0,1-.27.32A.57.57,0,0,1,15.1,64.59Z"/><path class="cls-3" d="M52,80.43a19.7,19.7,0,0,1-4-.33,12.5,12.5,0,0,1-7.14-4.41.54.54,0,0,1-.12-.38.51.51,0,0,1,.2-.36h0a.44.44,0,0,1,.31-.11h.06a.49.49,0,0,1,.35.2,11.42,11.42,0,0,0,6.55,4,19.08,19.08,0,0,0,3.83.32c1,0,2.23,0,3.54-.14a13.25,13.25,0,0,0,3.52-.8l0,0a14.29,14.29,0,0,0,3.15-1.71,8.13,8.13,0,0,0,2.31-2.62s0,0,0,0a6.21,6.21,0,0,0,.78-3l1.06,0a7.2,7.2,0,0,1-1,3.56,9,9,0,0,1-2.61,3,14.69,14.69,0,0,1-3.44,1.87,13.71,13.71,0,0,1-3.81.86C54.27,80.38,53,80.43,52,80.43Z"/><path class="cls-3" d="M18.21,75.2a11.73,11.73,0,0,1-3.43-.65,6.39,6.39,0,0,1-3.38-2.43A11.55,11.55,0,0,1,9.55,67.3a26.51,26.51,0,0,1,.32-9.93,24.08,24.08,0,0,1,4.18-9.27,31.63,31.63,0,0,1,7.69-7.41A41,41,0,0,1,32,35.61a44.77,44.77,0,0,1,11.71-2.29c1.14-.07,2.29-.11,3.41-.11a48.75,48.75,0,0,1,14.25,2A41.22,41.22,0,0,1,68.5,38.2a33.11,33.11,0,0,1,6,4.09.09.09,0,0,0,0,0A27.51,27.51,0,0,1,79,47.21a22.13,22.13,0,0,1,2.83,5.51,18.65,18.65,0,0,1,.07,12.08h0c-.48,1.63-2.19,3.17-5.09,4.57a26.63,26.63,0,0,1-8,2.39,48.21,48.21,0,0,1-6.69.47,51.9,51.9,0,0,1-5.55-.31c-1.19-.14-2.94-.39-5.19-.75h0c-2.28-.37-4-.62-5.24-.77l-.09,0c-2.25-.29-3.89-.49-4.88-.6l-.07,0A39.85,39.85,0,0,0,37,69.41h-.47a24.06,24.06,0,0,0-8,1.45h0a30.47,30.47,0,0,0-4.43,2c-.75.41-1.7.94-2.82,1.59h0l0,0a6.73,6.73,0,0,1-2.71.77h-.31ZM47.1,34.33c-1.1,0-2.23,0-3.36.1a43.53,43.53,0,0,0-11.43,2.23,39.22,39.22,0,0,0-9.93,4.94,30.79,30.79,0,0,0-7.44,7.15,22.6,22.6,0,0,0-4,8.84,25.39,25.39,0,0,0-.33,9.52c.61,3.43,2.12,5.58,4.48,6.38h0a10.76,10.76,0,0,0,3.17.6h.18a6,6,0,0,0,2.23-.64h0c1.11-.65,2.07-1.19,2.83-1.6a29.85,29.85,0,0,1,4.6-2,25,25,0,0,1,8.31-1.5H37c1.12,0,2.56.15,4.26.37l5,.62c1.2.15,3,.41,5.35.78s4,.61,5.18.74h0a47.49,47.49,0,0,0,11.94-.14,25.51,25.51,0,0,0,7.62-2.31c2.5-1.2,4-2.51,4.52-3.9h0a17.54,17.54,0,0,0-.07-11.36,23.18,23.18,0,0,0-7-10A35.34,35.34,0,0,0,61,36.32,48,48,0,0,0,47.1,34.33Z"/><path class="cls-3" d="M52.74,39.24l-.11,0h0a.44.44,0,0,1-.34-.22.51.51,0,0,1-.09-.41h0a6.89,6.89,0,0,1,1.19-3.13l.06,0a4.27,4.27,0,0,1,3.08-1.32h.06a.61.61,0,0,1,.35.13.51.51,0,0,1,.2.36.58.58,0,0,1-.51.62,3.6,3.6,0,0,0-2.35.94h0a5.91,5.91,0,0,0-1,2.65.56.56,0,0,1-.24.35A.54.54,0,0,1,52.74,39.24Z"/><path class="cls-3" d="M31.83,42.16l-.18,0a.48.48,0,0,1-.31-.28h0a.51.51,0,0,1,0-.42.52.52,0,0,1,.29-.31L35,39.5l3.34-1.62a7,7,0,0,0,2.5-1.81l0,0a.85.85,0,0,0-.27-1,.49.49,0,0,1-.18-.38h0a.55.55,0,0,1,.13-.41.53.53,0,0,1,.37-.18h.07a.48.48,0,0,1,.34.13,2.19,2.19,0,0,1,.79,1.21,1.76,1.76,0,0,1-.33,1.27h0a7.08,7.08,0,0,1-2.93,2.22c-.88.44-2,1-3.32,1.62h0l-3.37,1.62A.64.64,0,0,1,31.83,42.16Z"/><path class="cls-3" d="M31.75,62.08a12,12,0,0,1-4.24-.89,13.75,13.75,0,0,1-3.39-1.87,9.2,9.2,0,0,1-2.48-2.57,16.76,16.76,0,0,1-2.2-6.86,18.93,18.93,0,0,1,.28-7.22.57.57,0,0,1,.27-.34h0a.51.51,0,0,1,.26-.07l.15,0a.52.52,0,0,1,.34.26h0a.51.51,0,0,1,.06.42,18,18,0,0,0-.27,6.8,15.93,15.93,0,0,0,2,6.41,8.64,8.64,0,0,0,2.19,2.27,13.17,13.17,0,0,0,3.13,1.72,10.75,10.75,0,0,0,3.8.8,6.14,6.14,0,0,0,2.52-.51h0a11.23,11.23,0,0,0,2.91-2.26l1.31-1.42,0,0c.56-.6,1-1.08,1.45-1.44a21.43,21.43,0,0,1,8.4-4.75,16.21,16.21,0,0,1,4.35-.62c.39,0,.8,0,1.19,0a15.68,15.68,0,0,1,3,.44h0A5.81,5.81,0,0,1,59.45,52l0,0L61.22,54l0,0a6.77,6.77,0,0,0,2,1.26,3.68,3.68,0,0,0,1.47.32,3.89,3.89,0,0,0,1.61-.37,3.49,3.49,0,0,0,2-2.32A6.06,6.06,0,0,0,68.42,50h0A10.24,10.24,0,0,0,67,47.1a19.12,19.12,0,0,0-8.68-7.25.48.48,0,0,1-.29-.3.54.54,0,0,1,0-.43h0a.46.46,0,0,1,.29-.29h0a.49.49,0,0,1,.2,0,.53.53,0,0,1,.2,0h0A19.82,19.82,0,0,1,64,42a19.6,19.6,0,0,1,4,4.53,11.45,11.45,0,0,1,1.53,3.17,6.94,6.94,0,0,1-.1,3.52,4.48,4.48,0,0,1-2.58,3,5,5,0,0,1-2.09.49,4.82,4.82,0,0,1-1.9-.41,8.1,8.1,0,0,1-2.35-1.48l0,0h0l-1.77-2a4.61,4.61,0,0,0-2.1-1.36,15.47,15.47,0,0,0-2.77-.39h0c-.36,0-.72-.05-1.09-.05a14.58,14.58,0,0,0-4.06.6,20.32,20.32,0,0,0-8,4.51,18.68,18.68,0,0,0-1.37,1.35.1.1,0,0,0,0,.05c-.58.63-1,1.1-1.33,1.41a11.63,11.63,0,0,1-3.23,2.51A6.82,6.82,0,0,1,31.75,62.08Z"/><path class="cls-3" d="M32.55,53a5.31,5.31,0,0,1-2-.38h0a29.58,29.58,0,0,1-3.21-1.45l0,0a5.85,5.85,0,0,1-2.55-2.4h0a.51.51,0,0,1,0-.42h0a.49.49,0,0,1,.27-.31.53.53,0,0,1,.23-.06.65.65,0,0,1,.19,0h0a.53.53,0,0,1,.31.28h0a5.15,5.15,0,0,0,2.05,1.89l.05,0a23.18,23.18,0,0,0,3.12,1.41h0a5,5,0,0,0,1.69.27A12.83,12.83,0,0,0,38,50.25a25.6,25.6,0,0,0,3.55-2.12,14.06,14.06,0,0,0,2.27-1.94.49.49,0,0,1,.38-.18h.07a.53.53,0,0,1,.34.14.56.56,0,0,1,.19.37.57.57,0,0,1-.14.41A15.2,15.2,0,0,1,42.22,49a27.4,27.4,0,0,1-3.72,2.21.05.05,0,0,0,0,0A14,14,0,0,1,32.55,53Z"/><path class="cls-3" d="M31,57.74a.54.54,0,0,1-.21-.05.57.57,0,0,1-.3-.33.53.53,0,0,1,0-.41,3.78,3.78,0,0,0,0-2.87A3.21,3.21,0,0,0,28.82,52h0a.55.55,0,0,1-.31-.29.51.51,0,0,1,0-.42h0a.49.49,0,0,1,.28-.3.53.53,0,0,1,.24-.06.63.63,0,0,1,.19,0,4.11,4.11,0,0,1,2.39,2.77,4.77,4.77,0,0,1-.05,3.69.6.6,0,0,1-.32.29.71.71,0,0,1-.2,0Z"/><path class="cls-3" d="M68.54,66.81a21.11,21.11,0,0,1-4.73-.58.52.52,0,0,1-.35-.25h0a.54.54,0,0,1-.07-.41.49.49,0,0,1,.25-.34h0a.51.51,0,0,1,.29-.08h.13a19.9,19.9,0,0,0,4.35.53,10.29,10.29,0,0,0,8.88-4.35,15.28,15.28,0,0,0,2.26-5.28s0,0,0,0a20.79,20.79,0,0,0,.55-4.69.51.51,0,0,1,.16-.38h0a.48.48,0,0,1,.38-.17.56.56,0,0,1,.56.55,21.62,21.62,0,0,1-.58,5A16.37,16.37,0,0,1,78.21,62a10.9,10.9,0,0,1-4.09,3.64A12.39,12.39,0,0,1,68.54,66.81Z"/><path class="cls-3" d="M36.86,73.27a.47.47,0,0,1,.17-.38h0a.48.48,0,0,1,.38-.17.54.54,0,0,1,.4.17.51.51,0,0,1,.16.39V91a.25.25,0,0,0,.08.18.25.25,0,0,0,.16.06h0a5.86,5.86,0,0,0,2.39-.9l0,0a5.85,5.85,0,0,0,2.19-2.6s0,0,0,0c.12-.27.24-.57.37-.89a.09.09,0,0,0,0,0c.19-.47.51-1.18,1-2.12A19.24,19.24,0,0,0,45,82.79,4.83,4.83,0,0,0,45,79.2h0a.51.51,0,0,1,0-.42.44.44,0,0,1,.29-.3h0a.47.47,0,0,1,.42,0h0a.5.5,0,0,1,.3.29,5.76,5.76,0,0,1,.12,4.4c-.15.43-.44,1.08-.84,1.93l0,0c-.43.91-.75,1.61-.92,2.08s-.25.65-.38.93c0,0,0,0,0,.05a7,7,0,0,1-6.47,4.23l-.55,0Z"/><path class="cls-3" d="M29.85,84.81a8.58,8.58,0,0,1-2.73-.43,7.43,7.43,0,0,1-3.3-2.25v0h0a7.47,7.47,0,0,1-1.73-3.59h0a7.48,7.48,0,0,1,.34-4,7.69,7.69,0,0,1,2.29-3.28.48.48,0,0,1,.34-.13h.07a.53.53,0,0,1,.37.18.49.49,0,0,1,.12.4.56.56,0,0,1-.19.39,6.44,6.44,0,0,0-1.93,2.77s0,0,0,0a6.44,6.44,0,0,0-.3,3.41,6.65,6.65,0,0,0,4.31,5,7.5,7.5,0,0,0,2.4.37,11.15,11.15,0,0,0,2.42-.29,31.11,31.11,0,0,0,4.93-1.78.48.48,0,0,1,.23,0,.63.63,0,0,1,.19,0,.55.55,0,0,1,.31.29.61.61,0,0,1,0,.44.59.59,0,0,1-.3.3,32.31,32.31,0,0,1-5.12,1.85A12.53,12.53,0,0,1,29.85,84.81Z"/><path class="cls-3" d="M45.73,75.73a2.62,2.62,0,0,1-2.13-1h0a2.83,2.83,0,0,1-.53-3l0-.06a2.88,2.88,0,0,1,2.22-2.13h0A2.68,2.68,0,0,1,46,69.5a3,3,0,0,1,2.27,1.16s0,0,0,0a2.82,2.82,0,0,1,.68,3h0a2.84,2.84,0,0,1-2.38,2,4.12,4.12,0,0,1-.83.09Zm.16-5.1a1.84,1.84,0,0,0-.33,0h0a1.94,1.94,0,0,0-1.42,1.4,1.89,1.89,0,0,0,.29,2h0a1.79,1.79,0,0,0,1.37.59,2.62,2.62,0,0,0,.54-.06,1.92,1.92,0,0,0,1.53-1.17.19.19,0,0,0,0-.08,2,2,0,0,0-.49-1.91h0A2.06,2.06,0,0,0,45.89,70.63Z"/><path class="cls-3" d="M34.31,69.55a.55.55,0,0,1-.28-.07.48.48,0,0,1-.25-.33h0a.53.53,0,0,1,.38-.67h0A11.55,11.55,0,0,0,38,66.58h0a24.74,24.74,0,0,0,3.07-2.87c.64-.7,1.57-1.75,2.79-3.11l0,0A15,15,0,0,1,47,58a9.78,9.78,0,0,1,4.88-1.32,9.24,9.24,0,0,1,2.09.24.48.48,0,0,1,.34.25.55.55,0,0,1,.07.42.6.6,0,0,1-.25.34h0a.49.49,0,0,1-.28.09l-.13,0a8.11,8.11,0,0,0-1.84-.21,9.75,9.75,0,0,0-1.31.1,8.56,8.56,0,0,0-3,1.07,13.74,13.74,0,0,0-2.85,2.37h0l-2.81,3.11a24.86,24.86,0,0,1-3.23,3l0,0a12.72,12.72,0,0,1-4.17,2Z"/><circle class="cls-3" cx="78.24" cy="7.83" r="7.83"/><path class="cls-1" d="M314.67,99.82,289.4,56h10.88l19.1,33.09L338.53,56h10.92L324.13,99.82v29.34h-9.46Z"/><path class="cls-1" d="M374.75,78.29a26,26,0,0,1,26,26.05,26,26,0,1,1-44.38-18.42A25,25,0,0,1,374.75,78.29ZM363.22,92.82A16.28,16.28,0,1,0,374.75,88,15.73,15.73,0,0,0,363.22,92.82Z"/><path class="cls-1" d="M430.9,129.8q-8.91,0-14.35-5.44A19,19,0,0,1,411,110.74V82.13h9.5v28.24a9.45,9.45,0,0,0,3,7,10.11,10.11,0,0,0,7.4,2.92,9.83,9.83,0,0,0,7.06-2.9,9.4,9.4,0,0,0,3-7V82.13h9.46v28.61A18.75,18.75,0,0,1,430.9,129.8Z"/><path class="cls-1" d="M472.8,123.31v5.85h-9.46V56h9.46V85.37q6.85-7.08,15.95-7.08a26,26,0,0,1,26,26.05,26,26,0,0,1-26,26Q479.65,130.39,472.8,123.31Zm0-22.62V108a15.21,15.21,0,0,0,4.38,7.82,16.43,16.43,0,0,0,23.11,0,16.32,16.32,0,0,0-23.11-23A15.23,15.23,0,0,0,472.8,100.69Z"/><path class="cls-1" d="M536.76,64.72a6.6,6.6,0,0,1,0,9.41,6.68,6.68,0,0,1-9.37,0,6.63,6.63,0,0,1,0-9.41,6.68,6.68,0,0,1,9.37,0Zm0,17.41v47h-9.46v-47Z"/><path class="cls-1" d="M577.31,56v73.13h-9.46V56Z"/><path class="cls-1" d="M632,85.37V56h9.51v73.13H632v-5.85q-6.85,7.08-15.95,7.08a26,26,0,0,1-26-26,26,26,0,0,1,26-26Q625.19,78.29,632,85.37Zm0,22.49v-7a15.13,15.13,0,0,0-4.43-8.05,16.3,16.3,0,1,0-23.06,23,16.37,16.37,0,0,0,23.06,0A15.1,15.1,0,0,0,632,107.86Z"/><path class="cls-1" d="M664,88.48q5.31-7.17,13-7.54v9.83a12.06,12.06,0,0,0-8.23,3.33A15.45,15.45,0,0,0,664,105v24.18h-9.46v-47H664Z"/><path class="cls-1" d="M696.54,64.72a6.63,6.63,0,0,1,0,9.41,6.68,6.68,0,0,1-9.37,0,6.63,6.63,0,0,1,0-9.41,6.68,6.68,0,0,1,9.37,0Zm.05,17.41v47h-9.47v-47Z"/><path class="cls-1" d="M719.83,119.06a5.6,5.6,0,0,0,4,1.64,5.65,5.65,0,0,0,5.67-5.71,5.43,5.43,0,0,0-1.65-4,33.39,33.39,0,0,0-4.89-3.52,32.85,32.85,0,0,1-7.26-4.93,12.27,12.27,0,0,1-3.75-9,12.84,12.84,0,0,1,12.8-12.85,11.89,11.89,0,0,1,8.82,3.57,11.38,11.38,0,0,1,3.2,5.62l-9.19,2.65A4.34,4.34,0,0,0,727,91a3,3,0,0,0-2.19-.82,3.35,3.35,0,0,0-3.34,3.34,3.18,3.18,0,0,0,1,2.33,33.71,33.71,0,0,0,3.93,2.78,38,38,0,0,1,8.23,5.67,15.15,15.15,0,0,1-10.7,25.87,14.47,14.47,0,0,1-10.69-4.48,14.86,14.86,0,0,1-4-7.63l9.41-2A5.72,5.72,0,0,0,719.83,119.06Z"/><path class="cls-1" d="M759.39,119.06a5.6,5.6,0,0,0,4,1.64,5.65,5.65,0,0,0,5.67-5.71,5.43,5.43,0,0,0-1.65-4,33.39,33.39,0,0,0-4.89-3.52,32.85,32.85,0,0,1-7.26-4.93,12.27,12.27,0,0,1-3.75-9,12.42,12.42,0,0,1,3.75-9.08,12.29,12.29,0,0,1,9.05-3.77,11.89,11.89,0,0,1,8.82,3.57,11.29,11.29,0,0,1,3.19,5.62l-9.18,2.65a4.34,4.34,0,0,0-.64-1.51,3,3,0,0,0-2.19-.82A3.35,3.35,0,0,0,761,93.56a3.18,3.18,0,0,0,1,2.33,33.71,33.71,0,0,0,3.93,2.78,38,38,0,0,1,8.23,5.67,15.15,15.15,0,0,1-10.7,25.87,14.47,14.47,0,0,1-10.69-4.48,14.86,14.86,0,0,1-4-7.63l9.41-2A5.72,5.72,0,0,0,759.39,119.06Z"/><path class="cls-1" d="M799.64,64.72a6.63,6.63,0,0,1,0,9.41,6.68,6.68,0,0,1-9.37,0,6.6,6.6,0,0,1,0-9.41,6.68,6.68,0,0,1,9.37,0Zm0,17.41v47h-9.46v-47Z"/></g></g></svg>