<svg xmlns="http://www.w3.org/2000/svg" xmlns:xlink="http://www.w3.org/1999/xlink" viewBox="0 0 805.74 494.24"><defs><style>.cls-1{fill:#384149;}.cls-2{fill:url(#radial-gradient);}.cls-3{fill:#1d7ca7;}.cls-4{fill:url(#radial-gradient-2);}.cls-5{fill:#eee;}</style><radialGradient id="radial-gradient" cx="135" cy="244.73" r="145.77" gradientTransform="translate(0 -20)" gradientUnits="userSpaceOnUse"><stop offset="0" stop-color="#53b4df"/><stop offset="1" stop-color="#1c9cd6"/></radialGradient><radialGradient id="radial-gradient-2" cx="192.19" cy="139.44" fx="277.8239209766305" fy="236.27736326678814" r="129.26" gradientTransform="matrix(1, 0, 0, 1, 0, 0)" xlink:href="#radial-gradient"/></defs><title>Artboard 11</title><g id="Layer_4" data-name="Layer 4"><path class="cls-1" d="M509.05,254.8v-9.63h26.23V382.9H509.05V365.65q-18.9,20.73-43.86,20.73-29.76,0-50.74-22.27t-21-53.82q0-31.55,21-53.82t50.74-22.26Q490.15,234.21,509.05,254.8Zm0,65.65V300.13A45.6,45.6,0,0,0,497,276.6q-13.23-13.91-31.76-13.91T433.36,276.6q-13.19,13.9-13.18,33.69t13.18,33.63q13.17,14,31.83,14T497,344A45.62,45.62,0,0,0,509.05,320.45Z"/><path class="cls-1" d="M679.35,254.67V168.82h26.22V382.76H679.35V365.65q-18.9,20.73-44,20.73-29.76,0-50.74-22.33t-21-53.89q0-31.56,21-53.89t50.74-22.33Q660.44,233.94,679.35,254.67Zm0,65.78V300q-2.26-13-12.22-23.54-13.12-14-31.77-14t-31.83,14a47.53,47.53,0,0,0-13.18,33.7q0,19.79,13.18,33.69t31.83,13.91q18.64,0,31.77-13.91Q677.08,333.29,679.35,320.45Z"/><path class="cls-1" d="M769.49,263.76q14.63-21,35.92-22.06v28.75q-14.24.8-22.69,9.76A46.46,46.46,0,0,0,769.49,312v70.73h-26.1V245.17h26.1Z"/><path class="cls-2" d="M210.06,68.64,197.7,90a138,138,0,0,1,17.75,7.85,124.09,124.09,0,0,1,11.34,6.85c2.19,1.49,4.29,3.06,6.34,4.67l23.56-40.74Zm-74,224-.22.15a42.55,42.55,0,0,1-22.78,6.81l-4.88.13v81.06H148.6V279.86A42.49,42.49,0,0,1,136.1,292.66ZM.32,68.64,32.86,125a114.83,114.83,0,0,1,8.47-8.48q1.26-1.12,2.55-2.22c1.2-1,.72-.62,3.66-3s13.83-9.53,14.12-9.69l1.31-.77,1.79-1-18-31.17Z"/><path class="cls-1" d="M350.87,200.07h0c-.31-.36-.63-.71-.94-1.06s-.75-.87-1.14-1.28c-1.52-1.62-3-3.16-4.52-4.64q-21.66-21.59-39-24.27h0c1-.26,2.05-.55,3-.86l1.14-.4c.57-.2,1.14-.39,1.69-.61s.93-.39,1.39-.59l1.24-.55c.51-.24,1-.5,1.48-.76.32-.17.63-.33.94-.51.52-.3,1-.61,1.52-.93l.7-.46c.53-.36,1-.74,1.54-1.12l.48-.39c.53-.42,1-.86,1.54-1.32.09-.09.17-.18.26-.26.54-.51,1.06-1,1.55-1.59h0q8-8.91,8-24.21,0-27.15-18.22-46.38T269.72,68.64H210.06V95.16q2.74,1.31,5.39,2.7a124.09,124.09,0,0,1,11.34,6.85c2.94,2,5.78,4.13,8.47,6.34l.22.11,1.94,1.68a106.88,106.88,0,0,1,10.76,10.73v-14.5h21.54q10.66,0,17.58,7.12t6.9,18.07q0,10.94-6.62,17.38A23,23,0,0,1,273,158.47h-63v41.6h58.55q27.06,0,46.31,20.41t19.24,49.11q0,29.1-19.34,50.19-17.49,19.34-29.27,20.12v.58H248.18V224a77.5,77.5,0,0,1-8.64,4.86,100.63,100.63,0,0,1-10.9,4.49,101.89,101.89,0,0,1-14.47,3.81,47.32,47.32,0,0,1-4.11,5.79V381.1h75.49v-.39q28.72-.39,57.26-31.83,30.38-33.39,30.38-79.29Q373.19,225.73,350.87,200.07Z"/><path class="cls-3" d="M210.06,68.64V95.16q2.74,1.31,5.39,2.7a124.09,124.09,0,0,1,11.34,6.85c2.94,2,5.78,4.13,8.47,6.34l.22.11,1.94,1.68a106.88,106.88,0,0,1,10.76,10.73V68.64Zm18.58,164.69a101.89,101.89,0,0,1-14.47,3.81,47.32,47.32,0,0,1-4.11,5.79V380.81h38.12V224a77.5,77.5,0,0,1-8.64,4.86A100.63,100.63,0,0,1,228.64,233.33Z"/><path class="cls-4" d="M113.23,275.76a1.74,1.74,0,0,1-1.27-.51,1.77,1.77,0,0,1-.51-1.27V247a.7.7,0,0,0-.3-.58.72.72,0,0,0-.4-.12.69.69,0,0,0-.25,0c-3.67,1.41-6.39,2.44-8.07,3.07a76,76,0,0,1-7.25,2.31,28.31,28.31,0,0,1-6.78.88,21.85,21.85,0,0,1-7-1.14c-4.45-1.53-8.09-4.75-10.82-9.58a20.56,20.56,0,0,1-2.19-6.09,20,20,0,0,1,.87-10.5,21.86,21.86,0,0,1,1.94-4.05.7.7,0,0,0-.6-1.07.84.84,0,0,0-.34.08c-1.88,1.05-4.09,2.3-6.57,3.73l0,0-.06,0a19.86,19.86,0,0,1-8.08,2.29h0c-.3,0-.6,0-.91,0a35.11,35.11,0,0,1-10.2-1.92,19.17,19.17,0,0,1-10.09-7.25c-2.6-3.59-4.46-8.42-5.51-14.36-1.57-8.87-1.25-18.82,1-29.56a71.79,71.79,0,0,1,12.45-27.63,94.49,94.49,0,0,1,22.92-22.06,122.77,122.77,0,0,1,30.43-15.15,133.53,133.53,0,0,1,34.89-6.82c3.4-.21,6.82-.31,10.15-.31A145.32,145.32,0,0,1,183,107.4a120.1,120.1,0,0,1,21.36,8.75,99,99,0,0,1,17.9,12.19l.14.09A81.17,81.17,0,0,1,235.72,143a65.5,65.5,0,0,1,8.44,16.44,55.47,55.47,0,0,1,.21,36v0c-1.43,4.84-6.52,9.42-15.15,13.59a79.91,79.91,0,0,1-23.69,7.14c-2.79.39-5.67.71-8.54.94a.7.7,0,0,0-.64.58A21.52,21.52,0,0,1,187,231.9a58.24,58.24,0,0,1-14,6.72,63.71,63.71,0,0,1-15.79,2.94c-1.64.1-3.25.15-4.77.15h0c-6.49,0-12-.92-16.46-2.74a.86.86,0,0,0-.27-.05.73.73,0,0,0-.5.21.7.7,0,0,0-.14.78,13,13,0,0,1,.27,10.38h0a54.34,54.34,0,0,1-2.44,5,65.37,65.37,0,0,0-2.86,6.09,56.8,56.8,0,0,1-2.7,6.08,15.8,15.8,0,0,1-6,5.9A16.06,16.06,0,0,1,113.23,275.76Z"/><path class="cls-5" d="M143,109.65a5.92,5.92,0,0,1-5.92-5.92,7.09,7.09,0,0,1,.07-.9h2c3.3,0,6.57.1,9.75.3,0,.2,0,.41,0,.61A5.92,5.92,0,0,1,143,109.65Z"/><path class="cls-5" d="M78.29,125.94A7.42,7.42,0,0,1,71,119.77a120.79,120.79,0,0,1,12.52-6.59,7.43,7.43,0,0,1-5.19,12.76Z"/><path class="cls-5" d="M69.89,243.83a1.41,1.41,0,0,1-1-.4l0,0a1.49,1.49,0,0,1-.54-1.11h0a16.35,16.35,0,0,1,2.08-8.74.41.41,0,0,0,.07-.11,19.62,19.62,0,0,1,6-6.74c4.31-3.15,9.91-4.83,16.65-5h.7a61.44,61.44,0,0,1,7.85.56c2,.27,4.77.75,8.3,1.45a1.68,1.68,0,0,1,1.05.67,1.63,1.63,0,0,1,.23,1.24,1.77,1.77,0,0,1-.68,1.08,1.63,1.63,0,0,1-.87.26,1.47,1.47,0,0,1-.36,0c-3.41-.66-6.14-1.13-8.11-1.4a53.63,53.63,0,0,0-7-.51h-1c-5.92.12-10.9,1.59-14.79,4.35A17,17,0,0,0,73.32,235a13.78,13.78,0,0,0-1.73,7.09v0a1.43,1.43,0,0,1-.42,1.15h0a1.48,1.48,0,0,1-1.11.52h-.15Z"/><path class="cls-5" d="M75.09,247.2a1.45,1.45,0,0,1-.35,0,1.57,1.57,0,0,1-1-.68h0a1.57,1.57,0,0,1-.27-1.24,12.81,12.81,0,0,1,2.35-5.06.46.46,0,0,0,.08-.13,16.61,16.61,0,0,1,3.91-3.65,25.15,25.15,0,0,1,9.82-3.58,41.5,41.5,0,0,1,6.64-.55,40.29,40.29,0,0,1,12,1.86,1.57,1.57,0,0,1,1,.8,1.63,1.63,0,0,1,.11,1.26,1.65,1.65,0,0,1-.84,1,1.53,1.53,0,0,1-1.23.14,36.2,36.2,0,0,0-17.14-1.2,21.67,21.67,0,0,0-8.53,3A12.85,12.85,0,0,0,78.53,242a.86.86,0,0,0-.13.14,10.2,10.2,0,0,0-1.73,3.77,1.72,1.72,0,0,1-.73,1A1.56,1.56,0,0,1,75.09,247.2Z"/><path class="cls-5" d="M161.54,241a1.57,1.57,0,0,1-1-.36,1.48,1.48,0,0,1-.6-1.09v0a1.43,1.43,0,0,1,.34-1.16l0,0c2-2.57,3.13-6.23,3.4-10.88s-.4-8.46-2-11.31v0a1.53,1.53,0,0,1-.17-1.23,1.58,1.58,0,0,1,.76-1h0a1.43,1.43,0,0,1,.73-.21,1.69,1.69,0,0,1,.48.07h0a1.54,1.54,0,0,1,1,.77c2,3.29,2.8,7.72,2.48,13.15s-1.74,9.8-4.16,12.73v0a1.44,1.44,0,0,1-1.06.59Z"/><path class="cls-5" d="M180.8,235.76a1.83,1.83,0,0,1-.4,0,1.44,1.44,0,0,1-1-.73h0a1.53,1.53,0,0,1-.23-1.24,21.39,21.39,0,0,0-2.79-16.24,1.46,1.46,0,0,1-.22-1.2v0a1.51,1.51,0,0,1,.68-1,1.5,1.5,0,0,1,1.23-.21h0a1.58,1.58,0,0,1,1,.73,24.48,24.48,0,0,1,3.25,18.75,1.58,1.58,0,0,1-.74,1,1.65,1.65,0,0,1-.84.24Z"/><path class="cls-5" d="M49,208a67.24,67.24,0,0,1-7.57-.48.75.75,0,0,0-.26-.05h0c-4.38-.63-7.6-1.08-9.55-1.33a1.54,1.54,0,0,1-1.08-.63,1.6,1.6,0,0,1,.28-2.31,1.6,1.6,0,0,1,1-.33H32c2,.25,5.21.7,9.61,1.33h0a69.43,69.43,0,0,0,7.55.47c.85,0,1.68,0,2.45-.07,7.08-.47,12.3-3.33,15.54-8.52a.67.67,0,0,0,.1-.3,4.9,4.9,0,0,0-.74-3l-.09-.11a9.08,9.08,0,0,0-2.73-2.87l-.11-.06c-.17-.09-1.53-.82-7-3.79a42.86,42.86,0,0,1-7.9-5.22.69.69,0,0,0-.11-.13,44.94,44.94,0,0,1-8.74-11.18,1.25,1.25,0,0,0-.08-.12,27.13,27.13,0,0,1-3-13.64,1.62,1.62,0,0,1,.55-1.14h0a1.54,1.54,0,0,1,1.1-.42h.07a1.49,1.49,0,0,1,1.11.51v0a1.52,1.52,0,0,1,.46,1.16,23.7,23.7,0,0,0,2.72,12.11,42.38,42.38,0,0,0,8.11,10.36h0A39.23,39.23,0,0,0,58.24,183c5.64,3.11,7,3.83,7.32,4a12.49,12.49,0,0,1,3.86,4.12,7.69,7.69,0,0,1,1,5.73s0,0,0,.05l0,.24-.12.2a19.72,19.72,0,0,1-7.38,7.43,25.38,25.38,0,0,1-11.05,3.06c-.89.06-1.84.09-2.83.09Z"/><path class="cls-5" d="M80.14,200.47a22.17,22.17,0,0,1-11.7-3.25,1.59,1.59,0,0,1-.74-1v0a1.41,1.41,0,0,1,.19-1.21v0a1.63,1.63,0,0,1,1-.76,1.47,1.47,0,0,1,.36,0,1.57,1.57,0,0,1,.86.26h0a19.57,19.57,0,0,0,10.11,2.74,25.33,25.33,0,0,0,6.14-.8,1.87,1.87,0,0,1,.4,0,1.69,1.69,0,0,1,.85.24,1.47,1.47,0,0,1,.73,1v0a1.58,1.58,0,0,1-.16,1.26,1.68,1.68,0,0,1-1,.74h0a29.58,29.58,0,0,1-7,.91Z"/><path class="cls-5" d="M202.15,214.43a39.36,39.36,0,0,1-15.73-3c-5.57-2.41-9.5-5.43-11.66-9a13.91,13.91,0,0,1-2.14-7.54,10.55,10.55,0,0,1,2.79-7.38l0,0c2.07-2.36,5.34-3.63,9.71-3.79l1.14,0c2.17,0,5.23.18,9.1.54h0l1.45,0a29.73,29.73,0,0,0,13.67-3.08,20.44,20.44,0,0,0,9.92-10.83c2-5,2.71-11.92,2.19-20.56s-2-15.4-4.44-20.33a1.54,1.54,0,0,1-.09-1.26,1.66,1.66,0,0,1,.83-1,1.49,1.49,0,0,1,1.22-.09,1.7,1.7,0,0,1,1,.84c2.65,5.19,4.27,12.45,4.8,21.6s-.27,16.68-2.43,22a23.82,23.82,0,0,1-11.47,12.52,32.74,32.74,0,0,1-15.14,3.46h0l-1.64,0h-.09c-3.71-.35-6.66-.52-8.77-.52l-1.19,0c-3.23.09-5.72,1-7.4,2.73h0a7.46,7.46,0,0,0-1.89,5.16,10.53,10.53,0,0,0,1.62,5.77h0c2,3,5.37,5.6,10.15,7.66a36.17,36.17,0,0,0,14.37,2.75c1,0,2,0,3-.09a83.61,83.61,0,0,0,18.12-3.41h0a1.72,1.72,0,0,1,.48-.08,1.38,1.38,0,0,1,.71.21h0a1.69,1.69,0,0,1,.82,1,1.51,1.51,0,0,1-.15,1.24,1.63,1.63,0,0,1-1,.79,83.85,83.85,0,0,1-18.86,3.57C204.2,214.4,203.16,214.43,202.15,214.43Z"/><path class="cls-5" d="M190.24,155.42a1.73,1.73,0,0,1-.49-.08,1.62,1.62,0,0,1-1-.79c-5.7-10.44-12.94-16.88-21.51-19.11h0a64.07,64.07,0,0,0-10.7-1.33,55.18,55.18,0,0,1-10.35-1.24A10.56,10.56,0,0,1,140,128l-.1-.12a15.72,15.72,0,0,1-2.4-7.16c-.26-2.54.33-5.84,1.76-9.82,1.55-4.31,3.33-7.16,5.29-8.47h0a1.52,1.52,0,0,1,1.22-.28,1.66,1.66,0,0,1,1.1.65,1.58,1.58,0,0,1,.27,1.24,1.52,1.52,0,0,1-.64,1.06l0,0c-1.55,1.21-2.9,3.48-4.14,6.93a21.1,21.1,0,0,0-1.56,8.36,12.45,12.45,0,0,0,2,5.85,7.65,7.65,0,0,0,4.23,3.4l.13,0a55.07,55.07,0,0,0,9.6,1.12A67.27,67.27,0,0,1,168,132.24a30.59,30.59,0,0,1,13,6.88A50,50,0,0,1,191.63,153l0,0a1.44,1.44,0,0,1,.12,1.22v0a1.6,1.6,0,0,1-.78,1,1.49,1.49,0,0,1-.74.21Z"/><path class="cls-5" d="M98.34,142.52a22.29,22.29,0,0,1-3.62-.3,21.7,21.7,0,0,1-9.61-4.15,21,21,0,0,1-6.4-8.25,20.71,20.71,0,0,1-1.87-10.28,1.66,1.66,0,0,1,.57-1.14,1.49,1.49,0,0,1,1-.4h.17a1.74,1.74,0,0,1,1.15.57,1.62,1.62,0,0,1,.39,1.19,17.32,17.32,0,0,0,1.54,8.6.56.56,0,0,0,0,.12,18,18,0,0,0,5.3,6.86l.12.11A17.52,17.52,0,0,0,95.24,139a19.11,19.11,0,0,0,3.08.26,18,18,0,0,0,5.8-1c3.84-1.33,9.6-4.48,17.1-9.35,8.39-5.47,14-9.56,16.19-13a4.93,4.93,0,0,0,.68-1.28c.09-.21.22-.51.33-.73a2.24,2.24,0,0,0,.8,1.08,1.58,1.58,0,0,1,.77,1,1.67,1.67,0,0,1-.15,1.28c-2.09,3.68-7.75,8.54-16.84,14.43-7.84,5.1-13.84,8.37-17.82,9.73a21.34,21.34,0,0,1-6.84,1.14Z"/><path class="cls-5" d="M144.35,197.45a1.88,1.88,0,0,1-.46-.06,1.63,1.63,0,0,1-.41-3,31.91,31.91,0,0,1,15.34-4.34l1.16,0a31.58,31.58,0,0,1,14.39,3.39,1.58,1.58,0,0,1,.82,1,1.69,1.69,0,0,1-.08,1.25,1.57,1.57,0,0,1-1,.81h0a2,2,0,0,1-.57.1,1.59,1.59,0,0,1-.7-.16,28.71,28.71,0,0,0-13-3.06h-.95a28.55,28.55,0,0,0-13.73,3.91,1.78,1.78,0,0,1-.82.21Z"/><path class="cls-5" d="M143.47,201.81a5.92,5.92,0,1,1,5.91-5.91A5.92,5.92,0,0,1,143.47,201.81Z"/><circle class="cls-5" cx="87.96" cy="197.93" r="5.41"/><path class="cls-3" d="M45.31,194.76a1.79,1.79,0,0,1-.54-.09,27.85,27.85,0,0,1-8.65-5.37,55.21,55.21,0,0,1-7.07-7.13A1.53,1.53,0,0,1,28.7,181v0a1.56,1.56,0,0,1,.58-1.11,1.43,1.43,0,0,1,.95-.35h.24a1.71,1.71,0,0,1,1.15.6,51,51,0,0,0,6.63,6.69,26.89,26.89,0,0,0,7.57,4.78h0a1.59,1.59,0,0,1,.93.83,1.47,1.47,0,0,1,.09,1.23,1.53,1.53,0,0,1-.83,1A1.57,1.57,0,0,1,45.31,194.76Z"/><path class="cls-3" d="M155.06,241.93a59.27,59.27,0,0,1-11.89-1,37.22,37.22,0,0,1-21.25-13.14,1.55,1.55,0,0,1,.23-2.2l0,0a1.33,1.33,0,0,1,.93-.35h.19a1.53,1.53,0,0,1,1,.59,34,34,0,0,0,19.49,12,57.51,57.51,0,0,0,11.41.94c3.12,0,6.66-.14,10.54-.43A38.21,38.21,0,0,0,176.27,236a.31.31,0,0,0,.13-.06,41.94,41.94,0,0,0,9.37-5.09,24.22,24.22,0,0,0,6.9-7.8.47.47,0,0,0,.06-.15,19,19,0,0,0,2.32-8.82l3.14-.15a21.69,21.69,0,0,1-2.81,10.62,26.68,26.68,0,0,1-7.78,8.8,44.36,44.36,0,0,1-10.24,5.58A41.05,41.05,0,0,1,166,241.49C162,241.78,158.3,241.93,155.06,241.93Z"/><path class="cls-3" d="M54.56,226.35a35.11,35.11,0,0,1-10.2-1.92,19.17,19.17,0,0,1-10.09-7.25c-2.6-3.59-4.46-8.42-5.51-14.36-1.57-8.87-1.25-18.82,1-29.56a71.79,71.79,0,0,1,12.45-27.63,94.49,94.49,0,0,1,22.92-22.06,122.77,122.77,0,0,1,30.43-15.15,133.53,133.53,0,0,1,34.89-6.82c3.4-.21,6.82-.31,10.15-.31A145.32,145.32,0,0,1,183,107.4a120.1,120.1,0,0,1,21.36,8.75,99.46,99.46,0,0,1,17.9,12.18.71.71,0,0,0,.14.1A81.17,81.17,0,0,1,235.72,143a65.5,65.5,0,0,1,8.44,16.44,55.47,55.47,0,0,1,.21,36v0c-1.43,4.84-6.52,9.42-15.15,13.59a79.91,79.91,0,0,1-23.69,7.14,144.19,144.19,0,0,1-19.94,1.39,148.3,148.3,0,0,1-16.51-.93c-3.55-.41-8.76-1.15-15.47-2.21l-.08,0c-6.81-1.09-12.07-1.86-15.62-2.28a1.07,1.07,0,0,0-.27-.06c-6.68-.86-11.57-1.47-14.54-1.8a.59.59,0,0,0-.19-.05c-4.93-.62-9.07-1-12.33-1.06l-1.42,0a71.54,71.54,0,0,0-23.79,4.31l-.12,0a90.82,90.82,0,0,0-13.2,5.82c-2.25,1.21-5.07,2.81-8.39,4.72l0,0-.06,0a19.86,19.86,0,0,1-8.08,2.29h0C55.17,226.34,54.87,226.35,54.56,226.35ZM140.63,104.6c-3.29,0-6.66.11-10,.31a129.26,129.26,0,0,0-34,6.65A118.41,118.41,0,0,0,67,126.26a92,92,0,0,0-22.17,21.3A67.8,67.8,0,0,0,33,173.9c-2.14,10.28-2.47,19.82-1,28.36,1.8,10.21,6.29,16.61,13.35,19h0a32.44,32.44,0,0,0,9.44,1.78h.53a17.76,17.76,0,0,0,6.66-1.9l0,0c3.33-1.94,6.17-3.54,8.43-4.78a90.47,90.47,0,0,1,13.7-6.06,74.64,74.64,0,0,1,24.78-4.49c.57,0,1.14,0,1.7,0,3.33.08,7.6.44,12.68,1.08,3,.35,7.94,1,14.77,1.86,3.59.43,8.95,1.21,15.94,2.32,6.7,1.08,11.89,1.82,15.42,2.21h.07a146.48,146.48,0,0,0,16.14.91,139.65,139.65,0,0,0,19.41-1.36A76.45,76.45,0,0,0,227.78,206c7.44-3.58,12-7.49,13.46-11.63h0A52.07,52.07,0,0,0,241,160.5c-3.77-11-10.79-21-20.87-29.66-10.44-8.94-23.24-15.77-38.06-20.28A142.32,142.32,0,0,0,140.63,104.6Z"/><path class="cls-3" d="M157.43,119.23a1.84,1.84,0,0,1-.33,0h0a1.4,1.4,0,0,1-1-.65,1.59,1.59,0,0,1-.27-1.25h0c.82-4.44,2-7.57,3.55-9.32a.52.52,0,0,0,.16-.14c1.77-2.19,4.85-3.52,9.17-3.93h.18a1.65,1.65,0,0,1,1.05.39,1.58,1.58,0,0,1,.61,1.07,1.74,1.74,0,0,1-.41,1.22,1.69,1.69,0,0,1-1.11.62c-3.2.3-5.56,1.24-7,2.79l0,0c-1.27,1.55-2.22,4.13-2.91,7.88a1.64,1.64,0,0,1-.7,1A1.6,1.6,0,0,1,157.43,119.23Z"/><path class="cls-3" d="M95.14,128a1.83,1.83,0,0,1-.55-.1,1.46,1.46,0,0,1-.92-.83v0a1.54,1.54,0,0,1-.09-1.26,1.52,1.52,0,0,1,.84-.92c.43-.2,3.72-1.76,10-4.78,4-1.92,7.33-3.55,9.94-4.85,3.83-2,6.26-3.72,7.43-5.38a.21.21,0,0,0,.06-.1,2.5,2.5,0,0,0-.79-3.13,1.49,1.49,0,0,1-.54-1.11v0a1.6,1.6,0,0,1,.4-1.2,1.41,1.41,0,0,1,1.1-.53h.21a1.48,1.48,0,0,1,1,.39,6.52,6.52,0,0,1,2.35,3.59,5.14,5.14,0,0,1-1,3.78l0,0c-1.18,2.06-4.12,4.29-8.74,6.61-2.6,1.31-5.93,2.93-9.88,4.82l-.13,0c-6.23,3-9.6,4.6-10,4.81A1.61,1.61,0,0,1,95.14,128Z"/><path class="cls-3" d="M94.89,187.27a35.85,35.85,0,0,1-12.63-2.65,41.14,41.14,0,0,1-10.1-5.55,28,28,0,0,1-7.37-7.66c-3.3-5.25-5.51-12.13-6.57-20.45-1.06-8.08-.77-15.32.85-21.51a1.67,1.67,0,0,1,.8-1h0a1.44,1.44,0,0,1,.77-.23,1.83,1.83,0,0,1,.45.07,1.56,1.56,0,0,1,1,.76h0a1.56,1.56,0,0,1,.16,1.26,54.05,54.05,0,0,0-.79,20.25c1,7.74,3,14.16,6.09,19.09a26.14,26.14,0,0,0,6.54,6.77,39.44,39.44,0,0,0,9.32,5.12,32,32,0,0,0,11.32,2.38,18.06,18.06,0,0,0,7.5-1.53h0a32.79,32.79,0,0,0,8.67-6.75c.88-.91,2.19-2.33,3.91-4.21l.14-.11c1.65-1.78,3.1-3.21,4.29-4.27,7.91-7,16.33-11.73,25-14.16a48.14,48.14,0,0,1,13-1.86c1.19,0,2.38.05,3.55.15a46.09,46.09,0,0,1,9,1.3l.11,0a17.16,17.16,0,0,1,7.51,4.85.76.76,0,0,0,.11.14l5.18,5.74,0,0a20,20,0,0,0,6,3.77,11.15,11.15,0,0,0,4.4.93,11.44,11.44,0,0,0,4.79-1.1,10.35,10.35,0,0,0,5.91-6.91,18.07,18.07,0,0,0,.26-8.79h0a30.64,30.64,0,0,0-4.12-8.49,55.86,55.86,0,0,0-11.28-12.76,56.47,56.47,0,0,0-14.55-8.83,1.58,1.58,0,0,1-.9-.89,1.72,1.72,0,0,1,0-1.3h0a1.44,1.44,0,0,1,.88-.84l0,0a1.29,1.29,0,0,1,1.19,0h0a60.26,60.26,0,0,1,27.39,22.86,33.4,33.4,0,0,1,4.53,9.44,20.6,20.6,0,0,1-.27,10.48,13.37,13.37,0,0,1-7.69,9,14.72,14.72,0,0,1-6.23,1.46,14.3,14.3,0,0,1-5.67-1.22,24.14,24.14,0,0,1-7-4.4l-.1-.11,0,0-5.28-5.87a13.72,13.72,0,0,0-6.24-4,44.12,44.12,0,0,0-8.26-1.18h-.05c-1.07-.09-2.16-.13-3.25-.13a43.69,43.69,0,0,0-12.09,1.77c-8.23,2.3-16.22,6.81-23.73,13.43-1.15,1-2.53,2.38-4.08,4a.61.61,0,0,0-.12.16c-1.71,1.87-3,3.29-3.94,4.21a34.8,34.8,0,0,1-9.64,7.46A20,20,0,0,1,94.89,187.27Z"/><path class="cls-3" d="M97.28,160.18A15.6,15.6,0,0,1,91.16,159h0a81.55,81.55,0,0,1-9.57-4.34l-.12-.08c-3.91-2.24-6.46-4.64-7.59-7.16l0,0a1.49,1.49,0,0,1-.06-1.24v0a1.42,1.42,0,0,1,.82-.91,1.47,1.47,0,0,1,.68-.18,1.65,1.65,0,0,1,.57.11h0a1.6,1.6,0,0,1,.94.83h0c1,2,3.09,3.88,6.11,5.63a.61.61,0,0,0,.16.12,72,72,0,0,0,9.28,4.2h0a14.46,14.46,0,0,0,5,.83c4.38,0,9.82-1.6,16.18-4.74a78.59,78.59,0,0,0,10.59-6.33,42.43,42.43,0,0,0,6.76-5.78,1.42,1.42,0,0,1,1.11-.54h.22a1.48,1.48,0,0,1,1,.39,1.61,1.61,0,0,1,.57,1.11,1.7,1.7,0,0,1-.4,1.23,45.21,45.21,0,0,1-7.35,6.31A79.32,79.32,0,0,1,115,155l-.12.07C108,158.47,102.07,160.18,97.28,160.18Z"/><path class="cls-3" d="M92.8,174.34a1.54,1.54,0,0,1-.65-.15,1.68,1.68,0,0,1-.88-1,1.58,1.58,0,0,1,.07-1.24,11.39,11.39,0,0,0,0-8.53c-1.1-3.17-2.84-5.25-5.18-6.2h0a1.59,1.59,0,0,1-.93-2.12v0a1.46,1.46,0,0,1,.83-.89,1.74,1.74,0,0,1,.72-.16,2,2,0,0,1,.57.09c3.2,1.13,5.59,3.9,7.1,8.26,1.42,4.16,1.37,7.85-.15,11a1.74,1.74,0,0,1-1.52,1Z"/><path class="cls-3" d="M204.48,201.37a64.3,64.3,0,0,1-14.09-1.72,1.6,1.6,0,0,1-1-.75h0a1.51,1.51,0,0,1-.21-1.23,1.44,1.44,0,0,1,.73-1l0,0a1.46,1.46,0,0,1,.84-.26,1.74,1.74,0,0,1,.39.05,59,59,0,0,0,13,1.58c11.42,0,20.33-4.37,26.47-13a46.14,46.14,0,0,0,6.73-15.74s0-.06,0-.09a61.07,61.07,0,0,0,1.65-14,1.53,1.53,0,0,1,.48-1.15h0a1.47,1.47,0,0,1,1.13-.5,1.61,1.61,0,0,1,1.18.51,1.53,1.53,0,0,1,.48,1.15,65.82,65.82,0,0,1-1.72,14.8,48.75,48.75,0,0,1-7.22,16.89,32.54,32.54,0,0,1-12.18,10.83A36.84,36.84,0,0,1,204.48,201.37Z"/><path class="cls-3" d="M110.12,220.6a1.53,1.53,0,0,1,.49-1.14l0,0a1.47,1.47,0,0,1,1.13-.5,1.61,1.61,0,0,1,1.18.51,1.53,1.53,0,0,1,.48,1.15v52.89a.73.73,0,0,0,.24.53.71.71,0,0,0,.46.17h.1a17.86,17.86,0,0,0,7.13-2.65l.11-.06a17.7,17.7,0,0,0,6.53-7.76s0-.08,0-.12c.36-.81.73-1.7,1.12-2.66l0-.13c.56-1.4,1.51-3.53,2.83-6.32,1.17-2.43,2-4.29,2.42-5.53a14.34,14.34,0,0,0-.23-10.69h0a1.54,1.54,0,0,1,0-1.26,1.41,1.41,0,0,1,.85-.9l0,0a1.55,1.55,0,0,1,.62-.14,1.57,1.57,0,0,1,.62.13h0a1.53,1.53,0,0,1,.91.87,17.21,17.21,0,0,1,.35,13.11c-.45,1.29-1.3,3.22-2.5,5.74a1,1,0,0,0-.08.11c-1.3,2.72-2.23,4.81-2.75,6.21-.37,1-.75,1.94-1.13,2.79L131,265a20.83,20.83,0,0,1-19.25,12.61l-1.65.05Z"/><path class="cls-3" d="M89.22,255a25,25,0,0,1-8.1-1.28A22,22,0,0,1,71.28,247l0,0h0a22.15,22.15,0,0,1-5.16-10.7h0a22.15,22.15,0,0,1,1-11.88,22.7,22.7,0,0,1,6.8-9.76,1.57,1.57,0,0,1,1-.38h.21a1.46,1.46,0,0,1,1.11.55,1.49,1.49,0,0,1,.37,1.19,1.58,1.58,0,0,1-.59,1.14,19.32,19.32,0,0,0-5.74,8.26.37.37,0,0,0-.05.11,19.53,19.53,0,0,0,11.94,25.08,22.24,22.24,0,0,0,7.16,1.12,31.79,31.79,0,0,0,7.2-.88,91.13,91.13,0,0,0,14.68-5.28,1.61,1.61,0,0,1,.69-.16,1.44,1.44,0,0,1,.57.11,1.51,1.51,0,0,1,.91.86,1.69,1.69,0,0,1,0,1.29,1.65,1.65,0,0,1-.87.89A92.66,92.66,0,0,1,97.24,254,36.33,36.33,0,0,1,89.22,255Z"/><path class="cls-3" d="M136.53,227.93a7.87,7.87,0,0,1-6.34-2.91l0,0c-2.2-2.43-2.72-5.34-1.59-8.9a.61.61,0,0,0,.09-.18c1.22-3.6,3.38-5.67,6.61-6.32h.1a8.54,8.54,0,0,1,1.85-.21c2.49,0,4.7,1.14,6.76,3.46a.74.74,0,0,0,.13.12c2.45,2.86,3.1,5.75,2,8.83v0c-1,3.18-3.34,5.1-7.1,5.86a13,13,0,0,1-2.48.26Zm.49-15.18a5.29,5.29,0,0,0-1,.08h0a6.51,6.51,0,0,0-3.36,10l0,0a5.35,5.35,0,0,0,4.08,1.75,7.71,7.71,0,0,0,1.61-.18,5.64,5.64,0,0,0,4.54-3.49.78.78,0,0,0,.12-.22,5.79,5.79,0,0,0-1.48-5.69h0A6,6,0,0,0,137,212.75Z"/><path class="cls-3" d="M102.53,209.54a1.71,1.71,0,0,1-.84-.23,1.43,1.43,0,0,1-.75-1v0a1.58,1.58,0,0,1,.15-1.24,1.42,1.42,0,0,1,1-.74h0a35.23,35.23,0,0,0,11.43-5.64h0a74.18,74.18,0,0,0,9.16-8.56c1.89-2.08,4.69-5.19,8.31-9.24l.06-.06a44.66,44.66,0,0,1,9.25-7.7,28.21,28.21,0,0,1,10.06-3.58,29.31,29.31,0,0,1,4.45-.35,27.41,27.41,0,0,1,6.24.72,1.58,1.58,0,0,1,1,.74,1.61,1.61,0,0,1,.19,1.24,1.63,1.63,0,0,1-.75,1h0a1.53,1.53,0,0,1-.83.26,1.9,1.9,0,0,1-.4-.05,24.62,24.62,0,0,0-5.48-.62,25.71,25.71,0,0,0-3.9.3A25.43,25.43,0,0,0,142,178a42,42,0,0,0-8.5,7.07l0,0c-3.64,4.08-6.46,7.2-8.37,9.27a73.1,73.1,0,0,1-9.62,9,.74.74,0,0,0-.13.12,37.73,37.73,0,0,1-12.41,6.06A2,2,0,0,1,102.53,209.54Z"/><circle class="cls-3" cx="233.38" cy="25.67" r="23.32"/></g></svg>