<svg xmlns="http://www.w3.org/2000/svg" viewBox="0 0 64.17 91.4" width="64.17" height="91.4">
    <path d="M62.42,58.4c-1,3.2-4.2,6.1-7,8.2.4-3.3,3.7-16.1-8.3-35.6,0,0-.4,9.5-3.4,15.3-1.3-12.8-12-46.3-12-46.3S20.32,39.2,20,46.3a37.33,37.33,0,0,1-2.3-15c-13.1,21.3-9.3,34.9-9.3,35.2v.3c-2.7-2.2-5.8-5.5-6.6-8.9,0,0-9.8,22.2,16.1,28.9l14.5,4.6L46.22,87C72,82.6,62.42,58.4,62.42,58.4ZM46.22,76.8c-3,3.5-11.9,10.1-12.5,10.4l-1.6,1.2-1.7-1.1c-.5-.4-9.4-6.9-12.5-10.4a17,17,0,0,1-4.4-11.1,10,10,0,0,1,3.1-7.5,10.19,10.19,0,0,1,8.9-2.9A12.09,12.09,0,0,1,32,58.8a12.09,12.09,0,0,1,6.5-3.4,10.44,10.44,0,0,1,12,10.4C50.72,69.7,49.12,73.5,46.22,76.8Z"/>
</svg>