<svg xmlns="http://www.w3.org/2000/svg" viewBox="0 0 157.29 1086.25">
    <defs>
        <style>.cls-1{fill:#4a96b9;}.cls-2{fill:#77b0ca;}.cls-3{fill:#fff;}.cls-4{fill:#1d7ca7;}.cls-5,.cls-6{fill:none;stroke:#fff;stroke-linecap:round;stroke-width:6px;}.cls-5{stroke-linejoin:round;}.cls-6{stroke-miterlimit:10;}</style>
    </defs>
    <title>summary_anim_right</title>
    <g id="icons" data-name="Calque 2">
        <g id="fire">
            <path class="cls-1 fire" d="M39.13,726.38a132.73,132.73,0,0,0,19.51-51.56c.2-1.26,1.17-1.83,1.86-1.05C66,680,74,691.14,75.76,710.78a30.27,30.27,0,0,0,2.84-7.1,144.5,144.5,0,0,0,2.74-15.06c.11-1.2,1-1.82,1.68-1.32,6.87,4.68,16.52,39.08,16.52,39.08,1.58,5.31,3.63,12.68,3.47,17.8-.38,11.73-10.79,22.52-15.9,23.84s-9.5,4.48-15.72,4.51-10.58.41-20.23-6.21-16.08-20.25-15.32-25.73A128.56,128.56,0,0,1,39.13,726.38Z"/>
            <path class="cls-2 fire" d="M79.29,772.25c12.75-1.39,17.88-7.4,18.27-7.83l.09-.1c10.13-12.28,6.43-29.05,1.56-41.11A98.33,98.33,0,0,0,89.86,706c-5.16-7.69-6.62-7.69-7.1-7.69a1.63,1.63,0,0,0-1.56,1.5c-.68,6.51-.84,7.55-6.3,13.95-.08-11.44-13.23-24.17-13.82-24.6a1.24,1.24,0,0,0-1.36-.1,1.51,1.51,0,0,0-.88,1.17c0,.11-2.82,15.8-12.56,25-8.08,7.69-12.46,16.13-12.85,25-.68,12.49,6.62,21.35,7.11,22A29.76,29.76,0,0,0,60.3,772.46C62.7,772.82,74.52,772.59,79.29,772.25Z"/>
            <path class="cls-3 fire" d="M78.62,772.46A29.06,29.06,0,0,0,97,763.84l.09-.09c9.44-10.44,6-24.69,1.46-34.94a82.41,82.41,0,0,0-8.72-14.61c-4.8-6.53-6.17-6.53-6.62-6.53a1.46,1.46,0,0,0-1.45,1.27c-.64,5.53-2.91,7.17-6.08,9.34l-.82.55c-1.45-9-12.7-16.61-13.25-17a1.27,1.27,0,0,0-1.27-.09,1.3,1.3,0,0,0-.81,1c0,.09-2.64,13.43-11.71,21.23-7.53,6.53-11.62,13.7-12,21.23-.63,10.62,6.17,18.15,6.63,18.7.18.27,6.44,7.53,18.42,8.71"/>
            <path class="cls-4" d="M60.93,774.32c0-.45.27-6,.27-6-.18-2-.45-5.44-.64-7.07A.31.31,0,0,0,60,761c-1.82,2.18-3.72,4.18-6.9,3.09-4.08-1.36-7-6.17-8.71-9.8-.73-1.45-1.72-3.36-1.54-5a4.24,4.24,0,0,1,3.36-3.9,4.28,4.28,0,0,1,3.63,7.44c1.08,1.09,2.17,2.45,3.35,3.45a.56.56,0,0,0,.73-.1c2-3.17,4.08-6.89,6.9-9.34a12.48,12.48,0,0,1,4.08-2.45c.27-.09.54-.09.82-.18a9.44,9.44,0,1,1,7.71-.09c.27.09.45.09.73.18a12.48,12.48,0,0,1,4.08,2.45c2.81,2.45,4.9,6.17,6.9,9.34a.46.46,0,0,0,.72.09,38.84,38.84,0,0,0,3.36-3.44c-3.36-2.82-.64-8.44,3.63-7.44a4.25,4.25,0,0,1,3.36,3.9c.09,1.63-.91,3.54-1.55,5C93,757.85,90.06,762.66,86,764c-3.08,1-5-.91-6.71-2.9a.36.36,0,0,0-.64.18c-.09,1.9-.18,5.35-.36,6.8,0,0,.09.73.18,1.64,0,.45.18,4,.18,4.4Z"/>
        </g>
        <g id="code">
            <path id="left-bracket" class="cls-5" d="M154.29,843.89H76.67a8.19,8.19,0,0,0-8.19,8.18l0,16.46L42.6,881.87a2.62,2.62,0,0,0,0,4.65l25.88,13.36"/>
            <path id="right-bracket" class="cls-6" d="M154.29,911.77H102.48c-5.91,0-8.2-7.83-3.14-10.87a21.15,21.15,0,0,1,2-1L127,886.64a2.75,2.75,0,0,0,0-4.89l-25.66-13.22"/>
            <path id="middle" class="cls-6" d="M154.29,860.28H98a5.38,5.38,0,0,0-5,3.43c-5.63,14.55-10.78,27.63-16.5,42.43"/>
        </g>
        <path id="question" class="cls-6" d="M154.29,627.08l-62.54.67C77.81,615.47,74.47,607.49,74,602.61c0-.09,0-.21,0-.23a41.53,41.53,0,0,1,2.19-17.16c2-5.88,4.84-9.85,7.74-14,4.5-6.35,6.91-7.69,8.34-12.72a20.46,20.46,0,0,0,.36-9.86,19.43,19.43,0,0,0-6.21-10.25,20.06,20.06,0,0,0-14.65-4.39,21.64,21.64,0,0,0-14.48,7.78"/>
        <circle id="question_mark" class="cls-3" cx="74.01" cy="615" r="5"/>
    </g>
    <path id="secondary-synapse" class="cls-6" d="M154.29,3V207.48a32.16,32.16,0,0,1-9.42,22.74L63.53,311.57a32.14,32.14,0,0,0-9.42,22.73v23.1a32.15,32.15,0,0,0,32.15,32.16h0a32.16,32.16,0,0,0,32.16-32.16V330.29A32.16,32.16,0,0,0,109,307.56L70.57,269.12a32.18,32.18,0,0,0-45.48,0L12.42,281.8A32.16,32.16,0,0,0,3,304.54V430a32.15,32.15,0,0,0,32.15,32.15h87a32.16,32.16,0,0,1,32.15,32.16V968.39a32.16,32.16,0,0,1-9.42,22.74l-92.12,92.12"/>
</svg>