<svg xmlns="http://www.w3.org/2000/svg" viewBox="0 10 445.55 338.27">
    <defs>
        <style>.cls-1{fill:#104354;}.cls-2{fill:#fff;}.cls-3,.cls-4{fill:none;stroke:#fff;stroke-linecap:round;stroke-width:5px;}.cls-3{stroke-miterlimit:10;}.cls-4{stroke-linejoin:round;}</style>
    </defs>
    <title>summary_header_5</title>
    <g id="summary_header">
        <g id="plain_brain">
            <path class="cls-1" d="M253.5,47.92h-.18a1.22,1.22,0,0,0-.92.45,36.06,36.06,0,0,1-5.62,4.81A64.77,64.77,0,0,1,238,58.44c-5.28,2.61-9.81,3.94-13.44,3.94a12.18,12.18,0,0,1-4.16-.69h0a60.67,60.67,0,0,1-7.71-3.49l-.13-.1a12.66,12.66,0,0,1-5.07-4.67h0a1.28,1.28,0,0,0-.77-.69h0a1.31,1.31,0,0,0-.47-.09,1.23,1.23,0,0,0-.57.14,1.2,1.2,0,0,0-.67.76v0a1.2,1.2,0,0,0,.05,1v0c.94,2.09,3.06,4.09,6.31,5.94l.09.08c.84.47,1.9,1,3.17,1.57a1.28,1.28,0,0,0,.65.56h0c1.94.79,3.39,2.52,4.3,5.15a9.46,9.46,0,0,1,0,7.09,1.29,1.29,0,0,0-.06,1,1.44,1.44,0,0,0,.74.81,1.28,1.28,0,0,0,.53.12,1.43,1.43,0,0,0,1.27-.81c1.26-2.59,1.3-5.66.13-9.11a16.84,16.84,0,0,0-1-2.22,14.34,14.34,0,0,0,3.29.38c4,0,8.89-1.42,14.62-4.23l.1-.06a66.26,66.26,0,0,0,9.19-5.47,38.44,38.44,0,0,0,6.11-5.23,1.5,1.5,0,0,0,.33-1,1.4,1.4,0,0,0-.47-.92A1.26,1.26,0,0,0,253.5,47.92Z"/>
            <path class="cls-1" d="M346.45,64.55a54.5,54.5,0,0,0-7-13.65,67.2,67.2,0,0,0-11.05-12.08.5.5,0,0,1-.12-.08,82.17,82.17,0,0,0-14.86-10.11,98.88,98.88,0,0,0-17.75-7.28,112.67,112.67,0,0,0-11.18-2.77,1.28,1.28,0,0,0-.58-.15h-.14a124.82,124.82,0,0,0-23.36-2.16c-2.76,0-5.6.09-8.43.25a111.6,111.6,0,0,0-29,5.67,102,102,0,0,0-25.27,12.58,78.57,78.57,0,0,0-19,18.32,59.7,59.7,0,0,0-10.34,22.95,65.59,65.59,0,0,0-.79,24.56,28.73,28.73,0,0,0,4.57,11.92,15.94,15.94,0,0,0,8.38,6,29.42,29.42,0,0,0,8.47,1.59l.76,0h0a16.29,16.29,0,0,0,6.71-1.91l.05,0,0,0c1.47-.85,2.81-1.61,4-2.3a20.12,20.12,0,0,0-1.19,2.62,18.39,18.39,0,0,0-.85,9.87h0a18.39,18.39,0,0,0,4.29,8.88h0l0,0a18.34,18.34,0,0,0,8.17,5.58,20.7,20.7,0,0,0,6.74,1.06,30.3,30.3,0,0,0,6.66-.79,70.26,70.26,0,0,0,10.69-3.73v23.37l1.37,0a17.32,17.32,0,0,0,16-10.48l.06-.1c.32-.71.63-1.49.94-2.32.43-1.16,1.2-2.89,2.29-5.15a.47.47,0,0,1,0-.1c1-2.09,1.71-3.69,2.09-4.76a14.66,14.66,0,0,0,.44-8.8,29.72,29.72,0,0,0,4.22,1.24,48.49,48.49,0,0,0,9.88.82c2.69,0,5.75-.12,9.09-.36A34,34,0,0,0,291,130.6a37.11,37.11,0,0,0,8.51-4.63,22.42,22.42,0,0,0,6.46-7.31,18.76,18.76,0,0,0,2.15-6.31c2.1-.19,4.2-.4,6.28-.7A65.85,65.85,0,0,0,334,105.72c7.17-3.46,11.4-7.26,12.59-11.29h0a46,46,0,0,0-.18-29.87ZM223.86,24.81a107.1,107.1,0,0,1,20-4.71,1.35,1.35,0,0,0,.36.57,2.06,2.06,0,0,1,.66,2.59.41.41,0,0,1,0,.09c-1,1.38-3,2.84-6.17,4.47-2.17,1.07-4.95,2.43-8.25,4-5.25,2.51-8,3.81-8.34,4a1.27,1.27,0,0,0-.69.77,1.25,1.25,0,0,0,.07,1.05v0a1.19,1.19,0,0,0,.76.69,1.54,1.54,0,0,0,.46.08,1.31,1.31,0,0,0,.57-.13c.35-.18,3.15-1.52,8.33-4l.1,0c3.28-1.57,6-2.92,8.21-4,3.83-1.93,6.27-3.78,7.26-5.49l0,0a4.24,4.24,0,0,0,.81-3.14,4.33,4.33,0,0,0-.91-1.87c1.69-.18,3.37-.34,5.06-.43,2.8-.17,5.6-.26,8.34-.26l1.45,0a21.15,21.15,0,0,0-2.6,5.23c-.36,1-.65,1.94-.88,2.84,0,.07-.06.14-.08.2a4.2,4.2,0,0,1-.57,1.06c-1.8,2.88-6.48,6.27-13.45,10.81-6.23,4-11,6.66-14.2,7.77a15,15,0,0,1-4.82.8,16,16,0,0,1-2.56-.21,14.57,14.57,0,0,1-6.73-2.9l-.1-.09a15,15,0,0,1-4.41-5.7l0-.1a14.47,14.47,0,0,1-1.28-7.14,1.39,1.39,0,0,0-.29-.94A101.86,101.86,0,0,1,223.86,24.81ZM174.47,65.86a22.46,22.46,0,0,0,2.26,6.87.61.61,0,0,1,.07.1,37.34,37.34,0,0,0,7.26,9.29l.09.11a36.21,36.21,0,0,0,6.56,4.33c4.51,2.47,5.64,3.08,5.78,3.15l.1.05a7.63,7.63,0,0,1,2.26,2.38.36.36,0,0,1,.07.1,4.08,4.08,0,0,1,.62,2.49.79.79,0,0,1-.08.26c-2.69,4.3-7,6.69-12.91,7.07-.64,0-1.33.06-2,.06a56.82,56.82,0,0,1-6.27-.39h0c-3.6-.52-6.25-.88-7.9-1.09l-.09-.49a56,56,0,0,1-.53-14.52,47.32,47.32,0,0,0,3.95,3.76,23.07,23.07,0,0,0,7.18,4.46,1.53,1.53,0,0,0,.45.08,1.39,1.39,0,0,0,1.29-1,1.25,1.25,0,0,0-.07-1,1.33,1.33,0,0,0-.78-.69h0a22.46,22.46,0,0,1-6.28-4A42.47,42.47,0,0,1,170.12,82c.25-1.77.54-3.55.92-5.37A53.37,53.37,0,0,1,174.47,65.86Zm20.71,49.94,0,0a14.59,14.59,0,0,1-5.54,1.58h-.44a27,27,0,0,1-7.84-1.48h0c-5-1.72-8.51-5.91-10.33-12.46,1.63.21,3.92.53,6.85,1h0a.54.54,0,0,1,.22,0,54.84,54.84,0,0,0,6.29.4h0c.82,0,1.61,0,2.34-.08a21.15,21.15,0,0,0,9.19-2.53,16.44,16.44,0,0,0,5.79-5.64,18.51,18.51,0,0,0,8.54,2h0a24.48,24.48,0,0,0,5.85-.76h0a1.33,1.33,0,0,0,.85-.62,1.3,1.3,0,0,0,.14-1h0a1.24,1.24,0,0,0-.61-.82,1.32,1.32,0,0,0-.71-.2l-.32,0a21.13,21.13,0,0,1-5.1.66,16.35,16.35,0,0,1-8-2.06,7.17,7.17,0,0,0-1-2.92,10.23,10.23,0,0,0-3.2-3.43c-.29-.15-1.4-.75-6.08-3.34a32.93,32.93,0,0,1-6.07-4h0a35.35,35.35,0,0,1-6.74-8.6A19.78,19.78,0,0,1,177,61.51a1.64,1.64,0,0,0-.08-.5,61.62,61.62,0,0,1,4-6.3,73.19,73.19,0,0,1,11.22-12.1A50.42,50.42,0,0,0,192,57.53c.88,6.91,2.72,12.63,5.46,17a23.09,23.09,0,0,0,6.12,6.36A34.26,34.26,0,0,0,212,85.49a29.81,29.81,0,0,0,10.49,2.2,16.6,16.6,0,0,0,7.31-1.59,28.79,28.79,0,0,0,8-6.19c.75-.76,1.85-1.94,3.28-3.5a.38.38,0,0,1,.09-.13c1.29-1.36,2.43-2.48,3.39-3.33a50.44,50.44,0,0,1,19.71-11.16,36.33,36.33,0,0,1,10-1.48c.9,0,1.81,0,2.7.12H277a35.47,35.47,0,0,1,6.85,1,11.31,11.31,0,0,1,5.19,3.36l4.38,4.87,0,0,.08.09a20,20,0,0,0,5.81,3.65,11.72,11.72,0,0,0,4.7,1,12.31,12.31,0,0,0,5.18-1.21,11.13,11.13,0,0,0,6.39-7.51,17.26,17.26,0,0,0,.23-8.71,28.07,28.07,0,0,0-3.77-7.84,50.1,50.1,0,0,0-22.75-19h0a1.18,1.18,0,0,0-.5-.12,1.07,1.07,0,0,0-.48.12h0a1.21,1.21,0,0,0-.73.7h0a1.44,1.44,0,0,0,0,1.08,1.33,1.33,0,0,0,.75.74,47.07,47.07,0,0,1,21.45,17.93,25.68,25.68,0,0,1,3.43,7h0A14.91,14.91,0,0,1,313,65a8.61,8.61,0,0,1-4.91,5.74,9,9,0,0,1-7.64.14,17.09,17.09,0,0,1-5-3.13l0,0c-1.64-1.83-3.09-3.44-4.3-4.77l-.09-.12a14.29,14.29,0,0,0-6.24-4l-.09,0a38.5,38.5,0,0,0-7.45-1.08c-1-.08-2-.12-3-.12a40.07,40.07,0,0,0-10.76,1.54,53.36,53.36,0,0,0-20.78,11.76c-1,.88-2.19,2.07-3.57,3.55l-.11.09c-1.43,1.56-2.52,2.74-3.25,3.5a27.37,27.37,0,0,1-7.2,5.61h0a15,15,0,0,1-6.24,1.28,26.47,26.47,0,0,1-9.4-2,32.57,32.57,0,0,1-7.74-4.25,21.55,21.55,0,0,1-5.43-5.62c-2.54-4.09-4.24-9.43-5.06-15.86a44.83,44.83,0,0,1,.66-16.81,1.68,1.68,0,0,0,0-.49q1.88-1.47,3.88-2.87a91.9,91.9,0,0,1,8.16-5A17.09,17.09,0,0,0,209,40a17.56,17.56,0,0,0,5.31,6.86,18.18,18.18,0,0,0,8,3.45,19.25,19.25,0,0,0,3,.24h0a17.82,17.82,0,0,0,5.69-.94c3.31-1.13,8.29-3.85,14.8-8.08,5.57-3.62,9.59-6.76,12-9.39,0,.11,0,.23,0,.34a13.16,13.16,0,0,0,2,5.95l.08.1a8.81,8.81,0,0,0,5.13,4,46.71,46.71,0,0,0,8.59,1,54.66,54.66,0,0,1,8.89,1.1h0c7.13,1.86,13.14,7.2,17.87,15.88a1.3,1.3,0,0,0,.84.65,1.49,1.49,0,0,0,.4.06h0a1.27,1.27,0,0,0,.62-.16,1.34,1.34,0,0,0,.65-.82h0a1.17,1.17,0,0,0-.11-1v0A41.73,41.73,0,0,0,294,47.7,25.39,25.39,0,0,0,283.22,42a54.63,54.63,0,0,0-9.41-1.17,46.55,46.55,0,0,1-8-.93l-.11,0a6.31,6.31,0,0,1-3.52-2.81,10.47,10.47,0,0,1-1.64-4.87,17.35,17.35,0,0,1,1.3-6.94c1-2.87,2.15-4.75,3.44-5.75v0a1,1,0,0,0,.31-.32,121.39,121.39,0,0,1,12.18,1.08,7.33,7.33,0,0,0-1.69,1.47.49.49,0,0,1-.13.12c-1.27,1.45-2.27,4.05-2.95,7.74h0a1.33,1.33,0,0,0,.23,1,1.16,1.16,0,0,0,.84.54h0a1.33,1.33,0,0,0,.28,0,1.28,1.28,0,0,0,.74-.24,1.38,1.38,0,0,0,.59-.87c.57-3.12,1.36-5.26,2.41-6.55l0,0a8.7,8.7,0,0,1,5.47-2.28A109.12,109.12,0,0,1,294.9,24a87.81,87.81,0,0,1,29.93,15.49c0,.07,0,.14.06.22,2,4.09,3.28,9.77,3.7,16.88s-.18,12.93-1.82,17.08a17,17,0,0,1-8.24,9,24.79,24.79,0,0,1-11.36,2.56c-.39,0-.8,0-1.2,0h0c-3.22-.3-5.76-.45-7.56-.45h-.95c-3.63.13-6.34,1.19-8.06,3.16h0a8.37,8.37,0,0,0-2.14,4.29A26.26,26.26,0,0,0,276.53,90h-1a26.54,26.54,0,0,0-12.74,3.61,1.31,1.31,0,0,0-.64.83,1.35,1.35,0,0,0,.15,1,1.33,1.33,0,0,0,.83.61,1.73,1.73,0,0,0,.38.05h0a1.44,1.44,0,0,0,.68-.18,23.8,23.8,0,0,1,11.4-3.24l.79,0a23.89,23.89,0,0,1,10.67,2.47,11.51,11.51,0,0,0,1.72,5.12c1.8,2.94,5.06,5.45,9.68,7.45a30,30,0,0,0,7.2,2c-2.6.17-5.22.27-7.82.27a121.1,121.1,0,0,1-13.41-.76h-.06c-2.93-.33-7.24-1-12.81-1.84-5.81-.92-10.26-1.57-13.23-1.93-5.68-.73-9.81-1.25-12.27-1.55-3.82-.47-7.08-.76-9.72-.87a33.9,33.9,0,0,0,3.1-2,.52.52,0,0,1,.1-.11,59.66,59.66,0,0,0,8-7.45c1.59-1.72,3.93-4.32,7-7.7v0A34.76,34.76,0,0,1,261.59,80a21.25,21.25,0,0,1,7.4-2.63,22.2,22.2,0,0,1,3.24-.25,20.64,20.64,0,0,1,4.56.52,1.87,1.87,0,0,0,.32,0,1.23,1.23,0,0,0,.7-.22h0a1.29,1.29,0,0,0,.62-.85,1.31,1.31,0,0,0-.15-1,1.35,1.35,0,0,0-.85-.62,23.18,23.18,0,0,0-5.18-.59,24.47,24.47,0,0,0-3.7.29,23.35,23.35,0,0,0-8.35,3,37.35,37.35,0,0,0-7.69,6.4l0,0c-3,3.37-5.33,5.95-6.9,7.68a61.91,61.91,0,0,1-7.6,7.11h0a29.35,29.35,0,0,1-8.83,4.48,65.17,65.17,0,0,0-15.56,3.49,78.24,78.24,0,0,0-8,3.33,1.26,1.26,0,0,0-.33.16c-1,.5-2,1-3,1.55C200.3,112.87,198,114.2,195.18,115.8Zm61.45-6.87h0a5.52,5.52,0,0,1,.8-.07,5,5,0,0,1,3.75,1.88h0a4.84,4.84,0,0,1,1.23,4.73.64.64,0,0,1-.1.18,4.71,4.71,0,0,1-3.77,2.9,6.47,6.47,0,0,1-1.34.15,4.42,4.42,0,0,1-3.39-1.46l0,0a5.41,5.41,0,0,1,2.8-8.29Zm-32.82,31.53a26.3,26.3,0,0,1-6,.73,18.53,18.53,0,0,1-5.94-.93,15.8,15.8,0,0,1-5.18-3l0,0a1.44,1.44,0,0,0,.6-.87,8.5,8.5,0,0,1,1.43-3.13.46.46,0,0,1,.12-.12,10.41,10.41,0,0,1,2.53-2.37,17.92,17.92,0,0,1,7.09-2.54,31.75,31.75,0,0,1,5.11-.43,30.07,30.07,0,0,1,9.13,1.43,1.31,1.31,0,0,0,.38.06,1.39,1.39,0,0,0,.64-.17,1.44,1.44,0,0,0,.7-.8,1.37,1.37,0,0,0-.09-1,1.32,1.32,0,0,0-.82-.66,33.06,33.06,0,0,0-15.5-1.09,20.62,20.62,0,0,0-8.15,3,13.63,13.63,0,0,0-3.25,3,.41.41,0,0,1-.07.11,11,11,0,0,0-1.82,3.7,17.33,17.33,0,0,1-1.64-2.34,11.49,11.49,0,0,1,1.43-5.62,14.19,14.19,0,0,1,4.19-4.71A21.63,21.63,0,0,1,221,119.05l.83,0a45.07,45.07,0,0,1,5.86.43c1.64.23,3.9.62,6.74,1.17l.29,0a1.42,1.42,0,0,0,.36,0v15.84A72.39,72.39,0,0,1,223.81,140.46Zm39.31-10.74a28.27,28.27,0,0,1-16.19-10,1.24,1.24,0,0,0-.87-.49h-.15a1.11,1.11,0,0,0-.78.29l0,0a1.28,1.28,0,0,0-.19,1.82A32.21,32.21,0,0,0,255,129.59a1.56,1.56,0,0,0,.11.45h0a11.93,11.93,0,0,1,.19,8.88c-.36,1-1,2.57-2,4.59-1.1,2.31-1.89,4.08-2.35,5.25a.38.38,0,0,1,0,.1c-.31.8-.63,1.54-.93,2.21a.45.45,0,0,1,0,.11,14.76,14.76,0,0,1-5.42,6.43l-.09,0a14.92,14.92,0,0,1-5.92,2.21h-.09a.55.55,0,0,1-.38-.15.57.57,0,0,1-.2-.44V137.61a1.51,1.51,0,0,0,0-.6V115.38a1.29,1.29,0,0,0-.4-1,1.33,1.33,0,0,0-1-.42,1.24,1.24,0,0,0-.94.41l0,0a1.24,1.24,0,0,0-.41.95V118L235,118c-2.93-.58-5.25-1-6.9-1.21a52.2,52.2,0,0,0-6.52-.46H221c-5.59.13-10.24,1.52-13.83,4.14a16.36,16.36,0,0,0-5,5.6l-.06.09a15.93,15.93,0,0,0-.86,1.9s0-.1,0-.15a16.13,16.13,0,0,1,.75-8.45l0-.09a16.05,16.05,0,0,1,4.56-6.65,74.86,74.86,0,0,1,7.9-3.28l.09,0a62.47,62.47,0,0,1,13.94-3.24,1.75,1.75,0,0,0,.32,0,2.09,2.09,0,0,0,.34,0l.41-.12c1.6-.15,3.18-.22,4.75-.22h1.18c2.71.07,6.15.37,10.24.88a.43.43,0,0,1,.16,0c1.66.18,4.07.48,7.15.86a8.32,8.32,0,0,0-2.52,3.88,1,1,0,0,1-.07.15c-.94,3-.51,5.37,1.32,7.39v0a6.56,6.56,0,0,0,5.27,2.42h0a11,11,0,0,0,2.06-.22c3.12-.63,5.05-2.22,5.9-4.87v0c.92-2.55.37-5-1.66-7.33l-.06,0c2.26.32,4.88.72,7.88,1.21h.07c2.41.38,4.57.71,6.5,1a1.19,1.19,0,0,0,.16.43v0c1.34,2.37,1.9,5.53,1.68,9.39s-1.19,6.91-2.83,9h0a1.59,1.59,0,0,0-.18.34c-1.39.05-2.72.08-4,.08A47.43,47.43,0,0,1,263.12,129.72Zm27.06-1.6-.11,0a32,32,0,0,1-8.72,2l-1.42.1a20.3,20.3,0,0,0,2.41-9.05,20.79,20.79,0,0,0-1.36-9.55c1.16.16,2.21.29,3.11.4,2,.22,4,.38,5.92.51a1.41,1.41,0,0,0,.13.24,17.78,17.78,0,0,1,2.32,13.49,1.25,1.25,0,0,0,.07.81C291.76,127.46,291,127.81,290.18,128.12Zm13.56-10.83a.61.61,0,0,1-.05.12,20.15,20.15,0,0,1-5.73,6.48c-.83.59-1.69,1.14-2.58,1.67a20,20,0,0,0-2.15-12.85c1.53.06,3.06.1,4.58.1,2.53,0,5.07-.09,7.6-.25A16.85,16.85,0,0,1,303.74,117.29ZM344,93.57h0c-1.23,3.44-5,6.69-11.17,9.66-1,.48-2,.93-3,1.35a1.15,1.15,0,0,0-.36-.07,1.16,1.16,0,0,0-.4.07h0A70,70,0,0,1,314,107.43c-.84,0-1.67.07-2.48.07a29.83,29.83,0,0,1-11.93-2.29c-4-1.7-6.82-3.84-8.44-6.35h0a8.77,8.77,0,0,1-1.35-4.8,6.21,6.21,0,0,1,1.57-4.28h0a8.6,8.6,0,0,1,6.14-2.27h1c1.75,0,4.2.14,7.29.43h.07l1.36,0h0a27.1,27.1,0,0,0,12.58-2.87,19.71,19.71,0,0,0,9.52-10.4c1.8-4.4,2.48-10.54,2-18.26a57.29,57.29,0,0,0-2.09-13.08,55.75,55.75,0,0,1,14.6,22.14A43.32,43.32,0,0,1,344,93.57Z"/>
        </g>
        <g id="neurones">
            <path class="cls-2 neurone" d="M262.82,98.91a4.06,4.06,0,1,1,4.05-4A4.06,4.06,0,0,1,262.82,98.91Z"/>
            <path class="cls-2 neurone" d="M301.9,65.29A4.06,4.06,0,1,1,306,61.23,4.06,4.06,0,0,1,301.9,65.29Z"/>
            <path class="cls-2 neurone" d="M258.84,33.47a4.06,4.06,0,1,1,4.05-4.06A4.06,4.06,0,0,1,258.84,33.47Z"/>
            <path class="cls-2 neurone" d="M236.48,116.81a4.06,4.06,0,1,1,4.06-4.06A4.06,4.06,0,0,1,236.48,116.81Z"/>
            <circle class="cls-2 neurone" cx="216.72" cy="96.55" r="4.06"/>
        </g>
        <g id="synapses">
            <path class="cls-3 synapse0" d="M236.49,199.39L236.49,114"/>
            <path class="cls-3 synapse1" d="M216.86,96.71a24.52,24.52,0,0,1-10.09,0,24.24,24.24,0,0,1-5.36-1.81"/>
            <path class="cls-3 synapse1" d="M262.34,95.49a26.94,26.94,0,0,1,25.89-1.35"/>
            <path class="cls-3 synapse2" d="M258.24,29.76c-1.12,1.16-2.47,2.49-4.07,3.9-.8.71-2.41,2.1-4.58,3.73a88.46,88.46,0,0,1-7.5,5c-1.32.82-2.69,1.63-4.24,2.51a33.43,33.43,0,0,1-5.25,2.62c-2.3.81-7.78,2.75-13.51.39a16.21,16.21,0,0,1-6.29-4.72,16.94,16.94,0,0,1-3.22-5.77,16.07,16.07,0,0,1-.65-5.64c.2-4.54,1.1-15.17,2.7-29.25"/>
            <path class="cls-3 synapse2" d="M301.9,60.39a31.1,31.1,0,0,0-7.79-10.87,26.32,26.32,0,0,0-9.85-6,40.79,40.79,0,0,0-12.61-1.75,13.15,13.15,0,0,1-6.77-.92,9.82,9.82,0,0,1-3.28-2.46,10.52,10.52,0,0,1-2.26-5.54,15.84,15.84,0,0,1,1.13-8.61,18.37,18.37,0,0,1,2.77-4.62c2.1-2.7,4.43-7.59,5.07-17.17"/>
            <path class="cls-3 synapse2" d="M288.38,94.48a14.08,14.08,0,0,0,2.42,6.14c2.31,3.25,5.43,4.53,8.26,5.65a35.83,35.83,0,0,0,13.36,2.32,52.42,52.42,0,0,0,17.19-3,76.62,76.62,0,0,0,21.76-12.46c12.92-10.78,28.52-44.21,34.22-90.65"/>
            <path class="cls-3 synapse2" d="M288.53,94.18a7.92,7.92,0,0,1,1.88-5.28,8.25,8.25,0,0,1,4-2.42c4.79-1.48,8.69-.07,12.16.27,6.69.64,13.35-2.55,17-6,5.57-5.21,6.06-12.68,6.48-19,.5-7.79-.86-14.66-3.64-23A142.16,142.16,0,0,0,308.1,2.5"/>
            <path class="cls-3 synapse2" d="M200.94,95a9.73,9.73,0,0,0-1.7-4.58c-2-2.78-4.89-3.29-8-4.7A32.8,32.8,0,0,1,182,78.36c-1.84-2-4.68-5.82-6.8-17.13a102.15,102.15,0,0,1-1.49-24A322.75,322.75,0,0,1,177,2.5"/>
            <path class="cls-3 synapse2" d="M201,95.21a14.79,14.79,0,0,1-2.16,3,16.89,16.89,0,0,1-8.42,4.62c-8.49,2.24-19-.31-21.66-1a73.81,73.81,0,0,1-21.58-8.94,78.6,78.6,0,0,1-22.86-22.06c-12.59-18.29-14.13-37-15-48-.8-9.82-.59-14.71,0-20.27"/>
        </g>
        <g id="technology_sym">
            <path class="cls-4 technology_sym" d="M66.88,268.62c3.67-14.89,7-28.05,10.59-42.7"/>
            <path class="cls-4 technology_sym" d="M56.69,230.78,40.05,244.2a3.46,3.46,0,0,0,0,4.68l16.61,13.44"/>
            <path class="cls-4 technology_sym" d="M87.39,262.32,104,248.88a3.46,3.46,0,0,0,0-4.68L87.37,230.78"/>
        </g>
        <g id="technology">
            <path class="cls-2" d="M7.38,316.19v17.69H4.74V316.19H0v-2.62H12.11v2.62Z"/>
            <path class="cls-2" d="M17.66,330.92a3.69,3.69,0,0,0,2.4.58,4.4,4.4,0,0,0,3.21-1.32c.11-.11.33-.38.67-.78l2.63.94a17.15,17.15,0,0,1-1.4,1.76,7,7,0,0,1-5.11,2.12,7.24,7.24,0,0,1,0-14.47,6.9,6.9,0,0,1,4.49,1.55,8.2,8.2,0,0,1,.62.57c.09.08.33.35.73.8L24.58,324Zm4.39-8.13a3.79,3.79,0,0,0-2-.34A4.54,4.54,0,0,0,15.54,327a3.78,3.78,0,0,0,.34,2Z"/>
            <path class="cls-2" d="M40,329.4l2.63.94a19.12,19.12,0,0,1-1.39,1.76,7.22,7.22,0,0,1-10.22,0,7.24,7.24,0,0,1,5.1-12.35,7,7,0,0,1,5.12,2.12,19.43,19.43,0,0,1,1.39,1.74l-2.63,1c-.33-.41-.56-.68-.68-.8a4.52,4.52,0,1,0,0,6.41C39.4,330.07,39.63,329.8,40,329.4Z"/>
            <path class="cls-2" d="M45.64,313.57h2.64v8.65a3.47,3.47,0,0,1,3.2-2.12,4.09,4.09,0,0,1,3.34,1.51,5.79,5.79,0,0,1,1.29,3.77v8.5H53.49v-8.39a3,3,0,0,0-.65-1.94,2.41,2.41,0,0,0-2-.81,2.79,2.79,0,0,0-2.54,1.76v9.38H45.64Z"/>
            <path class="cls-2" d="M62.56,324.32v9.56H59.92V320.81h2.64v1.53a3.23,3.23,0,0,1,3.32-2.24,4.15,4.15,0,0,1,3.37,1.51,5.9,5.9,0,0,1,1.29,3.77v8.5H67.91v-8.39a2.62,2.62,0,0,0-.83-1.94,2.7,2.7,0,0,0-2-.81,2.75,2.75,0,0,0-2,.79A3,3,0,0,0,62.56,324.32Z"/>
            <path class="cls-2" d="M80.84,319.75a7.24,7.24,0,1,1-5.1,2.12A7,7,0,0,1,80.84,319.75Zm-3.2,4a4.5,4.5,0,1,0,3.2-1.34A4.33,4.33,0,0,0,77.64,323.79Z"/>
            <path class="cls-2" d="M93.75,313.55v20.33H91.11V313.55Z"/>
            <path class="cls-2" d="M104,319.75a7.24,7.24,0,1,1-5.11,2.12A7,7,0,0,1,104,319.75Zm-3.21,4a4.53,4.53,0,0,0,6.41,6.39,4.53,4.53,0,1,0-6.41-6.39Z"/>
            <path class="cls-2" d="M125.63,321.72v-.91h2.64v9.72a7.93,7.93,0,0,1-2.07,5.87,7.93,7.93,0,0,1-10.23,0,15,15,0,0,1-1.38-1.75l2.61-.94c.34.41.57.67.69.79a4.38,4.38,0,0,0,3.2,1.32q3.14,0,4.34-4.11a4.36,4.36,0,0,1-4.23,2.38,7.06,7.06,0,0,1-5.11-2A6.78,6.78,0,0,1,114,327a7.2,7.2,0,0,1,7.22-7.22A6,6,0,0,1,125.63,321.72Zm0,4.25a4.24,4.24,0,0,0-1.22-2.18,4.53,4.53,0,1,0,0,6.41,4.27,4.27,0,0,0,1.22-2.16Z"/>
            <path class="cls-2" d="M135.34,338.27h-2.78L136,331l-4.86-10.16h3l3.31,7.15,3.32-7.15h2.94Z"/>
        </g>
        <g id="question_mark">
            <path id="question_path" class="cls-4" d="M381.26,232.44a12.21,12.21,0,0,1,8.15-4.38,11.27,11.27,0,0,1,8.25,2.47,11,11,0,0,1,3.5,5.77,11.48,11.48,0,0,1-.21,5.56c-.82,2.89-2.16,3.59-4.69,7.15a30.76,30.76,0,0,0-4.83,9.34,21.23,21.23,0,0,0-.76,8.18"/>
            <circle id="question_dot" class="cls-2" cx="390.72" cy="276.74" r="3.47"/>
        </g>
        <g id="curiosity">
            <path class="cls-2" d="M353.75,329l2,1.77a11.2,11.2,0,0,1-7.63,3.28,10.38,10.38,0,1,1,0-20.75,11.2,11.2,0,0,1,7.63,3.28l-2,1.8a8.47,8.47,0,0,0-5.66-2.42,7.73,7.73,0,0,0,0,15.45A8.45,8.45,0,0,0,353.75,329Z"/>
            <path class="cls-2" d="M364.42,334.06a5.4,5.4,0,0,1-4-1.52,5.24,5.24,0,0,1-1.55-3.78v-7.95h2.64v7.85a2.63,2.63,0,0,0,.83,1.94,2.81,2.81,0,0,0,2,.82,2.74,2.74,0,0,0,2-.81,2.64,2.64,0,0,0,.83-1.95v-7.85h2.62v7.95a5.21,5.21,0,0,1-5.4,5.3Z"/>
            <path class="cls-2" d="M376.26,322.58a4.68,4.68,0,0,1,3.62-2.1v2.73a3.35,3.35,0,0,0-2.29.93,4.33,4.33,0,0,0-1.33,3v6.72h-2.63V320.81h2.63Z"/>
            <path class="cls-2" d="M385.52,316a1.85,1.85,0,0,1,0,2.61,1.85,1.85,0,0,1-2.61,0,1.85,1.85,0,0,1,0-2.61,1.85,1.85,0,0,1,2.61,0Zm0,4.83v13.07H382.9V320.81Z"/>
            <path class="cls-2" d="M396,319.75a7.24,7.24,0,1,1-5.11,2.12A7,7,0,0,1,396,319.75Zm-3.21,4a4.5,4.5,0,1,0,3.21-1.34A4.37,4.37,0,0,0,392.81,323.79Z"/>
            <path class="cls-2" d="M408.93,331.07a1.51,1.51,0,0,0,1.11.46,1.48,1.48,0,0,0,1.11-.46,1.52,1.52,0,0,0,.47-1.13,1.47,1.47,0,0,0-.46-1.1,8.87,8.87,0,0,0-1.36-1,9.28,9.28,0,0,1-2-1.37,3.56,3.56,0,0,1,2.52-6.07,3.3,3.3,0,0,1,2.45,1,3.26,3.26,0,0,1,.89,1.56l-2.56.74a1.25,1.25,0,0,0-.17-.42.85.85,0,0,0-.61-.23.92.92,0,0,0-.93.93.89.89,0,0,0,.27.65,8.54,8.54,0,0,0,1.09.77A10.53,10.53,0,0,1,413,327a4.2,4.2,0,1,1-5.94,5.95,4.14,4.14,0,0,1-1.11-2.12l2.61-.56A1.61,1.61,0,0,0,408.93,331.07Z"/>
            <path class="cls-2" d="M420.31,316a1.82,1.82,0,0,1,0,2.61,1.83,1.83,0,0,1-2.6,0,1.85,1.85,0,0,1,0-2.61,1.83,1.83,0,0,1,2.6,0Zm0,4.83v13.07H417.7V320.81Z"/>
            <path class="cls-2" d="M425.94,320.81v-4.9h2.63v4.9h2.34v2.63h-2.34v10.44h-2.63V323.44h-2.35v-2.63Z"/>
            <path class="cls-2" d="M437.19,338.27h-2.78l3.47-7.3L433,320.81h3l3.31,7.15,3.32-7.15h2.94Z"/>
        </g>
        <path id="passion_sym" class="cls-2" d="M265.84,247.75a20.12,20.12,0,0,1-4.29,4.77.88.88,0,0,1-1.45-.78c.7-4.93,1.45-15.73-7.18-30.92a.88.88,0,0,0-1.64.33,46.88,46.88,0,0,1-1.91,9.47.88.88,0,0,1-1.7-.12c-1.94-11.67-8.31-32.7-10.65-40.23a.88.88,0,0,0-1.68,0c-2.23,7.78-8.45,29.76-10.34,39.6a.88.88,0,0,1-1.71,0,36.79,36.79,0,0,1-1.16-8,.88.88,0,0,0-1.64-.38c-11.06,19.61-7.6,32-7.6,32.27v.3a22.21,22.21,0,0,1-5.78-6.71.87.87,0,0,0-1.61.17c-1.68,5.87-3.83,21.14,16.86,26.49l14.2,4.5a.8.8,0,0,0,.53,0l13.46-4.29.11,0c20.9-3.6,18.43-20.27,16.8-26.32A.88.88,0,0,0,265.84,247.75Zm-15.23,16.34c-3,3.44-11.59,9.87-12.44,10.36l-.07.05-1.07.8a.87.87,0,0,1-1,0l-1.15-.74,0,0c-.7-.54-9.4-6.91-12.45-10.36A17,17,0,0,1,218,253.12a10,10,0,0,1,3.09-7.48,10.2,10.2,0,0,1,8.88-2.89,12.12,12.12,0,0,1,5.86,2.82.9.9,0,0,0,1.2,0,12.06,12.06,0,0,1,5.89-2.83,10.41,10.41,0,0,1,11.85,8.74,9.92,9.92,0,0,1,.11,1.63C255.09,257,253.5,260.8,250.61,264.09Z"/>
        <g id="passion">
            <path class="cls-2" d="M195.22,327.38v6.5h-2.63V313.57h5.77a7.06,7.06,0,0,1,4.14,2,6.92,6.92,0,0,1-4.88,11.8Zm0-11.17v8.53h2.4a4.27,4.27,0,0,0,0-8.53Z"/>
            <path class="cls-2" d="M217.29,321.73v-.92h2.64v13.08h-2.64v-1.64a6,6,0,0,1-4.42,2,7.23,7.23,0,0,1,0-14.45A6,6,0,0,1,217.29,321.73Zm0,6.23V326a4.31,4.31,0,0,0-1.22-2.23,4.55,4.55,0,0,0-6.41,0,4.53,4.53,0,0,0,0,6.39,4.54,4.54,0,0,0,6.41,0A4.34,4.34,0,0,0,217.29,328Z"/>
            <path class="cls-2" d="M226.39,331.07a1.58,1.58,0,0,0,2.69-1.13,1.47,1.47,0,0,0-.46-1.1,9.16,9.16,0,0,0-1.35-1,9,9,0,0,1-2-1.37,3.56,3.56,0,0,1,2.51-6.07,3.3,3.3,0,0,1,2.45,1,3.18,3.18,0,0,1,.89,1.56l-2.55.74a1.22,1.22,0,0,0-.18-.42.84.84,0,0,0-.61-.23.93.93,0,0,0-.66,1.58,8.54,8.54,0,0,0,1.09.77,10.91,10.91,0,0,1,2.29,1.57,4.21,4.21,0,0,1,0,5.95,4,4,0,0,1-3,1.24,4.06,4.06,0,0,1-3-1.24,4.16,4.16,0,0,1-1.12-2.12l2.61-.56A1.61,1.61,0,0,0,226.39,331.07Z"/>
            <path class="cls-2" d="M237.59,331.07a1.51,1.51,0,0,0,1.11.46,1.48,1.48,0,0,0,1.11-.46,1.52,1.52,0,0,0,.47-1.13,1.47,1.47,0,0,0-.46-1.1,8.87,8.87,0,0,0-1.36-1,9.28,9.28,0,0,1-2-1.37,3.56,3.56,0,0,1,2.52-6.07,3.3,3.3,0,0,1,2.45,1,3.26,3.26,0,0,1,.89,1.56l-2.56.74a1.07,1.07,0,0,0-.17-.42.85.85,0,0,0-.61-.23.92.92,0,0,0-.93.93.89.89,0,0,0,.27.65,8.54,8.54,0,0,0,1.09.77,10.53,10.53,0,0,1,2.28,1.57,4.2,4.2,0,1,1-5.94,5.95,4.14,4.14,0,0,1-1.11-2.12l2.61-.56A1.61,1.61,0,0,0,237.59,331.07Z"/>
            <path class="cls-2" d="M249,316a1.82,1.82,0,0,1,0,2.61,1.83,1.83,0,0,1-2.6,0,1.85,1.85,0,0,1,0-2.61,1.83,1.83,0,0,1,2.6,0Zm0,4.83v13.07h-2.63V320.81Z"/>
            <path class="cls-2" d="M259.47,319.75a7.24,7.24,0,1,1-5.1,2.12A7,7,0,0,1,259.47,319.75Zm-3.2,4a4.52,4.52,0,0,0,3.2,7.71,4.53,4.53,0,1,0-3.2-7.71Z"/>
            <path class="cls-2" d="M272.38,324.32v9.56h-2.64V320.81h2.64v1.53a3.23,3.23,0,0,1,3.32-2.24,4.15,4.15,0,0,1,3.37,1.51,5.9,5.9,0,0,1,1.29,3.77v8.5h-2.63v-8.39a2.62,2.62,0,0,0-.83-1.94,2.7,2.7,0,0,0-2-.81,2.76,2.76,0,0,0-2,.79A3.26,3.26,0,0,0,272.38,324.32Z"/>
        </g>
    </g>
</svg>