<svg xmlns="http://www.w3.org/2000/svg" xmlns:xlink="http://www.w3.org/1999/xlink" viewBox="0 0 39.94 39.94"><defs><style>.cls-1{fill:#384149;}.cls-2{fill:url(#radial-gradient);}.cls-3{fill:none;}.cls-4{fill:#1d7ca7;}.cls-5{fill:#fff;}</style><radialGradient id="radial-gradient" cx="19.94" cy="35.5" r="8.02" gradientUnits="userSpaceOnUse"><stop offset="0" stop-color="#53b4df"/><stop offset="1" stop-color="#1c9cd6"/></radialGradient></defs><title>Head_2</title><g id="Calque_2" data-name="Calque 2"><g id="Calque_1-2" data-name="Calque 1"><path class="cls-1" d="M32.22,14.15c0,.35,0,.69,0,1a11.75,11.75,0,0,1-.26,1.68,12.45,12.45,0,0,1-.71,2.19,12,12,0,0,1-1,1.9,10.53,10.53,0,0,1-1,1.35c-.09.11-.19.21-.28.31a12.64,12.64,0,0,1-1,.94l-.27.22a11.66,11.66,0,0,1-1.38.95l-.45.26a12.29,12.29,0,0,1-4,1.33,13.35,13.35,0,0,1-1.79.13,12.68,12.68,0,0,1-1.76-.13A12.43,12.43,0,0,1,14.12,25l-.6-.35a11.68,11.68,0,0,1-1.66-1.23.8.8,0,0,1-.17-.15,11.63,11.63,0,0,1-1.1-1.12l-.19-.23a12.51,12.51,0,0,1-1.34-2L9,19.66A12.47,12.47,0,0,1,8.2,17.8l-.11-.38a12.69,12.69,0,0,1-.38-2.06l0-.35c0-.28,0-.57,0-.86s0-.34,0-.51a2.11,2.11,0,0,1,0-.25,11,11,0,0,1,.21-1.64c0-.12.05-.24.07-.36.1-.42.22-.84.36-1.25,0-.15.11-.3.17-.44a11.74,11.74,0,0,1,.59-1.3c.18-.33.37-.66.58-1a6.42,6.42,0,0,1,.42-.6,7.68,7.68,0,0,1,.5-.63,11.69,11.69,0,0,1,1-1l.36-.32a11.18,11.18,0,0,1,1.47-1.09l.53-.32c.26-.15.53-.29.8-.42l.52-.23a12.89,12.89,0,0,1,1.59-.53c.28-.07.56-.14.84-.19A11.16,11.16,0,0,1,19,1.91l.67,0h.3l.7,0,.44,0a12,12,0,0,1,1.81.31l.4.1a12.51,12.51,0,0,1,1.91.72l.51.26c.32.17.63.35.93.55l.16.1a13.7,13.7,0,0,1,1.2.93,9.58,9.58,0,0,1,.73.69,12.46,12.46,0,0,1,1,1.17l.18.24a14.06,14.06,0,0,1,.83,1.33c.05.08.09.17.13.25a12.14,12.14,0,0,1,1,2.52q.16.67.27,1.38A13.29,13.29,0,0,1,32.22,14.15Z"/><path class="cls-1" d="M12.42,22.46a0,0,0,0,1,0,0,1.05,1.05,0,0,1-.55.91l-.13.07a1.05,1.05,0,0,1-.4.07,1.08,1.08,0,0,1-1.08-1.08,1,1,0,0,1,0-.3,2,2,0,0,1,.11-.26,1.1,1.1,0,0,1,.93-.52,1.27,1.27,0,0,1,.28,0,1,1,0,0,1,.38.19,1.14,1.14,0,0,1,.24.25A1.05,1.05,0,0,1,12.42,22.46Z"/><path class="cls-1" d="M9.45,10.78a1.12,1.12,0,0,1-.17.57,1.07,1.07,0,0,1-.92.51,1,1,0,0,1-.47-.11,1.64,1.64,0,0,1-.22-.14A1.09,1.09,0,0,1,8,9.74a1.2,1.2,0,0,1,.33-.05h.13a1.07,1.07,0,0,1,.94.9A1.1,1.1,0,0,1,9.45,10.78Z"/><path class="cls-1" d="M15.52,3.54a1.08,1.08,0,0,1-.21.63,1,1,0,0,1-.62.42,1.09,1.09,0,0,1-.26,0,1.07,1.07,0,0,1-1-.85.91.91,0,0,1,0-.23.86.86,0,0,1,0-.28,1.08,1.08,0,0,1,1-.81,1.14,1.14,0,0,1,.33,0,1.22,1.22,0,0,1,.47.3A1.09,1.09,0,0,1,15.52,3.54Z"/><circle class="cls-1" cx="25.72" cy="4" r="1.08"/><path class="cls-1" d="M9.22,14.37a1,1,0,0,1-.07.39,1.09,1.09,0,0,1-1,.69,1,1,0,0,1-.43-.09,1.28,1.28,0,0,1-.25-.15,1.09,1.09,0,0,1-.4-.84,1.07,1.07,0,0,1,.46-.89.51.51,0,0,1,.16-.09,1,1,0,0,1,.46-.11,1.09,1.09,0,0,1,1,.69A1.05,1.05,0,0,1,9.22,14.37Z"/><circle class="cls-1" cx="28.23" cy="22.91" r="1.08"/><circle class="cls-1" cx="29.35" cy="21.65" r="1.08"/><circle class="cls-1" cx="26.8" cy="23.82" r="1.08"/><path class="cls-1" d="M21.11,2.15a1.07,1.07,0,0,1-.55.94,1.09,1.09,0,0,1-.54.15h-.08A1,1,0,0,1,19.37,3a1.1,1.1,0,0,1-.43-.87,1,1,0,0,1,0-.24,1,1,0,0,1,.4-.62,1.05,1.05,0,0,1,.57-.22H20a1.06,1.06,0,0,1,.89.47,1,1,0,0,1,.17.38A.91.91,0,0,1,21.11,2.15Z"/><circle class="cls-1" cx="30.43" cy="7.58" r="1.08"/><path class="cls-1" d="M11.86,20.57a1.43,1.43,0,0,1-.09.5,1.33,1.33,0,0,1-.16.34,1.58,1.58,0,0,1-1,.72,1.45,1.45,0,0,1-.3,0h0a1.6,1.6,0,0,1-1.6-1.59,1.64,1.64,0,0,1,.18-.73A1.08,1.08,0,0,1,9,19.66,1.59,1.59,0,0,1,10.26,19h.14a1.62,1.62,0,0,1,1.46,1.6Z"/><path class="cls-1" d="M14.87,23.06a1.6,1.6,0,0,1-1.09,1.51,1.1,1.1,0,0,1-.26.06,1,1,0,0,1-.25,0,1.6,1.6,0,0,1-1.54-1.19.78.78,0,0,1,0-.22,1.11,1.11,0,0,1,0-.19,1.6,1.6,0,0,1,.47-1.13l.09-.08a1.6,1.6,0,0,1,2.64,1.21Z"/><path class="cls-1" d="M11,9A1.59,1.59,0,0,1,9.45,10.6h0a1.6,1.6,0,0,1-1.11-.46A1.71,1.71,0,0,1,8,9.74,1.52,1.52,0,0,1,7.85,9a1.58,1.58,0,0,1,1-1.47,1.44,1.44,0,0,1,.62-.13l.21,0A1.58,1.58,0,0,1,11,8.78,1.64,1.64,0,0,1,11,9Z"/><circle class="cls-1" cx="24.12" cy="3.24" r="1.6"/><path class="cls-1" d="M17.9,2.92a1.62,1.62,0,0,1-.11.58,1.6,1.6,0,0,1-1.49,1A1.58,1.58,0,0,1,14.71,3V2.92a2,2,0,0,1,0-.42,1.59,1.59,0,0,1,2.23-1,1.56,1.56,0,0,1,.67.6A1.59,1.59,0,0,1,17.9,2.92Z"/><path class="cls-1" d="M10.25,16.27a1.53,1.53,0,0,1-.36,1,1.57,1.57,0,0,1-1.24.6,1.37,1.37,0,0,1-.45-.07,1.27,1.27,0,0,1-.32-.13,1.6,1.6,0,0,1-.42-2.46,2.09,2.09,0,0,1,.22-.2,1.58,1.58,0,0,1,1-.33,1.38,1.38,0,0,1,.5.08A1.59,1.59,0,0,1,10.25,16.27Z"/><circle class="cls-1" cx="28.43" cy="6.43" r="1.6"/><circle class="cls-1" cx="30.77" cy="9.91" r="1.6"/><path class="cls-1" d="M14.71,4.83a1.6,1.6,0,0,1-1.6,1.6,1.5,1.5,0,0,1-.37,0,1.6,1.6,0,0,1-1.19-1.2,2,2,0,0,1,0-.35.19.19,0,0,1,0-.08,1.59,1.59,0,0,1,1.59-1.51,1.32,1.32,0,0,1,.28,0,1.63,1.63,0,0,1,.52.19,1.59,1.59,0,0,1,.78,1.14A1.94,1.94,0,0,1,14.71,4.83Z"/><path class="cls-1" d="M10.5,18.44a1.51,1.51,0,0,1-.1.53,1.43,1.43,0,0,1-1.32.9h0a1.46,1.46,0,0,1-.22,0,1.41,1.41,0,0,1-1.19-1.4,1.37,1.37,0,0,1,.23-.77,1.27,1.27,0,0,1,.21-.25,1.43,1.43,0,0,1,1.8-.15A1.43,1.43,0,0,1,10.5,18.44Z"/><path class="cls-1" d="M11.67,7.58a1.43,1.43,0,0,1-2.85,0,.06.06,0,0,1,0,0A1.41,1.41,0,0,1,9.91,6.2a1.27,1.27,0,0,1,.34,0,1.24,1.24,0,0,1,.33,0,1.42,1.42,0,0,1,1.09,1.34Z"/><circle class="cls-1" cx="21.89" cy="2.58" r="1.42"/><path class="cls-1" d="M10.09,12.63a1.46,1.46,0,0,1-.16.66,1.41,1.41,0,0,1-.78.68,1.57,1.57,0,0,1-.49.08,1.4,1.4,0,0,1-1-.41l-.14-.16a1.4,1.4,0,0,1-.28-.85,1.44,1.44,0,0,1,.43-1A1.48,1.48,0,0,1,8,11.39a1.4,1.4,0,0,1,.7-.18,1.44,1.44,0,0,1,.62.14,1.34,1.34,0,0,1,.51.41A1.39,1.39,0,0,1,10.09,12.63Z"/><circle class="cls-1" cx="31.71" cy="13.83" r="1.42"/><circle class="cls-1" cx="30.77" cy="17.7" r="1.42"/><path class="cls-1" d="M12.76,6.16a1.64,1.64,0,0,1,0,.22,1.44,1.44,0,0,1-1.07,1.16,1.27,1.27,0,0,1-.34,0,1.42,1.42,0,0,1-1.25-.75,1.24,1.24,0,0,1-.17-.63v0a1.43,1.43,0,0,1,1.42-1.43l.19,0a1.09,1.09,0,0,1,.39.11A1.42,1.42,0,0,1,12.76,6.16Z"/><circle class="cls-1" cx="27.4" cy="5.06" r="1.42"/><path class="cls-1" d="M19.67,2.15a1.39,1.39,0,0,1-.3.87,1.41,1.41,0,0,1-1.13.56,1.38,1.38,0,0,1-.45-.08,1.44,1.44,0,0,1-1-1.23V2.15A1.39,1.39,0,0,1,17,1.48a1.42,1.42,0,0,1,2.38-.19,1.35,1.35,0,0,1,.27.58A1.33,1.33,0,0,1,19.67,2.15Z"/><path class="cls-2" d="M19.94,39.94a19.86,19.86,0,0,0,10.44-3,11.72,11.72,0,0,0-3.51-4.29h0c-.22-.17-.44-.32-.67-.47L25.8,32l-.31-.18,0,0-.28-.15L25,31.48l0,0-.05,0-.05,0a1.18,1.18,0,0,1-.18-.13l-.25-.19h0A6.24,6.24,0,0,1,20,33h0a6.37,6.37,0,0,1-2.73-.64,6.46,6.46,0,0,1-1.27-.83h0l-.44-.41h0l-.07.06-.18.13,0,0a2.2,2.2,0,0,1-.25.17,6,6,0,0,1-.54.33h0l-.34.19c-.24.14-.48.3-.71.45l-.33.24a11.64,11.64,0,0,0-1,.85l-.24.23A11.52,11.52,0,0,0,9.5,37,19.86,19.86,0,0,0,19.94,39.94Z"/><path class="cls-3" d="M28.11,33.76a11.56,11.56,0,0,0-1.24-1.08h0c-.22-.17-.44-.32-.67-.47L25.8,32l-.3-.18,0,0-.28-.16L25,31.48l0,0-.05,0-.05,0a1.33,1.33,0,0,1-.19-.14h0l-.23-.18a7.31,7.31,0,0,1-2.33-3.27,6.87,6.87,0,0,1-.35-1.49,7.45,7.45,0,0,1-.07-.95H18.24a7.77,7.77,0,0,1-.06,1,7.46,7.46,0,0,1-.36,1.5,7.38,7.38,0,0,1-2.34,3.26h0a6.13,6.13,0,0,1-.58.42l-.2.12-.28.16h0l-.34.2c-.24.13-.48.29-.71.44l-.33.24a11.64,11.64,0,0,0-1,.85l-.24.23A11.52,11.52,0,0,0,9.5,37a19.83,19.83,0,0,0,20.88,0A11.6,11.6,0,0,0,28.11,33.76Z"/><path class="cls-4" d="M25.8,32h0l-.24.24a7.8,7.8,0,0,1-5.62,2.37h0a7.9,7.9,0,0,1-5.64-2.37L14.07,32h0l.34-.19a0,0,0,0,1,0,0h0l.28-.16.2-.12.06,0a2.2,2.2,0,0,0,.25-.17l0,0,.18-.13.07-.06h0l.44.41h0a6.31,6.31,0,0,0,4,1.47h0a6.24,6.24,0,0,0,4.46-1.88h0l.23.18h0c.06,0,.11.09.18.13l.05,0,.05,0,0,0,.22.14.28.15,0,0Z"/><path class="cls-5" d="M28.82,12v5.21a9.77,9.77,0,0,1-.1,1.44,11.58,11.58,0,0,1-1,3.33c-.14.3-.3.6-.46.89l-.11.19a12.7,12.7,0,0,1-1.1,1.58c-.1.12-.2.25-.31.37a11.07,11.07,0,0,1-3.67,2.82,5.41,5.41,0,0,1-2.14.51,5.35,5.35,0,0,1-2.13-.5A11.14,11.14,0,0,1,14.12,25l-.34-.41a13.13,13.13,0,0,1-1.37-2.08l-.27-.56L12,21.6c-.08-.18-.15-.35-.22-.53a11.22,11.22,0,0,1-.5-1.74c0-.23-.09-.47-.12-.71a11.35,11.35,0,0,1-.1-1.44V12Z"/><path class="cls-1" d="M10.83,18.67h0A1.18,1.18,0,0,0,12,17.49V11.82H10.83Z"/><path class="cls-1" d="M27.86,11.82H29v6.85h0a1.18,1.18,0,0,1-1.18-1.18Z"/><circle class="cls-1" cx="17.73" cy="12.18" r="1.42"/><circle class="cls-1" cx="14.43" cy="11.86" r="1.42"/><circle class="cls-1" cx="11.05" cy="12.41" r="1.42"/><circle class="cls-1" cx="21.89" cy="12.03" r="1.42"/><circle class="cls-1" cx="26.19" cy="12.03" r="1.42"/><circle class="cls-1" cx="29.15" cy="13.38" r="1.42"/><circle class="cls-1" cx="19.94" cy="12.29" r="1.08"/><circle class="cls-1" cx="12.6" cy="12.18" r="1.08"/><circle class="cls-1" cx="16.3" cy="12.18" r="1.08"/><circle class="cls-1" cx="30.58" cy="19.72" r="1.6"/><circle class="cls-1" cx="24.12" cy="12.52" r="1.08"/><circle class="cls-1" cx="27.62" cy="12.52" r="1.08"/><circle class="cls-1" cx="31.93" cy="15.92" r="1.08"/><circle class="cls-1" cx="32.18" cy="11.84" r="1.08"/><rect class="cls-3" width="39.94" height="39.94"/></g></g></svg>