<svg xmlns="http://www.w3.org/2000/svg" viewBox="0 0 38.23 38.23"><defs><style>.cls-1{fill:#2aa2d8;}.cls-2{fill:#384149;}</style></defs><title>Projects</title><g id="Calque_2" data-name="Calque 2"><g id="Calque_1-2" data-name="Calque 1"><path class="cls-1" d="M14,29.31V26.76H12.58a5.37,5.37,0,0,0-.5-1.24l1.3-1.31L11.47,22.3l-1.31,1.31a4.81,4.81,0,0,0-1.24-.5V21.67H6.37v1.44a4.81,4.81,0,0,0-1.24.5L3.82,22.3,1.91,24.21l1.31,1.31a5,5,0,0,0-.5,1.24H1.27v2.55H2.72a5,5,0,0,0,.5,1.25l-1.31,1.3,1.91,1.91,1.31-1.3a4.81,4.81,0,0,0,1.24.5v1.44H8.92V33a4.81,4.81,0,0,0,1.24-.5l1.31,1.3,1.91-1.91-1.3-1.3a5.44,5.44,0,0,0,.5-1.25ZM7.65,30.59A2.55,2.55,0,1,1,10.2,28,2.55,2.55,0,0,1,7.65,30.59Z"/><path class="cls-2" d="M38.23,29.31V25.49H36.77A9.47,9.47,0,0,0,35.31,22L37,20.39l-2.55-2.55-1.65,1.65A9.47,9.47,0,0,0,29.31,18V16.57H25.49V18A9.47,9.47,0,0,0,22,19.49l-1.65-1.65-2.55,2.55L19.49,22A9.47,9.47,0,0,0,18,25.49H16.57v3.82H18a9.47,9.47,0,0,0,1.46,3.45l-1.65,1.65L20.39,37,22,35.31a9.47,9.47,0,0,0,3.45,1.46v1.46h3.82V36.77a9.47,9.47,0,0,0,3.45-1.46L34.41,37,37,34.41l-1.65-1.65a9.47,9.47,0,0,0,1.46-3.45ZM27.4,30.59a3.19,3.19,0,1,1,3.19-3.19A3.19,3.19,0,0,1,27.4,30.59Z"/><path class="cls-2" d="M17.73,8.28a8.2,8.2,0,0,0-1.44-3.54l.92-.92L15.29,1.91l-.91.92a8.2,8.2,0,0,0-3.55-1.45V0H8.28V1.38A8.21,8.21,0,0,0,4.74,2.83l-.92-.92L1.91,3.82l.92.92A8.21,8.21,0,0,0,1.38,8.28H0v2.55H1.38a8.2,8.2,0,0,0,1.45,3.55l-.92.91,1.91,1.92.92-.92a8.2,8.2,0,0,0,3.54,1.44v1.39h2.55V17.73a8.27,8.27,0,0,0,3.54-1.44l.92.92,1.92-1.92-.92-.92a8.27,8.27,0,0,0,1.44-3.54h1.39V8.28ZM9.56,14.09a4.53,4.53,0,1,1,4.53-4.53A4.53,4.53,0,0,1,9.56,14.09Z"/></g></g></svg>